<svg width="8.987183" height="5.432434" viewBox="0 0 8.98718 5.43243" fill="none" xmlns="http://www.w3.org/2000/svg" xmlns:xlink="http://www.w3.org/1999/xlink">
	<desc>
			Created with Pixso.
	</desc>
	<defs/>
	<g style="mix-blend-mode:normal">
		<path id="Path 4" d="M8.87 0.83L5.12 5.17C4.99 5.33 4.75 5.43 4.49 5.43C4.23 5.43 3.99 5.33 3.85 5.17L0.11 0.83C-0.04 0.66 -0.04 0.45 0.09 0.27C0.22 0.1 0.47 -0.01 0.75 0L8.23 0C8.5 -0.01 8.76 0.1 8.89 0.27C9.02 0.45 9.01 0.66 8.87 0.83Z" fill="#ffffff" fill-opacity="1.000000" fill-rule="nonzero"/>
		<path id="Path 4" d="M5.12 5.17C4.99 5.33 4.75 5.43 4.49 5.43C4.23 5.43 3.99 5.33 3.85 5.17L0.11 0.83C-0.04 0.66 -0.04 0.45 0.09 0.27C0.22 0.1 0.47 -0.01 0.75 0L8.23 0C8.5 -0.01 8.76 0.1 8.89 0.27C9.02 0.45 9.01 0.66 8.87 0.83L5.12 5.17Z" stroke="#707070" stroke-opacity="0" stroke-width="1.000000"/>
	</g>
</svg>
