<svg width="165.404785" height="165.341797" viewBox="0 0 165.405 165.342" fill="none" xmlns="http://www.w3.org/2000/svg" xmlns:xlink="http://www.w3.org/1999/xlink">
	<desc>
			Created with Pixso.
	</desc>
	<defs/>
	<g style="mix-blend-mode:normal">
		<path id="Contact us now! - ModelKos Agency" d="M100.71 162.94C96.19 165.29 92.73 160.49 92.73 160.49L93.21 162.78C93.21 162.78 96.15 165.45 100.78 163.09C104.72 161.12 106.26 156.29 104.31 152.34C102.25 148.4 97.53 146.74 93.58 148.83C92.11 149.55 90.9 150.73 90.15 152.19L90.73 154.98C90.54 152.54 91.34 150.1 93.65 148.93C97.18 147.14 101.08 149.95 102.7 153.13C104.24 156.3 104.26 161.12 100.71 162.94ZM81.79 165.12C86.08 164.13 88.77 159.85 87.8 155.55C86.79 151.19 82.55 148.49 78.28 149.53C73.97 150.5 71.27 154.84 72.31 159.08C73.25 163.39 77.54 166.16 81.79 165.12ZM81.77 164.94C77.87 165.88 74.85 162.19 74.05 158.7C73.3 155.25 74.44 150.54 78.32 149.69C82.15 148.82 85.19 152.53 85.97 155.95C86.76 159.42 85.63 164.09 81.77 164.94ZM66.62 163.95L70.78 148.62L69.15 148.18L65.04 163.35C62.69 162.72 61.43 160.49 60.8 157.66C60.05 154.08 60.42 149.52 61.36 146.07L59.73 145.63L55.58 160.95L57.2 161.39L60.58 148.93C60.15 151.82 60.05 155.01 60.69 157.73C61.27 160.58 62.63 162.86 65 163.51L66.62 163.95ZM53.43 142.68L51.89 141.89L44.79 155.92C42.67 154.83 41.45 154.06 40.72 152.1L39.93 153.66L51.03 159.28L51.82 157.72C49.86 158.31 48.49 157.77 46.33 156.7L53.43 142.68ZM40.31 134.4L38.77 133.3L35 150.13L35.13 150.22C38.21 148.85 42.24 146.7 45.08 144.78C46.15 144.08 47.13 143.27 48.01 142.34C48.69 141.58 48.88 140.89 48.54 140.32C48.52 140.18 48.45 140.06 48.34 139.98C47.54 139.35 46.75 139.81 45.75 140.48C44.21 141.39 42.15 142.77 38.83 140.83L40.31 134.4ZM38.79 141C42.18 142.95 44.28 141.56 45.87 140.62C46.76 139.98 47.51 139.55 48.2 140.13C48.26 140.23 48.32 140.32 48.4 140.41C48.73 140.87 48.45 141.53 47.88 142.25C47.01 143.16 46.03 143.97 44.98 144.65C42.69 146.22 39.66 147.82 37.01 149.18L38.79 141ZM23.42 139.58C19.07 136.94 21.37 131.5 21.37 131.5L19.66 133.09C19.66 133.09 18.91 137 23.33 139.73C27.06 142.06 31.98 140.88 34.35 137.16C36.65 133.35 35.62 128.47 31.78 126.17C30.4 125.29 28.77 124.87 27.13 124.98L25.04 126.93C27.03 125.5 29.54 124.92 31.73 126.28C35.1 128.37 34.71 133.16 32.84 136.2C30.93 139.16 26.82 141.67 23.42 139.58ZM25.72 117.4L24.84 115.91L11.32 123.92C10.12 121.86 9.5 120.55 9.94 118.52L8.43 119.41L14.77 130.11L16.28 129.22C14.31 128.66 13.44 127.47 12.2 125.41L25.72 117.4ZM3.29 105.89L3.7 107.62L13.57 105.29C17.91 104.26 19.22 99.37 16.9 95.79C15.5 93.69 13.22 92.96 10.79 93.53L0.92 95.86L1.33 97.57C2.87 95.68 7.56 94.5 10.84 93.73C13.36 93.13 15.47 93.95 16.73 95.87C18.88 99.08 16.8 102.7 13.16 103.56L3.29 105.89ZM4.13 89.84C6.69 89.76 7.9 87.36 8.9 84.92C11.14 79.6 13.44 79.13 14.73 80.57C17.2 83.33 15.4 88.43 9.9 90.8L13.02 90.71C16.2 88.06 16.94 82.89 14.9 80.38C14.19 79.56 13.14 79.11 12.05 79.17C9.4 79.25 8.19 81.63 7.21 84.12C4.82 89.68 2.36 89.94 1.15 88.22C-0.35 86.2 -0.14 82.1 4.39 79.68L2.03 79.76C-1.03 81.79 -0.88 90 4.13 89.84ZM1.37 67.17L16.73 71.2L17.16 69.57L1.95 65.58C2.57 63.23 4.79 61.95 7.61 61.29C11.19 60.51 15.75 60.85 19.21 61.76L19.64 60.13L4.28 56.1L3.85 57.73L16.34 61C13.44 60.59 10.25 60.52 7.55 61.18C4.69 61.78 2.42 63.16 1.8 65.54L1.37 67.17ZM8.93 45.94C7.96 50.24 10.63 54.53 14.93 55.53C19.29 56.52 23.57 53.87 24.49 49.57C25.5 45.27 22.77 40.95 18.5 40.04C14.21 39.01 9.85 41.67 8.93 45.94ZM9.1 46.01C9.96 42.08 14.59 40.97 18.08 41.78C21.52 42.6 25.26 45.68 24.33 49.54C23.45 53.37 18.79 54.49 15.36 53.7C11.89 52.9 8.19 49.85 9.1 46.01ZM35.95 34.88L30.62 23.48C29.88 21.84 28.31 20.94 26.65 21.77C24.89 22.64 24.42 24.73 25.47 26.86L26.9 30L20.87 27.85L19.6 29.26L27.94 32.21L30.47 37.59L16.5 32.69L15.18 34.15L31.49 39.82L31.63 39.67L28.13 32.3L35.85 35L35.95 34.88ZM27.18 30.07L25.58 26.74C24.77 24.98 24.87 22.86 26.72 21.89C28.32 21.09 29.89 21.97 30.62 23.48L34.83 32.77L27.18 30.07ZM32.18 18.24L39.69 26.68L39.83 26.57L33 16.47L32.18 18.24ZM40.72 28.07C40.24 28.43 40.14 29.11 40.49 29.61C40.68 29.83 40.94 29.97 41.23 30C41.52 30.03 41.81 29.94 42.03 29.76C42.27 29.59 42.43 29.34 42.47 29.05C42.52 28.77 42.44 28.47 42.26 28.25C42.08 28.02 41.82 27.87 41.53 27.83C41.24 27.8 40.95 27.88 40.72 28.07ZM45.64 17.38L46.14 18.34L51.69 15.47L51.2 14.51L45.64 17.38ZM72.3 0.39C67.63 1.37 67.61 8.2 68.26 13.35L60.79 2.82L58.96 3.2L62.24 18.74L62.38 18.71L59.18 3.57L60.1 4.89L68.93 17.33L69.15 17.28C68.31 13.27 66.73 4.05 70.74 1.27L73.91 16.28L75.58 15.92L72.3 0.39ZM83.69 0.22C79.4 1.21 76.71 5.49 77.68 9.79C78.7 14.15 82.95 16.84 87.22 15.8C91.53 14.83 94.22 10.49 93.18 6.24C92.23 1.93 87.94 -0.83 83.69 0.22ZM83.71 0.4C87.61 -0.55 90.63 3.14 91.43 6.63C92.19 10.08 91.05 14.79 87.18 15.64C83.34 16.52 80.3 12.81 79.52 9.39C78.72 5.91 79.85 1.25 83.71 0.4ZM99.67 18.03C103.87 19.2 108.22 16.75 109.4 12.55C110.61 8.29 108.13 3.92 103.99 2.75L99.06 1.35L94.74 16.63L99.67 18.03ZM100.7 1.98L103.95 2.9C107.26 3.84 108.97 7.97 107.8 12.1C106.63 16.24 103.03 18.79 99.72 17.86L96.47 16.94L100.7 1.98ZM115.01 12.25C114.39 14.91 116.86 16.01 117.36 17.92L118.16 16.34C115.41 14.95 114.29 13.67 115.68 10.92L117.33 7.67L118.97 8.51C121.42 9.75 122.41 10.37 123.15 12.46L123.96 10.85L115.85 6.75L108.68 20.91L116.67 24.96L118.63 22.22C116.88 23.88 115.44 24.14 113.7 23.25L110.31 21.54L115.01 12.25ZM128.12 28.98C126.1 30.32 124.66 30.35 123.1 29.2L120.04 26.95L129.34 14.31L127.89 13.24L118.48 26.03L125.71 31.34L128.12 28.98ZM137.44 30.7C140.89 34.46 131.1 36.56 136.63 42.6L136.76 42.48C135.7 41.32 136.43 39.58 137.3 37.6C138.34 35.24 139.7 32.9 137.58 30.57C137.11 30.07 136.47 29.77 135.78 29.75C138 29.18 140.25 29.1 142.91 29.04C142.96 29.09 145.46 29.19 146.75 30.14L144.23 27.38C144.39 28.82 140.87 28.9 140.87 28.9C137.17 29.06 134.19 29.5 130.75 31.91L140.34 23.13L139.19 21.87L127.48 32.59L128.63 33.86C130.8 31.87 132.74 30.76 134.72 30.08C135.19 29.93 136.5 29.67 137.44 30.7ZM152.13 38.04C148.93 35 143.88 35.12 140.82 38.3C137.75 41.55 137.84 46.58 141.06 49.56C144.24 52.63 149.35 52.49 152.32 49.28C155.39 46.11 155.33 41.01 152.13 38.04ZM151.98 38.16C154.92 40.89 153.51 45.45 151.03 48.04C148.57 50.57 144.02 52.21 141.17 49.45C138.32 46.73 139.74 42.15 142.17 39.61C144.63 37.03 149.15 35.41 151.98 38.16ZM156 53.04C153.57 53.86 153.11 56.5 152.86 59.13C152.25 64.86 150.19 65.99 148.54 64.98C145.38 63.06 145.62 57.66 150.2 53.78L147.23 54.79C144.96 58.24 145.75 63.4 148.43 65.21C149.35 65.8 150.49 65.92 151.51 65.54C154.02 64.69 154.49 62.07 154.71 59.41C155.38 53.39 157.67 52.43 159.31 53.72C161.34 55.22 162.33 59.21 158.69 62.83L160.93 62.08C163.27 59.24 160.75 51.43 156 53.04ZM149.65 85.46L149.7 87.35L165.4 80.22L165.4 80.07C162.45 78.43 158.31 76.51 155.06 75.4C153.87 74.96 152.62 74.67 151.35 74.53C150.34 74.44 149.67 74.71 149.41 75.32C149.32 75.42 149.27 75.55 149.27 75.68C149.25 76.7 150.09 77.06 151.22 77.46C152.88 78.13 155.22 78.95 155.68 82.77L149.65 85.46ZM155.83 82.69C155.35 78.81 152.97 77.97 151.26 77.27C150.22 76.94 149.42 76.6 149.47 75.7C149.52 75.6 149.55 75.49 149.57 75.38C149.74 74.84 150.43 74.66 151.36 74.69C152.61 74.83 153.84 75.13 155.02 75.56C157.66 76.44 160.75 77.89 163.44 79.19L155.83 82.69ZM149.3 99.78C148.81 99.06 148.39 98.21 148.34 97.17C147.97 93.3 152.03 90.67 155.58 90.38C159.1 90.1 163.58 91.91 163.96 95.86C164.45 100.78 159.03 102.28 158.74 102.34L161.04 102.75C161.04 102.75 164.62 100.97 164.12 95.86C163.94 93.74 162.92 91.78 161.29 90.41C159.66 89.04 157.56 88.38 155.44 88.57C151.03 88.99 147.73 92.86 148.22 97.2C148.33 98.85 148.98 100.42 150.07 101.65L154.7 102.46L156.18 94L154.47 93.7C155.64 95.52 155.29 98.04 154.82 100.75L149.3 99.78ZM155.91 108.15C153.21 107.79 152.34 110.35 150.49 111.02L152.14 111.67C153.27 108.8 154.43 107.57 157.3 108.69L160.69 110.03L160.01 111.74C159.01 114.3 158.48 115.35 156.47 116.27L158.14 116.93L161.47 108.47L146.69 102.67L143.42 111L146.32 112.7C144.5 111.11 144.12 109.71 144.83 107.88L146.22 104.35L155.91 108.15ZM156.08 121.32L142.59 112.95L141.7 114.38L155.06 122.67C153.78 124.73 151.28 125.3 148.39 125.1C144.74 124.79 140.48 123.13 137.44 121.25L136.55 122.68L150.05 131.05L150.93 129.62L139.96 122.81C142.61 124.05 145.64 125.06 148.42 125.22C151.32 125.49 153.9 124.84 155.19 122.75L156.08 121.32ZM142.63 139.07C140.2 143.55 134.65 141.52 134.65 141.52L136.33 143.15C136.33 143.15 140.27 143.7 142.77 139.15C144.92 135.31 143.49 130.45 139.65 128.27C135.74 126.17 130.91 127.44 128.81 131.39C127.99 132.82 127.66 134.47 127.85 136.1L129.9 138.08C128.38 136.17 127.67 133.7 128.92 131.44C130.84 127.97 135.64 128.11 138.77 129.83C141.82 131.59 144.54 135.57 142.63 139.07ZM124.41 152.79C124.51 153.21 124.26 154.38 123.81 154.74L125.91 153.32C125.53 153.52 124.7 153.57 124.57 152.54L123.61 144.5L126.54 145.86L132.67 148.74L134.35 147.61L124.64 143.05L120.89 137.52L119.42 138.51L123.43 144.44L124.41 152.79Z" fill="#FFFFFF" fill-opacity="1.000000" fill-rule="evenodd"/>
		<path id="Contact us now! - ModelKos Agency" d="M92.73 160.49L93.21 162.78C93.21 162.78 96.15 165.45 100.78 163.09C104.72 161.12 106.26 156.29 104.31 152.34C102.25 148.4 97.53 146.74 93.58 148.83C92.11 149.55 90.9 150.73 90.15 152.19L90.73 154.98C90.54 152.54 91.34 150.1 93.65 148.93C97.18 147.14 101.08 149.95 102.7 153.13C104.24 156.3 104.26 161.12 100.71 162.94C96.19 165.29 92.73 160.49 92.73 160.49ZM87.8 155.55C86.79 151.19 82.55 148.49 78.28 149.53C73.97 150.5 71.27 154.84 72.31 159.08C73.25 163.39 77.54 166.16 81.79 165.12C86.08 164.13 88.77 159.85 87.8 155.55ZM74.05 158.7C73.3 155.25 74.44 150.54 78.32 149.69C82.15 148.82 85.19 152.53 85.97 155.95C86.76 159.42 85.63 164.09 81.77 164.94C77.87 165.88 74.85 162.19 74.05 158.7ZM70.78 148.62L69.15 148.18L65.04 163.35C62.69 162.72 61.43 160.49 60.8 157.66C60.05 154.08 60.42 149.52 61.36 146.07L59.73 145.63L55.58 160.95L57.2 161.39L60.58 148.93C60.15 151.82 60.05 155.01 60.69 157.73C61.27 160.58 62.63 162.86 65 163.51L66.62 163.95L70.78 148.62ZM51.89 141.89L44.79 155.92C42.67 154.83 41.45 154.06 40.72 152.1L39.93 153.66L51.03 159.28L51.82 157.72C49.86 158.31 48.49 157.77 46.33 156.7L53.43 142.68L51.89 141.89ZM38.77 133.3L35 150.13L35.13 150.22C38.21 148.85 42.24 146.7 45.08 144.78C46.15 144.08 47.13 143.27 48.01 142.34C48.69 141.58 48.88 140.89 48.54 140.32C48.52 140.18 48.45 140.06 48.34 139.98C47.54 139.35 46.75 139.81 45.75 140.48C44.21 141.39 42.15 142.77 38.83 140.83L40.31 134.4L38.77 133.3ZM45.87 140.62C46.76 139.98 47.51 139.55 48.2 140.13C48.26 140.23 48.32 140.32 48.4 140.41C48.73 140.87 48.45 141.53 47.88 142.25C47.01 143.16 46.03 143.97 44.98 144.65C42.69 146.22 39.66 147.82 37.01 149.18L38.79 141C42.18 142.95 44.28 141.56 45.87 140.62ZM21.37 131.5L19.66 133.09C19.66 133.09 18.91 137 23.33 139.73C27.06 142.06 31.98 140.88 34.35 137.16C36.65 133.35 35.62 128.47 31.78 126.17C30.4 125.29 28.77 124.87 27.13 124.98L25.04 126.93C27.03 125.5 29.54 124.92 31.73 126.28C35.1 128.37 34.71 133.16 32.84 136.2C30.93 139.16 26.82 141.67 23.42 139.58C19.07 136.94 21.37 131.5 21.37 131.5ZM24.84 115.91L11.32 123.92C10.12 121.86 9.5 120.55 9.94 118.52L8.43 119.41L14.77 130.11L16.28 129.22C14.31 128.66 13.44 127.47 12.2 125.41L25.72 117.4L24.84 115.91ZM3.7 107.62L13.57 105.29C17.91 104.26 19.22 99.37 16.9 95.79C15.5 93.69 13.22 92.96 10.79 93.53L0.92 95.86L1.33 97.57C2.87 95.68 7.56 94.5 10.84 93.73C13.36 93.13 15.47 93.95 16.73 95.87C18.88 99.08 16.8 102.7 13.16 103.56L3.29 105.89L3.7 107.62ZM8.9 84.92C11.14 79.6 13.44 79.13 14.73 80.57C17.2 83.33 15.4 88.43 9.9 90.8L13.02 90.71C16.2 88.06 16.94 82.89 14.9 80.38C14.19 79.56 13.14 79.11 12.05 79.17C9.4 79.25 8.19 81.63 7.21 84.12C4.82 89.68 2.36 89.94 1.15 88.22C-0.35 86.2 -0.14 82.1 4.39 79.68L2.03 79.76C-1.03 81.79 -0.88 90 4.13 89.84C6.69 89.76 7.9 87.36 8.9 84.92ZM16.73 71.2L17.16 69.57L1.95 65.58C2.57 63.23 4.79 61.95 7.61 61.29C11.19 60.51 15.75 60.85 19.21 61.76L19.64 60.13L4.28 56.1L3.85 57.73L16.34 61C13.44 60.59 10.25 60.52 7.55 61.18C4.69 61.78 2.42 63.16 1.8 65.54L1.37 67.17L16.73 71.2ZM14.93 55.53C19.29 56.52 23.57 53.87 24.49 49.57C25.5 45.27 22.77 40.95 18.5 40.04C14.21 39.01 9.85 41.67 8.93 45.94C7.96 50.24 10.63 54.53 14.93 55.53ZM18.08 41.78C21.52 42.6 25.26 45.68 24.33 49.54C23.45 53.37 18.79 54.49 15.36 53.7C11.89 52.9 8.19 49.85 9.1 46.01C9.96 42.08 14.59 40.97 18.08 41.78ZM30.62 23.48C29.89 21.97 28.32 21.09 26.72 21.89C24.87 22.86 24.77 24.98 25.58 26.74L27.18 30.07L34.83 32.77L30.62 23.48C29.88 21.84 28.31 20.94 26.65 21.77C24.89 22.64 24.42 24.73 25.47 26.86L26.9 30L20.87 27.85L19.6 29.26L27.94 32.21L30.47 37.59L16.5 32.69L15.18 34.15L31.49 39.82L31.63 39.67L28.13 32.3L35.85 35L35.95 34.88L30.62 23.48M39.69 26.68L39.83 26.57L33 16.47L32.18 18.24L39.69 26.68ZM40.49 29.61C40.68 29.83 40.94 29.97 41.23 30C41.52 30.03 41.81 29.94 42.03 29.76C42.27 29.59 42.43 29.34 42.47 29.05C42.52 28.77 42.44 28.47 42.26 28.25C42.08 28.02 41.82 27.87 41.53 27.83C41.24 27.8 40.95 27.88 40.72 28.07C40.24 28.43 40.14 29.11 40.49 29.61ZM46.14 18.34L51.69 15.47L51.2 14.51L45.64 17.38L46.14 18.34ZM68.26 13.35L60.79 2.82L58.96 3.2L62.24 18.74L62.38 18.71L59.18 3.57L60.1 4.89L68.93 17.33L69.15 17.28C68.31 13.27 66.73 4.05 70.74 1.27L73.91 16.28L75.58 15.92L72.3 0.39C67.63 1.37 67.61 8.2 68.26 13.35ZM77.68 9.79C78.7 14.15 82.95 16.84 87.22 15.8C91.53 14.83 94.22 10.49 93.18 6.24C92.23 1.93 87.94 -0.83 83.69 0.22C79.4 1.21 76.71 5.49 77.68 9.79ZM91.43 6.63C92.19 10.08 91.05 14.79 87.18 15.64C83.34 16.52 80.3 12.81 79.52 9.39C78.72 5.91 79.85 1.25 83.71 0.4C87.61 -0.55 90.63 3.14 91.43 6.63ZM109.4 12.55C110.61 8.29 108.13 3.92 103.99 2.75L99.06 1.35L94.74 16.63L99.67 18.03C103.87 19.2 108.22 16.75 109.4 12.55ZM103.95 2.9C107.26 3.84 108.97 7.97 107.8 12.1C106.63 16.24 103.03 18.79 99.72 17.86L96.47 16.94L100.7 1.98L103.95 2.9ZM117.36 17.92L118.16 16.34C115.41 14.95 114.29 13.67 115.68 10.92L117.33 7.67L118.97 8.51C121.42 9.75 122.41 10.37 123.15 12.46L123.96 10.85L115.85 6.75L108.68 20.91L116.67 24.96L118.63 22.22C116.88 23.88 115.44 24.14 113.7 23.25L110.31 21.54L115.01 12.25C114.39 14.91 116.86 16.01 117.36 17.92ZM123.1 29.2L120.04 26.95L129.34 14.31L127.89 13.24L118.48 26.03L125.71 31.34L128.12 28.98C126.1 30.32 124.66 30.35 123.1 29.2ZM136.63 42.6L136.76 42.48C135.7 41.32 136.43 39.58 137.3 37.6C138.34 35.24 139.7 32.9 137.58 30.57C137.11 30.07 136.47 29.77 135.78 29.75C138 29.18 140.25 29.1 142.91 29.04C142.96 29.09 145.46 29.19 146.75 30.14L144.23 27.38C144.39 28.82 140.87 28.9 140.87 28.9C137.17 29.06 134.19 29.5 130.75 31.91L140.34 23.13L139.19 21.87L127.48 32.59L128.63 33.86C130.8 31.87 132.74 30.76 134.72 30.08C135.19 29.93 136.5 29.67 137.44 30.7C140.89 34.46 131.1 36.56 136.63 42.6ZM140.82 38.3C137.75 41.55 137.84 46.58 141.06 49.56C144.24 52.63 149.35 52.49 152.32 49.28C155.39 46.11 155.33 41.01 152.13 38.04C148.93 35 143.88 35.12 140.82 38.3ZM151.03 48.04C148.57 50.57 144.02 52.21 141.17 49.45C138.32 46.73 139.74 42.15 142.17 39.61C144.63 37.03 149.15 35.41 151.98 38.16C154.92 40.89 153.51 45.45 151.03 48.04ZM152.86 59.13C152.25 64.86 150.19 65.99 148.54 64.98C145.38 63.06 145.62 57.66 150.2 53.78L147.23 54.79C144.96 58.24 145.75 63.4 148.43 65.21C149.35 65.8 150.49 65.92 151.51 65.54C154.02 64.69 154.49 62.07 154.71 59.41C155.38 53.39 157.67 52.43 159.31 53.72C161.34 55.22 162.33 59.21 158.69 62.83L160.93 62.08C163.27 59.24 160.75 51.43 156 53.04C153.57 53.86 153.11 56.5 152.86 59.13ZM149.7 87.35L165.4 80.22L165.4 80.07C162.45 78.43 158.31 76.51 155.06 75.4C153.87 74.96 152.62 74.67 151.35 74.53C150.34 74.44 149.67 74.71 149.41 75.32C149.32 75.42 149.27 75.55 149.27 75.68C149.25 76.7 150.09 77.06 151.22 77.46C152.88 78.13 155.22 78.95 155.68 82.77L149.65 85.46L149.7 87.35ZM151.26 77.27C150.22 76.94 149.42 76.6 149.47 75.7C149.52 75.6 149.55 75.49 149.57 75.38C149.74 74.84 150.43 74.66 151.36 74.69C152.61 74.83 153.84 75.13 155.02 75.56C157.66 76.44 160.75 77.89 163.44 79.19L155.83 82.69C155.35 78.81 152.97 77.97 151.26 77.27ZM148.34 97.17C147.97 93.3 152.03 90.67 155.58 90.38C159.1 90.1 163.58 91.91 163.96 95.86C164.45 100.78 159.03 102.28 158.74 102.34L161.04 102.75C161.04 102.75 164.62 100.97 164.12 95.86C163.94 93.74 162.92 91.78 161.29 90.41C159.66 89.04 157.56 88.38 155.44 88.57C151.03 88.99 147.73 92.86 148.22 97.2C148.33 98.85 148.98 100.42 150.07 101.65L154.7 102.46L156.18 94L154.47 93.7C155.64 95.52 155.29 98.04 154.82 100.75L149.3 99.78C148.81 99.06 148.39 98.21 148.34 97.17ZM150.49 111.02L152.14 111.67C153.27 108.8 154.43 107.57 157.3 108.69L160.69 110.03L160.01 111.74C159.01 114.3 158.48 115.35 156.47 116.27L158.14 116.93L161.47 108.47L146.69 102.67L143.42 111L146.32 112.7C144.5 111.11 144.12 109.71 144.83 107.88L146.22 104.35L155.91 108.15C153.21 107.79 152.34 110.35 150.49 111.02ZM142.59 112.95L141.7 114.38L155.06 122.67C153.78 124.73 151.28 125.3 148.39 125.1C144.74 124.79 140.48 123.13 137.44 121.25L136.55 122.68L150.05 131.05L150.93 129.62L139.96 122.81C142.61 124.05 145.64 125.06 148.42 125.22C151.32 125.49 153.9 124.84 155.19 122.75L156.08 121.32L142.59 112.95ZM134.65 141.52L136.33 143.15C136.33 143.15 140.27 143.7 142.77 139.15C144.92 135.31 143.49 130.45 139.65 128.27C135.74 126.17 130.91 127.44 128.81 131.39C127.99 132.82 127.66 134.47 127.85 136.1L129.9 138.08C128.38 136.17 127.67 133.7 128.92 131.44C130.84 127.97 135.64 128.11 138.77 129.83C141.82 131.59 144.54 135.57 142.63 139.07C140.2 143.55 134.65 141.52 134.65 141.52ZM123.81 154.74L125.91 153.32C125.53 153.52 124.7 153.57 124.57 152.54L123.61 144.5L126.54 145.86L132.67 148.74L134.35 147.61L124.64 143.05L120.89 137.52L119.42 138.51L123.43 144.44L124.41 152.79C124.51 153.21 124.26 154.38 123.81 154.74Z" stroke="#FFFFFF" stroke-opacity="0" stroke-width="1.000000"/>
	</g>
	<g style="mix-blend-mode:normal">
		<line id="Line 2" x1="95.523438" y1="83.160645" x2="68.000000" y2="83.160645" stroke="#FFFFFF" stroke-opacity="1.000000" stroke-width="2.000000"/>
	</g>
	<g style="mix-blend-mode:normal">
		<line id="Line 3" x1="95.523438" y1="83.160645" x2="90.936279" y2="78.000000" stroke="#FFFFFF" stroke-opacity="1.000000" stroke-width="2.000000"/>
	</g>
	<g style="mix-blend-mode:normal">
		<line id="Line 4" x1="95.523438" y1="83.161133" x2="90.936279" y2="88.321777" stroke="#FFFFFF" stroke-opacity="1.000000" stroke-width="2.000000"/>
	</g>
</svg>
