<svg width="245.167480" height="246.183594" viewBox="0 0 245.167 246.184" fill="none" xmlns="http://www.w3.org/2000/svg" xmlns:xlink="http://www.w3.org/1999/xlink">
	<desc>
			Created with Pixso.
	</desc>
	<defs/>
	<g style="mix-blend-mode:normal">
		<path id="Become a model at modelkos now -" d="M12.92 96.25C12.99 93.41 11.82 90.81 8.81 90.1C4.96 89.21 2.52 92.88 1.35 97.9L0 103.69L23.64 109.21L25.49 101.27C26.66 96.1 26.46 91.82 21.07 90.56C16.31 89.45 14.21 92.1 12.92 96.25ZM20.45 93.17C26.49 94.58 25.86 98.46 25.16 101.47L23.99 106.5L5.6 102.21C6.84 102.28 8.07 102.11 9.25 101.72C11.02 101.11 12.26 99.84 12.63 98.27C13.31 95.36 14.46 91.77 20.45 93.17ZM8.2 92.72C11.85 93.57 12.89 95.96 12.36 98.21C12.01 99.72 10.87 100.83 9.14 101.41C7.51 102.06 5.37 102.16 3.06 101.62L0.85 101.1L1.58 97.96C2.33 94.74 4.38 91.83 8.2 92.72ZM14.8 80.85C18.91 81.58 20.39 77.72 23.27 76.81L20.78 75.71C18.88 80.03 17.03 81.84 12.72 79.94L7.62 77.69L8.76 75.11C10.45 71.27 11.33 69.7 14.46 68.41L11.94 67.3L6.33 80.01L28.55 89.82L34.07 77.29L29.73 74.51C32.41 77.04 32.92 79.22 31.71 81.96L29.37 87.28L14.8 80.85ZM20.16 54.85C22.69 47.48 31.57 49.13 31.57 49.13L28.63 47.1C28.63 47.1 22.55 47.26 19.93 54.77C17.66 61.1 21.04 68.06 27.38 70.38C33.82 72.56 40.78 69.42 42.95 62.94C43.81 60.58 43.9 58.01 43.2 55.59L39.61 53.12C42.39 55.62 44.08 59.16 42.77 62.9C40.76 68.61 33.47 69.6 28.32 67.81C23.27 65.92 18.16 60.61 20.16 54.85ZM39.07 32.34C35.3 37.93 36.75 45.52 42.32 49.32C48 53.14 55.56 51.73 59.25 46.12C63.06 40.54 61.56 32.87 55.97 29.21C50.42 25.37 42.73 26.75 39.07 32.34ZM39.28 32.53C42.66 27.4 49.88 28.38 54.42 31.46C58.86 34.53 62.49 40.98 59.04 45.98C55.66 50.95 48.4 49.98 43.95 46.95C39.44 43.9 35.85 37.5 39.28 32.53ZM76.42 8.18C69.89 11.42 72.46 21.55 75.39 28.92L60.31 16.17L57.75 17.44L68.55 39.19L68.73 39.1L58.21 17.9L60.08 19.51L77.91 34.55L78.22 34.39C75.44 28.79 69.57 15.72 74.45 10.08L84.87 31.09L87.22 29.93L76.42 8.18ZM88.05 13.03C90.05 16.69 93.99 15.44 96.5 17.12L95.8 14.5C91.25 15.7 88.68 15.39 87.47 10.83L86.05 5.44L88.77 4.72C92.83 3.65 94.6 3.36 97.56 5L96.86 2.34L83.43 5.89L89.63 29.37L102.87 25.87L102.33 20.74C102.02 24.42 100.64 26.17 97.74 26.93L92.12 28.42L88.05 13.03ZM132.3 24.53L135.19 24.64L125.78 0L125.54 0C122.77 4.34 119.45 10.48 117.45 15.33C116.67 17.12 116.11 19 115.78 20.92C115.55 22.46 115.89 23.5 116.8 23.95C116.94 24.1 117.14 24.19 117.34 24.21C118.89 24.33 119.52 23.08 120.23 21.38C121.42 18.91 122.89 15.42 128.75 15.08L132.3 24.53ZM128.66 14.84C122.69 15.21 121.18 18.77 119.96 21.31C119.35 22.87 118.76 24.05 117.39 23.9C117.24 23.82 117.08 23.75 116.91 23.71C116.1 23.41 115.9 22.33 116.02 20.93C116.35 19.03 116.92 17.18 117.69 15.41C119.28 11.47 121.78 6.88 124.02 2.9L128.66 14.84ZM175.21 11.67C168.4 9.08 162.71 17.84 159.28 25L158.4 5.27L155.73 4.26L147.09 26.95L147.29 27.03L155.71 4.91L155.8 7.37L156.87 30.67L157.19 30.79C159.42 24.94 165.02 11.77 172.47 11.51L164.13 33.43L166.57 34.37L175.21 11.67ZM190.13 21.03C183.8 18.71 176.78 21.93 174.42 28.25C172.07 34.68 175.25 41.68 181.59 43.92C187.92 46.29 195 42.99 197.22 36.69C199.61 30.38 196.43 23.25 190.13 21.03ZM190 21.27C195.78 23.34 196.56 30.58 194.66 35.72C192.74 40.76 187.35 45.84 181.67 43.68C176.03 41.6 175.24 34.3 177.11 29.27C179 24.16 184.35 19.14 190 21.27ZM195.59 57.28C199.93 62.34 207.54 62.92 212.61 58.59C217.76 54.2 218.33 46.53 214.07 41.54L208.98 35.57L190.5 51.32L195.59 57.28ZM210.54 37.76L213.89 41.69C217.3 45.7 215.96 52.4 210.96 56.66C205.96 60.91 199.21 61.11 195.8 57.11L192.45 53.18L210.54 37.76ZM220.02 63.07C216.96 65.91 219.14 69.42 218.12 72.27L220.5 70.95C218.21 66.83 217.88 64.26 222 61.97L226.87 59.26L228.24 61.73C230.28 65.39 231 67.04 230.14 70.31L232.55 68.98L225.8 56.83L204.57 68.62L211.22 80.59L216.05 78.81C212.41 79.41 210.37 78.5 208.92 75.88L206.1 70.8L220.02 63.07ZM222.21 95.55C218.51 95.5 216.67 94.29 215.69 91.5L213.77 86.01L236.43 78.08L235.53 75.49L212.6 83.5L217.14 96.46L222.21 95.55ZM220.77 125.73L220.9 128.62L244.72 117.3L244.7 117.06C240.16 114.64 233.77 111.82 228.78 110.21C226.94 109.57 225.02 109.15 223.08 108.97C221.53 108.87 220.51 109.29 220.14 110.23C220 110.39 219.93 110.59 219.92 110.79C219.92 112.34 221.22 112.87 222.97 113.45C225.52 114.44 229.12 115.63 229.92 121.45L220.77 125.73ZM230.15 121.34C229.31 115.42 225.65 114.2 223.02 113.17C221.42 112.69 220.19 112.19 220.24 110.81C220.31 110.66 220.36 110.49 220.39 110.33C220.63 109.49 221.68 109.2 223.09 109.21C225.01 109.4 226.9 109.82 228.72 110.45C232.77 111.72 237.54 113.86 241.69 115.78L230.15 121.34ZM220.07 133.01L219.76 135.64L243.64 138.4C243.19 142.02 242.73 144.19 240.31 146.26L242.98 146.57L245.16 127.68L242.5 127.37C244.39 129.87 244.34 132.12 243.95 135.77L220.07 133.01ZM228.77 184.63C231.86 178.03 223.55 171.7 216.65 167.76L236.4 168.34L237.61 165.75L215.61 155.46L215.52 155.65L236.96 165.67L234.49 165.59L211.18 164.93L211.03 165.24C216.71 167.89 229.43 174.46 229.13 181.91L207.89 171.97L206.78 174.34L228.77 184.63ZM218.27 198.85C221.07 192.71 218.39 185.47 212.27 182.63C206.04 179.8 198.82 182.44 196.1 188.58C193.26 194.71 196 202.03 202.11 204.72C208.22 207.59 215.57 204.97 218.27 198.85ZM218.03 198.7C215.54 204.31 208.25 204.53 203.27 202.24C198.39 199.94 193.74 194.18 196.33 188.68C198.84 183.22 206.17 182.99 211.05 185.24C216 187.51 220.6 193.23 218.03 198.7ZM181.7 201.51C176.33 205.45 175.17 213 179.1 218.38C183.08 223.86 190.68 225.01 195.99 221.14L202.33 216.52L188.04 196.9L181.7 201.51ZM200.02 217.91L195.85 220.95C191.6 224.04 185.02 222.2 181.15 216.89C177.29 211.57 177.61 204.83 181.86 201.73L186.04 198.7L200.02 217.91ZM174.07 225.43C171.47 222.16 167.81 224.07 165.05 222.84L166.18 225.31C170.46 223.34 173.05 223.21 175.02 227.49L177.35 232.55L174.79 233.73C170.98 235.49 169.28 236.08 166.09 234.97L167.24 237.47L179.86 231.67L169.71 209.61L157.28 215.33L158.68 220.28C158.36 216.61 159.42 214.64 162.14 213.39L167.42 210.96L174.07 225.43ZM141.52 225.16C141.85 221.47 143.2 219.72 146.06 218.96L151.67 217.47L157.86 240.66L160.52 239.95L154.26 216.49L141 220.03L141.52 225.16ZM130.45 234.6C122.66 235.05 129.62 221.42 117.12 222.15L117.13 222.42C119.54 222.28 120.89 224.82 122.4 227.77C124.19 231.28 125.66 235.15 130.47 234.87C131.51 234.82 132.49 234.34 133.18 233.55C131.71 236.73 129.63 239.47 127.13 242.68C127.03 242.69 124.51 245.56 122.13 246.18L127.83 245.85C125.97 244.65 129.27 240.39 129.27 240.39C132.66 235.85 135.01 231.89 135.47 225.49L136.62 245.34L139.23 245.18L137.82 220.94L135.21 221.09C135.47 225.59 134.91 228.97 133.81 231.96C133.54 232.67 132.58 234.48 130.45 234.6ZM107.37 244.84C114.06 244.03 118.85 237.97 118.09 231.27C117.26 224.48 111.25 219.68 104.59 220.56C97.87 221.33 93.06 227.48 93.94 234.11C94.67 240.81 100.74 245.72 107.37 244.84ZM107.37 244.56C101.28 245.35 97.3 239.25 96.66 233.8C96.08 228.44 98.58 221.47 104.62 220.81C110.6 220.11 114.61 226.25 115.23 231.59C115.87 237 113.38 243.9 107.37 244.56ZM85.81 234.69C87.24 231.04 84.59 227.9 81.77 225.02C75.64 218.67 76.36 215.14 79.16 214.21C84.53 212.4 90.61 217.99 90.64 227.16L92.38 222.71C90.58 216.65 83.75 212.5 79.01 213.85C77.42 214.35 76.15 215.56 75.58 217.13C74.1 220.91 76.72 224.04 79.62 226.91C86.01 233.62 84.88 237.24 81.75 237.9C78 238.8 72.36 236.03 71.69 228.2L70.38 231.56C71.39 237.1 83.01 241.83 85.81 234.69ZM52.12 224.71L67.22 205.69L65.2 204.09L50.26 222.92C47.34 220.61 46.92 216.72 47.74 212.37C48.85 206.87 52.13 200.7 55.53 196.41L53.51 194.81L38.41 213.83L40.43 215.43L52.71 199.97C50.35 203.77 48.29 208.19 47.55 212.39C46.63 216.75 47.17 220.78 50.1 223.11L52.12 224.71ZM26.99 200.86C32.38 204.92 40.03 203.87 44.12 198.51C48.23 193.04 47.22 185.42 41.81 181.43C36.44 177.33 28.7 178.43 24.75 183.82C20.63 189.17 21.6 196.91 26.99 200.86ZM27.19 200.67C22.25 197.02 23.61 189.85 26.92 185.49C30.22 181.22 36.85 177.93 41.66 181.64C46.45 185.27 45.09 192.48 41.84 196.75C38.55 201.1 31.97 204.35 27.19 200.67ZM28.64 156.16L9.39 156.29C6.65 156.27 4.38 157.87 4.48 160.71C4.56 163.71 7.17 165.7 10.8 165.6L16.08 165.62L9.24 172.63L10.38 175.29L19.81 165.6L28.91 165.51L13.17 181.8L14.35 184.55L32.65 165.52L32.53 165.24L20.06 165.38L28.74 156.38L28.64 156.16ZM16.35 165.28L10.7 165.38C7.75 165.38 4.86 163.88 4.69 160.7C4.61 157.97 6.9 156.5 9.46 156.45L25 156.38L16.35 165.28ZM11.36 137.86L13.01 137.7L12.13 128.18L10.49 128.34L11.36 137.86Z" fill="#808080" fill-opacity="1.000000" fill-rule="evenodd"/>
		<path id="Become a model at modelkos now -" d="M8.81 90.1C4.96 89.21 2.52 92.88 1.35 97.9L0 103.69L23.64 109.21L25.49 101.27C26.66 96.1 26.46 91.82 21.07 90.56C16.31 89.45 14.21 92.1 12.92 96.25C12.99 93.41 11.82 90.81 8.81 90.1ZM25.16 101.47L23.99 106.5L5.6 102.21C6.84 102.28 8.07 102.11 9.25 101.72C11.02 101.11 12.26 99.84 12.63 98.27C13.31 95.36 14.46 91.77 20.45 93.17C26.49 94.58 25.86 98.46 25.16 101.47ZM12.36 98.21C12.01 99.72 10.87 100.83 9.14 101.41C7.51 102.06 5.37 102.16 3.06 101.62L0.85 101.1L1.58 97.96C2.33 94.74 4.38 91.83 8.2 92.72C11.85 93.57 12.89 95.96 12.36 98.21ZM23.27 76.81L20.78 75.71C18.88 80.03 17.03 81.84 12.72 79.94L7.62 77.69L8.76 75.11C10.45 71.27 11.33 69.7 14.46 68.41L11.94 67.3L6.33 80.01L28.55 89.82L34.07 77.29L29.73 74.51C32.41 77.04 32.92 79.22 31.71 81.96L29.37 87.28L14.8 80.85C18.91 81.58 20.39 77.72 23.27 76.81ZM31.57 49.13L28.63 47.1C28.63 47.1 22.55 47.26 19.93 54.77C17.66 61.1 21.04 68.06 27.38 70.38C33.82 72.56 40.78 69.42 42.95 62.94C43.81 60.58 43.9 58.01 43.2 55.59L39.61 53.12C42.39 55.62 44.08 59.16 42.77 62.9C40.76 68.61 33.47 69.6 28.32 67.81C23.27 65.92 18.16 60.61 20.16 54.85C22.69 47.48 31.57 49.13 31.57 49.13ZM42.32 49.32C48 53.14 55.56 51.73 59.25 46.12C63.06 40.54 61.56 32.87 55.97 29.21C50.42 25.37 42.73 26.75 39.07 32.34C35.3 37.93 36.75 45.52 42.32 49.32ZM54.42 31.46C58.86 34.53 62.49 40.98 59.04 45.98C55.66 50.95 48.4 49.98 43.95 46.95C39.44 43.9 35.85 37.5 39.28 32.53C42.66 27.4 49.88 28.38 54.42 31.46ZM75.39 28.92L60.31 16.17L57.75 17.44L68.55 39.19L68.73 39.1L58.21 17.9L60.08 19.51L77.91 34.55L78.22 34.39C75.44 28.79 69.57 15.72 74.45 10.08L84.87 31.09L87.22 29.93L76.42 8.18C69.89 11.42 72.46 21.55 75.39 28.92ZM96.5 17.12L95.8 14.5C91.25 15.7 88.68 15.39 87.47 10.83L86.05 5.44L88.77 4.72C92.83 3.65 94.6 3.36 97.56 5L96.86 2.34L83.43 5.89L89.63 29.37L102.87 25.87L102.33 20.74C102.02 24.42 100.64 26.17 97.74 26.93L92.12 28.42L88.05 13.03C90.05 16.69 93.99 15.44 96.5 17.12ZM135.19 24.64L125.78 0L125.54 0C122.77 4.34 119.45 10.48 117.45 15.33C116.67 17.12 116.11 19 115.78 20.92C115.55 22.46 115.89 23.5 116.8 23.95C116.94 24.1 117.14 24.19 117.34 24.21C118.89 24.33 119.52 23.08 120.23 21.38C121.42 18.91 122.89 15.42 128.75 15.08L132.3 24.53L135.19 24.64ZM119.96 21.31C119.35 22.87 118.76 24.05 117.39 23.9C117.24 23.82 117.08 23.75 116.91 23.71C116.1 23.41 115.9 22.33 116.02 20.93C116.35 19.03 116.92 17.18 117.69 15.41C119.28 11.47 121.78 6.88 124.02 2.9L128.66 14.84C122.69 15.21 121.18 18.77 119.96 21.31ZM159.28 25L158.4 5.27L155.73 4.26L147.09 26.95L147.29 27.03L155.71 4.91L155.8 7.37L156.87 30.67L157.19 30.79C159.42 24.94 165.02 11.77 172.47 11.51L164.13 33.43L166.57 34.37L175.21 11.67C168.4 9.08 162.71 17.84 159.28 25ZM174.42 28.25C172.07 34.68 175.25 41.68 181.59 43.92C187.92 46.29 195 42.99 197.22 36.69C199.61 30.38 196.43 23.25 190.13 21.03C183.8 18.71 176.78 21.93 174.42 28.25ZM194.66 35.72C192.74 40.76 187.35 45.84 181.67 43.68C176.03 41.6 175.24 34.3 177.11 29.27C179 24.16 184.35 19.14 190 21.27C195.78 23.34 196.56 30.58 194.66 35.72ZM212.61 58.59C217.76 54.2 218.33 46.53 214.07 41.54L208.98 35.57L190.5 51.32L195.59 57.28C199.93 62.34 207.54 62.92 212.61 58.59ZM213.89 41.69C217.3 45.7 215.96 52.4 210.96 56.66C205.96 60.91 199.21 61.11 195.8 57.11L192.45 53.18L210.54 37.76L213.89 41.69ZM218.12 72.27L220.5 70.95C218.21 66.83 217.88 64.26 222 61.97L226.87 59.26L228.24 61.73C230.28 65.39 231 67.04 230.14 70.31L232.55 68.98L225.8 56.83L204.57 68.62L211.22 80.59L216.05 78.81C212.41 79.41 210.37 78.5 208.92 75.88L206.1 70.8L220.02 63.07C216.96 65.91 219.14 69.42 218.12 72.27ZM215.69 91.5L213.77 86.01L236.43 78.08L235.53 75.49L212.6 83.5L217.14 96.46L222.21 95.55C218.51 95.5 216.67 94.29 215.69 91.5ZM220.9 128.62L244.72 117.3L244.7 117.06C240.16 114.64 233.77 111.82 228.78 110.21C226.94 109.57 225.02 109.15 223.08 108.97C221.53 108.87 220.51 109.29 220.14 110.23C220 110.39 219.93 110.59 219.92 110.79C219.92 112.34 221.22 112.87 222.97 113.45C225.52 114.44 229.12 115.63 229.92 121.45L220.77 125.73L220.9 128.62ZM223.02 113.17C221.42 112.69 220.19 112.19 220.24 110.81C220.31 110.66 220.36 110.49 220.39 110.33C220.63 109.49 221.68 109.2 223.09 109.21C225.01 109.4 226.9 109.82 228.72 110.45C232.77 111.72 237.54 113.86 241.69 115.78L230.15 121.34C229.31 115.42 225.65 114.2 223.02 113.17ZM219.76 135.64L243.64 138.4C243.19 142.02 242.73 144.19 240.31 146.26L242.98 146.57L245.16 127.68L242.5 127.37C244.39 129.87 244.34 132.12 243.95 135.77L220.07 133.01L219.76 135.64ZM216.65 167.76L236.4 168.34L237.61 165.75L215.61 155.46L215.52 155.65L236.96 165.67L234.49 165.59L211.18 164.93L211.03 165.24C216.71 167.89 229.43 174.46 229.13 181.91L207.89 171.97L206.78 174.34L228.77 184.63C231.86 178.03 223.55 171.7 216.65 167.76ZM212.27 182.63C206.04 179.8 198.82 182.44 196.1 188.58C193.26 194.71 196 202.03 202.11 204.72C208.22 207.59 215.57 204.97 218.27 198.85C221.07 192.71 218.39 185.47 212.27 182.63ZM203.27 202.24C198.39 199.94 193.74 194.18 196.33 188.68C198.84 183.22 206.17 182.99 211.05 185.24C216 187.51 220.6 193.23 218.03 198.7C215.54 204.31 208.25 204.53 203.27 202.24ZM179.1 218.38C183.08 223.86 190.68 225.01 195.99 221.14L202.33 216.52L188.04 196.9L181.7 201.51C176.33 205.45 175.17 213 179.1 218.38ZM195.85 220.95C191.6 224.04 185.02 222.2 181.15 216.89C177.29 211.57 177.61 204.83 181.86 201.73L186.04 198.7L200.02 217.91L195.85 220.95ZM165.05 222.84L166.18 225.31C170.46 223.34 173.05 223.21 175.02 227.49L177.35 232.55L174.79 233.73C170.98 235.49 169.28 236.08 166.09 234.97L167.24 237.47L179.86 231.67L169.71 209.61L157.28 215.33L158.68 220.28C158.36 216.61 159.42 214.64 162.14 213.39L167.42 210.96L174.07 225.43C171.47 222.16 167.81 224.07 165.05 222.84ZM146.06 218.96L151.67 217.47L157.86 240.66L160.52 239.95L154.26 216.49L141 220.03L141.52 225.16C141.85 221.47 143.2 219.72 146.06 218.96ZM117.12 222.15L117.13 222.42C119.54 222.28 120.89 224.82 122.4 227.77C124.19 231.28 125.66 235.15 130.47 234.87C131.51 234.82 132.49 234.34 133.18 233.55C131.71 236.73 129.63 239.47 127.13 242.68C127.03 242.69 124.51 245.56 122.13 246.18L127.83 245.85C125.97 244.65 129.27 240.39 129.27 240.39C132.66 235.85 135.01 231.89 135.47 225.49L136.62 245.34L139.23 245.18L137.82 220.94L135.21 221.09C135.47 225.59 134.91 228.97 133.81 231.96C133.54 232.67 132.58 234.48 130.45 234.6C122.66 235.05 129.62 221.42 117.12 222.15ZM118.09 231.27C117.26 224.48 111.25 219.68 104.59 220.56C97.87 221.33 93.06 227.48 93.94 234.11C94.67 240.81 100.74 245.72 107.37 244.84C114.06 244.03 118.85 237.97 118.09 231.27ZM96.66 233.8C96.08 228.44 98.58 221.47 104.62 220.81C110.6 220.11 114.61 226.25 115.23 231.59C115.87 237 113.38 243.9 107.37 244.56C101.28 245.35 97.3 239.25 96.66 233.8ZM81.77 225.02C75.64 218.67 76.36 215.14 79.16 214.21C84.53 212.4 90.61 217.99 90.64 227.16L92.38 222.71C90.58 216.65 83.75 212.5 79.01 213.85C77.42 214.35 76.15 215.56 75.58 217.13C74.1 220.91 76.72 224.04 79.62 226.91C86.01 233.62 84.88 237.24 81.75 237.9C78 238.8 72.36 236.03 71.69 228.2L70.38 231.56C71.39 237.1 83.01 241.83 85.81 234.69C87.24 231.04 84.59 227.9 81.77 225.02ZM67.22 205.69L65.2 204.09L50.26 222.92C47.34 220.61 46.92 216.72 47.74 212.37C48.85 206.87 52.13 200.7 55.53 196.41L53.51 194.81L38.41 213.83L40.43 215.43L52.71 199.97C50.35 203.77 48.29 208.19 47.55 212.39C46.63 216.75 47.17 220.78 50.1 223.11L52.12 224.71L67.22 205.69ZM44.12 198.51C48.23 193.04 47.22 185.42 41.81 181.43C36.44 177.33 28.7 178.43 24.75 183.82C20.63 189.17 21.6 196.91 26.99 200.86C32.38 204.92 40.03 203.87 44.12 198.51ZM26.92 185.49C30.22 181.22 36.85 177.93 41.66 181.64C46.45 185.27 45.09 192.48 41.84 196.75C38.55 201.1 31.97 204.35 27.19 200.67C22.25 197.02 23.61 189.85 26.92 185.49ZM9.39 156.29C6.65 156.27 4.38 157.87 4.48 160.71C4.56 163.71 7.17 165.7 10.8 165.6L16.08 165.62L9.24 172.63L10.38 175.29L19.81 165.6L28.91 165.51L13.17 181.8L14.35 184.55L32.65 165.52L32.53 165.24L20.06 165.38L28.74 156.38L28.64 156.16L9.39 156.29ZM10.7 165.38C7.75 165.38 4.86 163.88 4.69 160.7C4.61 157.97 6.9 156.5 9.46 156.45L25 156.38L16.35 165.28L10.7 165.38ZM13.01 137.7L12.13 128.18L10.49 128.34L11.36 137.86L13.01 137.7Z" stroke="#707070" stroke-opacity="0" stroke-width="1.000000"/>
	</g>
</svg>
