<svg width="505.939819" height="506.067383" viewBox="0 0 505.94 506.067" fill="none" xmlns="http://www.w3.org/2000/svg" xmlns:xlink="http://www.w3.org/1999/xlink">
	<desc>
			Created with Pixso.
	</desc>
	<defs/>
	<g opacity="0.500000" style="mix-blend-mode:normal">
		<path id="Become a model at modelkos now -" d="M126.41 60.07C130.49 55.88 132.39 50.35 128.85 45.07C124.32 38.32 115.51 40.41 106.71 46.32L96.57 53.13L124.37 94.54L138.27 85.2C147.26 79.08 152.96 72.36 146.62 62.92C141.03 54.59 134.15 55.63 126.41 60.07ZM142.04 65.99C149.13 76.55 142.76 81.5 137.49 85.05L128.69 90.96L107.07 58.76C108.83 60.59 110.92 62.08 113.23 63.13C116.75 64.68 120.39 64.54 123.15 62.68C128.25 59.25 134.99 55.49 142.04 65.99ZM124.27 48.14C128.56 54.53 126.76 59.58 122.83 62.21C120.19 63.99 116.92 64.06 113.51 62.52C110.15 61.2 106.79 58.35 104.07 54.3L101.47 50.43L106.98 46.73C112.62 42.95 119.78 41.46 124.27 48.14ZM150.8 39.56C155.96 46.41 163.59 42.68 169.19 45.35L166.99 40.22C158.1 44.04 152.77 44.16 148.96 35.27L144.45 24.75L149.77 22.47C157.7 19.07 161.21 17.95 167.71 20.39L165.49 15.2L139.26 26.44L158.9 72.28L184.74 61.21L182.12 50.95C182.6 58.51 180.3 62.49 174.65 64.91L163.68 69.62L150.8 39.56ZM195.29 8.01C209.4 0.48 220.44 15.41 220.44 15.41L218.85 8.23C218.85 8.23 209.5 -0.04 195.05 7.56C182.77 13.88 178.1 29.09 184.37 41.46C190.99 53.74 205.85 58.78 218.19 52.08C222.79 49.74 226.52 46 228.85 41.4L226.92 32.64C227.6 40.31 225.17 48 217.97 51.76C206.95 57.53 194.61 48.82 189.38 38.9C184.44 29 184.21 13.86 195.29 8.01ZM255.21 0.68C241.72 3.8 233.27 17.24 236.31 30.75C239.5 44.44 252.83 52.91 266.24 49.65C279.78 46.6 288.26 32.98 285 19.65C282.03 6.11 268.55 -2.58 255.21 0.68ZM255.26 1.25C267.53 -1.7 277.01 9.88 279.51 20.86C281.88 31.69 278.3 46.47 266.12 49.15C254.07 51.89 244.52 40.24 242.09 29.47C239.58 18.57 243.15 3.92 255.26 1.25ZM345.18 16.71C330.82 12.43 320.49 31.24 314.56 46.43L309.77 6.15L304.15 4.47L289.9 52.27L290.3 52.38L304.2 5.81L304.76 10.84L310.47 58.41L311.15 58.61C314.83 46.29 324.31 18.45 339.55 16.8L325.77 62.97L330.92 64.51L345.18 16.71ZM355.86 40.28C353.72 48.6 361.39 52.23 362.81 58.28L365.44 53.35C356.91 48.78 353.48 44.7 358.06 36.17L363.46 26.08L368.57 28.82C376.16 32.89 379.24 34.94 381.39 41.55L384.05 36.57L358.9 23.08L335.34 67.04L360.12 80.32L366.49 71.87C360.88 76.96 356.34 77.66 350.93 74.75L340.4 69.11L355.86 40.28ZM406.21 119.56L410.4 123.75L430.77 73.56L430.41 73.22C420.17 75.86 406.58 80.44 396.79 84.93C393.11 86.53 389.64 88.55 386.45 90.97C383.95 92.96 383 95.01 383.74 96.96C383.75 97.38 383.91 97.79 384.19 98.11C386.34 100.46 389.03 99.46 392.48 97.91C397.73 95.87 404.83 92.68 414.11 100.38L406.21 119.56ZM414.31 99.88C404.83 92.08 397.58 95.32 392.18 97.42C389.09 98.91 386.54 99.86 384.69 97.71C384.58 97.38 384.43 97.06 384.24 96.76C383.44 95.16 384.65 93.27 386.79 91.32C389.96 88.95 393.4 86.95 397.04 85.38C404.93 81.69 415.13 78.3 424.07 75.46L414.31 99.88ZM488.68 160.34C482.08 146.9 461.25 152.09 446.08 158.06L472.39 127.18L469.81 121.92L425.04 143.91L425.23 144.29L468.85 122.86L465.54 126.69L434.51 163.18L434.82 163.82C446.36 158.15 473.24 146.21 484.79 156.27L441.55 177.51L443.91 182.33L488.68 160.34ZM497.99 195.29C491.73 182.94 476.66 177.95 464.27 184.14C451.74 190.5 446.71 205.48 453.08 217.72C459.28 230.14 474.54 235.11 486.7 228.75C499.13 222.62 504.34 207.46 497.99 195.29ZM497.44 195.48C503.25 206.68 494.27 218.66 484.21 223.71C474.26 228.6 459.05 228.67 453.54 217.48C447.99 206.44 457.02 194.38 466.89 189.44C476.88 184.4 491.95 184.36 497.44 195.48ZM455.39 257.4C454.84 271.08 465.45 282.63 479.13 283.22C493.03 283.84 504.62 273.11 505.22 259.63L505.94 243.54L456.11 241.31L455.39 257.4ZM505.2 249.02L504.73 259.61C504.24 270.41 492.84 278.6 479.36 277.99C465.88 277.39 455.47 268.23 455.95 257.43L456.43 246.84L505.2 249.02ZM483.99 300.32C475.41 300.3 473.77 308.63 468.26 311.48L473.68 312.83C476.01 303.43 479.12 299.11 488.52 301.44L499.62 304.2L498.23 309.82C496.15 318.19 494.92 321.67 489.05 325.38L494.54 326.74L501.42 299.04L453.01 287.02L446.24 314.31L455.99 318.4C449.68 314.21 447.89 309.98 449.37 304.02L452.25 292.43L483.99 300.32ZM441.78 352.19C436.3 346.93 435.23 342.52 437.67 336.96L442.47 326.03L487.62 345.86L489.89 340.69L444.23 320.63L432.89 346.43L441.78 352.19ZM397.35 395.5L393.49 400.01L445.12 416.38L445.44 416C442 406 436.36 392.81 431.12 383.4C429.25 379.86 426.95 376.56 424.29 373.56C422.11 371.23 419.99 370.44 418.11 371.34C417.68 371.38 417.29 371.57 416.99 371.88C414.82 374.2 416.03 376.81 417.84 380.13C420.29 385.2 424.03 392.02 417.08 401.88L397.35 395.5ZM417.59 402.04C424.63 391.98 420.82 385.01 418.31 379.79C416.58 376.82 415.44 374.35 417.43 372.34C417.76 372.21 418.07 372.03 418.35 371.82C419.88 370.9 421.87 371.95 423.97 373.94C426.59 376.91 428.84 380.18 430.69 383.68C434.99 391.26 439.17 401.16 442.71 409.85L417.59 402.04ZM386.09 405.45L381.95 408.97L413.95 446.58C408.2 451.38 404.48 453.99 397.94 453.71L401.51 457.91L431.26 432.59L427.69 428.4C427.02 434.81 423.8 438.11 418.09 443.06L386.09 405.45ZM326.86 495.19C340.75 489.6 337.11 468.45 332.29 452.87L361.14 481.39L366.57 479.2L347.95 432.94L347.55 433.09L365.71 478.18L362.13 474.6L328.03 440.95L327.37 441.22C332.17 453.14 342.1 480.83 331.21 491.61L313.21 446.92L308.23 448.92L326.86 495.19ZM291.16 501.84C303.96 496.54 310.08 481.9 304.86 469.07C299.48 456.09 284.93 449.93 272.24 455.35C259.38 460.58 253.26 475.41 258.67 488.02C263.83 500.89 278.54 507.24 291.16 501.84ZM291.02 501.28C279.41 506.21 268.15 496.34 263.88 485.93C259.77 475.63 260.87 460.46 272.44 455.82C283.87 451.13 295.2 461.06 299.38 471.28C303.64 481.62 302.53 496.66 291.02 501.28ZM232.51 454.61C218.91 453.01 206.59 462.71 204.95 476.31C203.27 490.12 213.08 502.49 226.47 504.12L242.46 506.06L248.49 456.56L232.51 454.61ZM237.05 504.91L226.53 503.63C215.8 502.32 208.51 490.33 210.14 476.93C211.77 463.54 221.7 453.86 232.44 455.17L242.95 456.45L237.05 504.91ZM187.54 479.85C188.21 471.3 180.03 469.04 177.6 463.33L175.85 468.63C185.04 471.66 189.11 475.09 186.07 484.29L182.48 495.15L176.98 493.33C168.8 490.62 165.42 489.14 162.17 483L160.39 488.37L187.49 497.33L203.15 449.98L176.45 441.15L171.63 450.56C176.28 444.59 180.64 443.13 186.47 445.06L197.8 448.8L187.54 479.85ZM139.01 433.84C144.68 428.77 149.15 428.04 154.51 430.89L165.05 436.51L141.85 480.02L146.84 482.68L170.3 438.67L145.43 425.41L139.01 433.84ZM109.16 432.52C96.81 422.28 126.37 411.55 106.58 395.13L106.22 395.57C110.02 398.73 108.5 404.44 106.65 410.98C104.41 418.77 101.19 426.65 108.8 432.96C110.45 434.34 112.59 434.99 114.74 434.76C108.07 437.49 101.11 438.69 92.85 440.02C92.69 439.88 84.88 440.66 80.45 438.27L89.47 445.75C88.36 441.34 99.28 439.56 99.28 439.56C110.73 437.49 119.82 434.84 129.46 425.86L103.4 457.3L107.53 460.72L139.37 422.33L135.24 418.9C129.33 426.03 123.75 430.31 117.91 433.26C116.52 433.95 112.53 435.32 109.16 432.52ZM60.14 415.57C71.33 423.74 87.01 421.34 95.25 410.2C103.53 398.84 101.21 383.22 89.97 375.2C78.81 366.95 62.97 369.44 55.01 380.64C46.72 391.74 48.95 407.61 60.14 415.57ZM60.54 415.15C50.29 407.81 52.85 393.06 59.52 383.99C66.17 375.12 79.69 368.15 89.68 375.63C99.63 382.94 97.05 397.78 90.51 406.67C83.9 415.69 70.48 422.57 60.54 415.15ZM41.98 370.12C49.24 366.64 49.66 358.21 49.45 349.93C49.15 331.81 55.16 327.52 60.68 330.05C71.28 334.84 72.58 351.76 59.78 365.58L68.64 361.33C74.42 349.71 69.97 333.9 60.94 329.3C57.86 327.81 54.26 327.85 51.21 329.42C43.7 333.03 43.24 341.39 43.58 349.77C43.77 368.79 37.01 372.66 31.38 369.25C24.49 365.35 19.88 353.3 29.86 340.6L23.17 343.81C16.94 353.53 27.78 376.93 41.98 370.12ZM5.35 307.95L54.67 300.52L53.88 295.28L5.06 302.64C3.91 295.09 8.73 288.65 16.06 283.26C25.42 276.56 39 271.88 50.1 270.21L49.32 264.97L0 272.39L0.79 277.63L40.88 271.6C32.03 274 22.74 277.76 15.74 283.02C8.25 288.29 3.42 295.09 4.56 302.71L5.35 307.95ZM1 236.92C3.41 250.56 16.38 259.7 30.04 257.37C43.87 254.92 53.03 242.05 50.48 228.48C48.15 214.8 35 205.62 21.51 208.17C7.83 210.43 -1.55 223.43 1 236.92ZM1.57 236.89C-0.73 224.49 11.34 215.64 22.43 213.72C33.37 211.93 47.95 216.28 49.97 228.58C52.09 240.76 39.94 249.67 29.06 251.54C18.04 253.47 3.6 249.14 1.57 236.89ZM66.11 172.08L37 145.31C32.92 141.42 27.26 140.67 23.42 145.06C19.35 149.68 20.49 156.32 26.07 161.26L33.98 168.69L13.9 169.64L11.88 175.23L39.62 173.88L53.4 186.5L6.95 188.92L4.87 194.7L59.02 191.75L59.23 191.16L40.3 173.9L65.94 172.54L66.11 172.08ZM34.86 168.56L26.24 160.8C21.8 156.65 19.56 150.36 23.77 145.34C27.47 141.12 32.96 142.12 36.89 145.63L60.32 167.29L34.86 168.56ZM65.79 120.38L68.48 122.45L80.49 106.93L77.81 104.85L65.79 120.38Z" fill="#808080" fill-opacity="1.000000" fill-rule="evenodd"/>
		<path id="Become a model at modelkos now -" d="M128.85 45.07C124.32 38.32 115.51 40.41 106.71 46.32L96.57 53.13L124.37 94.54L138.27 85.2C147.26 79.08 152.96 72.36 146.62 62.92C141.03 54.59 134.15 55.63 126.41 60.07C130.49 55.88 132.39 50.35 128.85 45.07ZM137.49 85.05L128.69 90.96L107.07 58.76C108.83 60.59 110.92 62.08 113.23 63.13C116.75 64.68 120.39 64.54 123.15 62.68C128.25 59.25 134.99 55.49 142.04 65.99C149.13 76.55 142.76 81.5 137.49 85.05ZM122.83 62.21C120.19 63.99 116.92 64.06 113.51 62.52C110.15 61.2 106.79 58.35 104.07 54.3L101.47 50.43L106.98 46.73C112.62 42.95 119.78 41.46 124.27 48.14C128.56 54.53 126.76 59.58 122.83 62.21ZM169.19 45.35L166.99 40.22C158.1 44.04 152.77 44.16 148.96 35.27L144.45 24.75L149.77 22.47C157.7 19.07 161.21 17.95 167.71 20.39L165.49 15.2L139.26 26.44L158.9 72.28L184.74 61.21L182.12 50.95C182.6 58.51 180.3 62.49 174.65 64.91L163.68 69.62L150.8 39.56C155.96 46.41 163.59 42.68 169.19 45.35ZM220.44 15.41L218.85 8.23C218.85 8.23 209.5 -0.04 195.05 7.56C182.77 13.88 178.1 29.09 184.37 41.46C190.99 53.74 205.85 58.78 218.19 52.08C222.79 49.74 226.52 46 228.85 41.4L226.92 32.64C227.6 40.31 225.17 48 217.97 51.76C206.95 57.53 194.61 48.82 189.38 38.9C184.44 29 184.21 13.86 195.29 8.01C209.4 0.48 220.44 15.41 220.44 15.41ZM236.31 30.75C239.5 44.44 252.83 52.91 266.24 49.65C279.78 46.6 288.26 32.98 285 19.65C282.03 6.11 268.55 -2.58 255.21 0.68C241.72 3.8 233.27 17.24 236.31 30.75ZM279.51 20.86C281.88 31.69 278.3 46.47 266.12 49.15C254.07 51.89 244.52 40.24 242.09 29.47C239.58 18.57 243.15 3.92 255.26 1.25C267.53 -1.7 277.01 9.88 279.51 20.86ZM314.56 46.43L309.77 6.15L304.15 4.47L289.9 52.27L290.3 52.38L304.2 5.81L304.76 10.84L310.47 58.41L311.15 58.61C314.83 46.29 324.31 18.45 339.55 16.8L325.77 62.97L330.92 64.51L345.18 16.71C330.82 12.43 320.49 31.24 314.56 46.43ZM362.81 58.28L365.44 53.35C356.91 48.78 353.48 44.7 358.06 36.17L363.46 26.08L368.57 28.82C376.16 32.89 379.24 34.94 381.39 41.55L384.05 36.57L358.9 23.08L335.34 67.04L360.12 80.32L366.49 71.87C360.88 76.96 356.34 77.66 350.93 74.75L340.4 69.11L355.86 40.28C353.72 48.6 361.39 52.23 362.81 58.28ZM410.4 123.75L430.77 73.56L430.41 73.22C420.17 75.86 406.58 80.44 396.79 84.93C393.11 86.53 389.64 88.55 386.45 90.97C383.95 92.96 383 95.01 383.74 96.96C383.75 97.38 383.91 97.79 384.19 98.11C386.34 100.46 389.03 99.46 392.48 97.91C397.73 95.87 404.83 92.68 414.11 100.38L406.21 119.56L410.4 123.75ZM392.18 97.42C389.09 98.91 386.54 99.86 384.69 97.71C384.58 97.38 384.43 97.06 384.24 96.76C383.44 95.16 384.65 93.27 386.79 91.32C389.96 88.95 393.4 86.95 397.04 85.38C404.93 81.69 415.13 78.3 424.07 75.46L414.31 99.88C404.83 92.08 397.58 95.32 392.18 97.42ZM446.08 158.06L472.39 127.18L469.81 121.92L425.04 143.91L425.23 144.29L468.85 122.86L465.54 126.69L434.51 163.18L434.82 163.82C446.36 158.15 473.24 146.21 484.79 156.27L441.55 177.51L443.91 182.33L488.68 160.34C482.08 146.9 461.25 152.09 446.08 158.06ZM464.27 184.14C451.74 190.5 446.71 205.48 453.08 217.72C459.28 230.14 474.54 235.11 486.7 228.75C499.13 222.62 504.34 207.46 497.99 195.29C491.73 182.94 476.66 177.95 464.27 184.14ZM484.21 223.71C474.26 228.6 459.05 228.67 453.54 217.48C447.99 206.44 457.02 194.38 466.89 189.44C476.88 184.4 491.95 184.36 497.44 195.48C503.25 206.68 494.27 218.66 484.21 223.71ZM479.13 283.22C493.03 283.84 504.62 273.11 505.22 259.63L505.94 243.54L456.11 241.31L455.39 257.4C454.84 271.08 465.45 282.63 479.13 283.22ZM504.73 259.61C504.24 270.41 492.84 278.6 479.36 277.99C465.88 277.39 455.47 268.23 455.95 257.43L456.43 246.84L505.2 249.02L504.73 259.61ZM468.26 311.48L473.68 312.83C476.01 303.43 479.12 299.11 488.52 301.44L499.62 304.2L498.23 309.82C496.15 318.19 494.92 321.67 489.05 325.38L494.54 326.74L501.42 299.04L453.01 287.02L446.24 314.31L455.99 318.4C449.68 314.21 447.89 309.98 449.37 304.02L452.25 292.43L483.99 300.32C475.41 300.3 473.77 308.63 468.26 311.48ZM437.67 336.96L442.47 326.03L487.62 345.86L489.89 340.69L444.23 320.63L432.89 346.43L441.78 352.19C436.3 346.93 435.23 342.52 437.67 336.96ZM393.49 400.01L445.12 416.38L445.44 416C442 406 436.36 392.81 431.12 383.4C429.25 379.86 426.95 376.56 424.29 373.56C422.11 371.23 419.99 370.44 418.11 371.34C417.68 371.38 417.29 371.57 416.99 371.88C414.82 374.2 416.03 376.81 417.84 380.13C420.29 385.2 424.03 392.02 417.08 401.88L397.35 395.5L393.49 400.01ZM418.31 379.79C416.58 376.82 415.44 374.35 417.43 372.34C417.76 372.21 418.07 372.03 418.35 371.82C419.88 370.9 421.87 371.95 423.97 373.94C426.59 376.91 428.84 380.18 430.69 383.68C434.99 391.26 439.17 401.16 442.71 409.85L417.59 402.04C424.63 391.98 420.82 385.01 418.31 379.79ZM381.95 408.97L413.95 446.58C408.2 451.38 404.48 453.99 397.94 453.71L401.51 457.91L431.26 432.59L427.69 428.4C427.02 434.81 423.8 438.11 418.09 443.06L386.09 405.45L381.95 408.97ZM332.29 452.87L361.14 481.39L366.57 479.2L347.95 432.94L347.55 433.09L365.71 478.18L362.13 474.6L328.03 440.95L327.37 441.22C332.17 453.14 342.1 480.83 331.21 491.61L313.21 446.92L308.23 448.92L326.86 495.19C340.75 489.6 337.11 468.45 332.29 452.87ZM304.86 469.07C299.48 456.09 284.93 449.93 272.24 455.35C259.38 460.58 253.26 475.41 258.67 488.02C263.83 500.89 278.54 507.24 291.16 501.84C303.96 496.54 310.08 481.9 304.86 469.07ZM263.88 485.93C259.77 475.63 260.87 460.46 272.44 455.82C283.87 451.13 295.2 461.06 299.38 471.28C303.64 481.62 302.53 496.66 291.02 501.28C279.41 506.21 268.15 496.34 263.88 485.93ZM204.95 476.31C203.27 490.12 213.08 502.49 226.47 504.12L242.46 506.06L248.49 456.56L232.51 454.61C218.91 453.01 206.59 462.71 204.95 476.31ZM226.53 503.63C215.8 502.32 208.51 490.33 210.14 476.93C211.77 463.54 221.7 453.86 232.44 455.17L242.95 456.45L237.05 504.91L226.53 503.63ZM177.6 463.33L175.85 468.63C185.04 471.66 189.11 475.09 186.07 484.29L182.48 495.15L176.98 493.33C168.8 490.62 165.42 489.14 162.17 483L160.39 488.37L187.49 497.33L203.15 449.98L176.45 441.15L171.63 450.56C176.28 444.59 180.64 443.13 186.47 445.06L197.8 448.8L187.54 479.85C188.21 471.3 180.03 469.04 177.6 463.33ZM154.51 430.89L165.05 436.51L141.85 480.02L146.84 482.68L170.3 438.67L145.43 425.41L139.01 433.84C144.68 428.77 149.15 428.04 154.51 430.89ZM106.58 395.13L106.22 395.57C110.02 398.73 108.5 404.44 106.65 410.98C104.41 418.77 101.19 426.65 108.8 432.96C110.45 434.34 112.59 434.99 114.74 434.76C108.07 437.49 101.11 438.69 92.85 440.02C92.69 439.88 84.88 440.66 80.45 438.27L89.47 445.75C88.36 441.34 99.28 439.56 99.28 439.56C110.73 437.49 119.82 434.84 129.46 425.86L103.4 457.3L107.53 460.72L139.37 422.33L135.24 418.9C129.33 426.03 123.75 430.31 117.91 433.26C116.52 433.95 112.53 435.32 109.16 432.52C96.81 422.28 126.37 411.55 106.58 395.13ZM95.25 410.2C103.53 398.84 101.21 383.22 89.97 375.2C78.81 366.95 62.97 369.44 55.01 380.64C46.72 391.74 48.95 407.61 60.14 415.57C71.33 423.74 87.01 421.34 95.25 410.2ZM59.52 383.99C66.17 375.12 79.69 368.15 89.68 375.63C99.63 382.94 97.05 397.78 90.51 406.67C83.9 415.69 70.48 422.57 60.54 415.15C50.29 407.81 52.85 393.06 59.52 383.99ZM49.45 349.93C49.15 331.81 55.16 327.52 60.68 330.05C71.28 334.84 72.58 351.76 59.78 365.58L68.64 361.33C74.42 349.71 69.97 333.9 60.94 329.3C57.86 327.81 54.26 327.85 51.21 329.42C43.7 333.03 43.24 341.39 43.58 349.77C43.77 368.79 37.01 372.66 31.38 369.25C24.49 365.35 19.88 353.3 29.86 340.6L23.17 343.81C16.94 353.53 27.78 376.93 41.98 370.12C49.24 366.64 49.66 358.21 49.45 349.93ZM54.67 300.52L53.88 295.28L5.06 302.64C3.91 295.09 8.73 288.65 16.06 283.26C25.42 276.56 39 271.88 50.1 270.21L49.32 264.97L0 272.39L0.79 277.63L40.88 271.6C32.03 274 22.74 277.76 15.74 283.02C8.25 288.29 3.42 295.09 4.56 302.71L5.35 307.95L54.67 300.52ZM30.04 257.37C43.87 254.92 53.03 242.05 50.48 228.48C48.15 214.8 35 205.62 21.51 208.17C7.83 210.43 -1.55 223.43 1 236.92C3.41 250.56 16.38 259.7 30.04 257.37ZM22.43 213.72C33.37 211.93 47.95 216.28 49.97 228.58C52.09 240.76 39.94 249.67 29.06 251.54C18.04 253.47 3.6 249.14 1.57 236.89C-0.73 224.49 11.34 215.64 22.43 213.72ZM37 145.31C32.92 141.42 27.26 140.67 23.42 145.06C19.35 149.68 20.49 156.32 26.07 161.26L33.98 168.69L13.9 169.64L11.88 175.23L39.62 173.88L53.4 186.5L6.95 188.92L4.87 194.7L59.02 191.75L59.23 191.16L40.3 173.9L65.94 172.54L66.11 172.08L37 145.31ZM26.24 160.8C21.8 156.65 19.56 150.36 23.77 145.34C27.47 141.12 32.96 142.12 36.89 145.63L60.32 167.29L34.86 168.56L26.24 160.8ZM68.48 122.45L80.49 106.93L77.81 104.85L65.79 120.38L68.48 122.45Z" stroke="#707070" stroke-opacity="0" stroke-width="1.000000"/>
	</g>
</svg>
