<svg width="21.176514" height="15.000000" viewBox="0 0 21.1765 15" fill="none" xmlns="http://www.w3.org/2000/svg" xmlns:xlink="http://www.w3.org/1999/xlink">
	<desc>
			Created with Pixso.
	</desc>
	<defs/>
	<g style="mix-blend-mode:normal">
		<path id="Path 21" d="M19.85 0L1.32 0C0.59 0 0 0.59 0 1.32L0 13.67C0 14.4 0.59 15 1.32 15L19.85 15C20.58 15 21.17 14.4 21.17 13.67L21.17 1.32C21.17 0.59 20.58 0 19.85 0ZM19.57 0.88L10.58 7.82L1.6 0.88L19.57 0.88ZM0.88 13.49L0.88 1.43L7.68 6.69L0.88 13.49ZM1.5 14.11L8.38 7.23L10.31 8.73C10.47 8.85 10.69 8.85 10.85 8.73L12.79 7.23L19.67 14.11L1.5 14.11ZM20.29 13.49L13.49 6.69L20.29 1.43L20.29 13.49Z" fill="#000000" fill-opacity="1.000000" fill-rule="nonzero"/>
		<path id="Path 21" d="M1.32 0C0.59 0 0 0.59 0 1.32L0 13.67C0 14.4 0.59 15 1.32 15L19.85 15C20.58 15 21.17 14.4 21.17 13.67L21.17 1.32C21.17 0.59 20.58 0 19.85 0L1.32 0ZM10.58 7.82L1.6 0.88L19.57 0.88L10.58 7.82ZM0.88 1.43L7.68 6.69L0.88 13.49L0.88 1.43ZM8.38 7.23L10.31 8.73C10.47 8.85 10.69 8.85 10.85 8.73L12.79 7.23L19.67 14.11L1.5 14.11L8.38 7.23ZM13.49 6.69L20.29 1.43L20.29 13.49L13.49 6.69Z" stroke="#707070" stroke-opacity="0" stroke-width="1.000000"/>
	</g>
</svg>
