<svg version="1.2" xmlns="http://www.w3.org/2000/svg" viewBox="0 0 31 14" width="31" height="14"><defs><clipPath clipPathUnits="userSpaceOnUse" id="cp1"><path d="m-550-4946h640v5495h-640z"/></clipPath></defs><style>tspan{white-space:pre}.a{fill:#1d1d1d}.b{fill:#fff}.c{font-size: 26px;fill: #1d1d1d;font-weight: 500;font-family: "Kanit-Medium", "Kanit"}</style><g clip-path="url(#cp1)"><path class="a" d="m3.7 0.7c0 0 0.5 0.2 0.4 1.1 0 0-0.1 0.1-0.1 0.3-0.1 0.2 0 0.5-0.1 0.6 0 0-0.1 0.2-0.3 0.4-0.1 0.2-0.2 0.3-0.4 0.1 0 0 0.1 0.8 0.6 0.8 0 0 0.5-0.1 0.7 0.9v0.6c0 0 0.2 0.6-0.1 0.9 0 0-1.2 0.6 0 2.5 0 0 0.1 0.9 0 1.3 0 0-0.4 2.7-0.7 2.9 0 0-0.1 0.1-1.4 0 0 0-1.6-3.9-0.2-5.1 0 0 0.2-1.2-0.3-1.9l-0.5 1.4c0.1 0.2 0.9 1.2 0.5 1.6 0 0-1.3-1-1.1-2l0.6-2.6c0 0 0-0.6 1-0.5 0 0 0.3-0.3 0.2-0.8 0 0-0.7 0.2-0.9-0.2 0 0 0.4-0.2 0.3-1.1 0 0-0.1-0.5 0-0.7q0.4-0.8 1.4-0.7z"/><path class="b" d="m2.1 8c0-0.1 0.1-0.6 0.1-0.8 0 0-0.1-0.4-0.2-0.6l-0.1-0.3-0.1-0.1 0.4-0.4c0.5-0.3-0.2-1.8-0.2-1.8h0.1l0.4 1c0.7 0 1.2 0.6 1.2 0.6h0.1l0.3-0.5c0.1-0.7-0.2-1.1-0.2-1.1h0.1c0.3 0.2 0.3 1.1 0.3 1.1 0.1 0.3 0.4 0.8 0.4 0.8 0 0.3-0.3 0.6-0.3 0.6-0.2 0.3-0.3 0.7-0.3 0.7-0.1 0.8 0 0.7 0.1 1.1 0 0.1 0.2 0.6 0.2 0.8 0 0-0.6 1.7-1.1 1.5 0 0-0.3-1.8-1.4-2l-0.3 0.3c0-0.4 0.5-0.9 0.5-0.9z"/><text style="transform:matrix(.333,0,0,.333,9.935,9.973)" ><tspan x="0" y="0" class="c">Braty
</tspan></text></g></svg>