<svg version="1.2" xmlns="http://www.w3.org/2000/svg" viewBox="0 0 71 15" width="71" height="15"><defs><clipPath clipPathUnits="userSpaceOnUse" id="cp1"><path d="m-447-4945h640v5495h-640z"/></clipPath></defs><style>tspan{white-space:pre}.a{fill:#808080}.b{font-size: 26px;fill: #1d1d1d;font-weight: 500;font-family: "Poppins-Medium", "Poppins"}</style><g clip-path="url(#cp1)"><path class="a" d="m10.1 10.8c0.1-1.6 3-6.7 4.7-6.8 1.6-0.1 3.2 0.5 3.2 0.5 0 0-2.1 0.7-2.4 2.9-0.4 2.3-2 1.3-2 1.7 0 0.5 0.8 0.6 0.8 1 0 0.5-0.4 0.4-0.4 0.7 0.1 0.3 0.2 0.2 0.2 0.5 0 0.3-0.5 0.2-0.2 0.7 0.3 0.6-0.1 1.3-0.1 1.3 0 0-3.8-1-3.8-2.5zm-5.8 1.2c0.3-0.5-0.3-0.4-0.3-0.7 0.1-0.3 0.2-0.2 0.2-0.5 0.1-0.3-0.3-0.2-0.3-0.7-0.1-0.4 0.8-0.5 0.8-1-0.1-0.4-1.6 0.6-2-1.7-0.3-2.2-2.4-2.9-2.4-2.9 0 0 1.5-0.6 3.2-0.5 1.7 0.1 4.6 5.2 4.6 6.8 0.1 1.5-3.8 2.5-3.8 2.5 0 0-0.4-0.7 0-1.3z"/><path  d="m9.7 8.1c0.6-4.2 4.9-5.7 5.6-5.8 0.7-0.1 1 0 1 0 0 0-2 1.9-1.9 3.5 0.1 1.6-1.8 2.7-2 3.3-0.2 0.7 0.5 0.7 0.5 1.2 0.1 0.5-0.1 0.5-0.1 0.9 0 0.4 0.2 0.3 0.2 0.6 0 0.2-0.3 0.2-0.3 0.4 0 0.2 0.2 0.4 0.2 0.6 0.1 0.2 0 1.8 0 1.8 0 0-3.8-2.2-3.2-6.5zm-4.4 4.7c0.1-0.2 0.3-0.4 0.3-0.6 0-0.2-0.3-0.2-0.3-0.4 0-0.3 0.2-0.2 0.2-0.6 0-0.4-0.3-0.4-0.2-0.9 0.1-0.5 0.8-0.5 0.6-1.2-0.2-0.6-2.1-1.7-2-3.3 0-1.6-2-3.5-2-3.5 0 0 0.4-0.1 1.1 0 0.7 0.1 5 1.6 5.6 5.8 0.6 4.3-3.3 6.5-3.3 6.5 0 0 0-1.6 0-1.8z"/><path  d="m9.1 3.9c-0.8 0-1.5-0.6-1.5-1.4 0-0.9 0.7-1.5 1.5-1.5 0.8 0 1.5 0.6 1.5 1.5 0 0.8-0.7 1.4-1.5 1.4z"/><text style="transform:matrix(.333,0,0,.333,20.001,10.957)" ><tspan x="0" y="0" class="b">KosovaGirls
</tspan></text></g></svg>