<svg width="99.786621" height="99.770996" viewBox="0 0 99.7866 99.771" fill="none" xmlns="http://www.w3.org/2000/svg" xmlns:xlink="http://www.w3.org/1999/xlink">
	<desc>
			Created with Pixso.
	</desc>
	<defs/>
	<g style="mix-blend-mode:normal">
		<path id="Become a model at modelkos now -" d="M59.6 94.27C58.56 94.75 57.82 95.63 58.09 96.86C58.45 98.42 60.22 98.66 62.26 98.19L64.61 97.65L62.42 88.07L59.2 88.8C57.11 89.29 55.58 90.13 56.08 92.31C56.53 94.24 57.87 94.54 59.6 94.27ZM57.14 92.07C56.58 89.63 58.11 89.16 59.33 88.89L61.37 88.42L63.07 95.88C62.88 95.41 62.6 94.99 62.25 94.64C61.71 94.1 61.03 93.87 60.39 94.02C59.21 94.29 57.7 94.5 57.14 92.07ZM59.15 96.61C58.82 95.13 59.5 94.33 60.41 94.13C61.03 93.99 61.73 94.11 62.25 94.64C62.77 95.12 63.09 95.97 63.31 96.91L63.51 97.8L62.26 98.19C60.95 98.49 59.51 98.16 59.15 96.61ZM53.66 96.32C53.2 94.69 51.53 94.84 50.69 93.95L50.73 95.05C52.64 94.98 53.63 95.33 53.7 97.24L53.79 99.49L52.64 99.54C50.95 99.6 50.22 99.56 49.2 98.65L49.24 99.77L54.86 99.55L54.49 89.72L48.95 89.94L48.7 92.01C49.15 90.58 49.85 90.01 51.06 89.97L53.42 89.87L53.66 96.32ZM43.24 98.98C40.11 99.37 39.14 95.84 39.14 95.84L38.92 97.28C38.92 97.28 40.06 99.46 43.26 99.08C45.96 98.79 47.9 96.32 47.62 93.6C47.27 90.87 44.89 88.89 42.14 89.25C41.13 89.36 40.18 89.78 39.43 90.46L39.16 92.21C39.58 90.75 40.55 89.44 42.14 89.25C44.58 88.97 46.25 91.52 46.52 93.71C46.72 95.89 45.7 98.69 43.24 98.98ZM31.69 96.1C34.4 96.48 36.9 94.6 37.3 91.9C37.68 89.15 35.82 86.65 33.12 86.3C30.42 85.91 27.89 87.82 27.55 90.5C27.14 93.2 29.01 95.76 31.69 96.1ZM31.73 95.99C29.26 95.67 28.33 92.86 28.65 90.67C28.98 88.5 30.68 86.04 33.11 86.4C35.52 86.75 36.46 89.57 36.15 91.73C35.84 93.91 34.14 96.35 31.73 95.99ZM16.26 86.79C18.6 88.59 21.84 85.86 24 83.48L22.04 91.24L22.95 91.94L28.95 84.15L23.04 91.69L23.29 90.73L25.6 81.57L25.49 81.48C23.94 83.49 20.23 87.94 17.31 87.17L23.11 79.64L22.27 79L16.26 86.79ZM15.96 81.7C16.95 80.32 15.79 79.1 15.96 77.89L15.12 78.61C16.37 80.06 16.71 81.05 15.27 82.3L13.56 83.77L12.81 82.91C11.7 81.62 11.28 81.03 11.35 79.66L10.51 80.39L14.19 84.65L21.63 78.22L18.01 74.02L16.24 75.13C17.63 74.59 18.52 74.78 19.31 75.7L20.85 77.48L15.96 81.7ZM12.3 63.54L11.82 62.47L4.53 70.27C6.6 70.51 9.46 70.72 11.58 70.58C12.37 70.55 13.16 70.42 13.91 70.2C14.52 70.01 14.84 69.7 14.84 69.29C14.86 69.21 14.86 69.12 14.83 69.05C14.61 68.46 14.04 68.46 13.29 68.5C12.18 68.5 10.65 68.59 9.49 66.51L12.3 63.54ZM9.49 66.51C10.68 68.62 12.17 68.61 13.31 68.61C13.99 68.55 14.53 68.56 14.71 69.08C14.71 69.15 14.72 69.22 14.73 69.29C14.76 69.64 14.45 70 13.91 70.2C13.16 70.41 12.35 70.45 11.57 70.48C9.86 70.6 7.74 70.51 5.89 70.4L9.49 66.51ZM0 50.21C0.26 53.15 4.46 53.66 7.68 53.64L0.65 57.46L0.76 58.61L10.55 57.73L1 58.51L1.88 58.04L10.17 53.51L10.16 53.37C7.63 53.6 1.84 53.9 0.42 51.23L9.89 50.37L9.79 49.32L0 50.21ZM0.75 43.11C1.03 45.83 3.45 47.81 6.17 47.55C8.93 47.26 10.91 44.86 10.6 42.16C10.34 39.43 7.88 37.44 5.19 37.75C2.47 38 0.44 40.42 0.75 43.11ZM0.87 43.12C0.59 40.64 3.09 39.07 5.3 38.85C7.47 38.66 10.28 39.72 10.5 42.17C10.74 44.59 8.23 46.18 6.06 46.39C3.87 46.61 1.09 45.55 0.87 43.12ZM12.98 34.69C14.05 32.21 12.91 29.33 10.44 28.26C7.92 27.16 5.03 28.32 3.97 30.76L2.7 33.67L11.71 37.6L12.98 34.69ZM3.22 32.71L3.97 30.76C4.82 28.8 7.59 28.14 10.03 29.2C12.46 30.27 13.73 32.69 12.88 34.64L12.05 36.56L3.22 32.71ZM10.75 24.77C12.33 25.38 13.22 23.96 14.44 23.82L13.53 23.19C12.44 24.76 11.56 25.33 10 24.24L8.15 22.95L8.8 22.01C9.78 20.62 10.25 20.06 11.59 19.8L10.68 19.16L7.45 23.77L15.52 29.41L18.69 24.86L17.18 23.42C18.05 24.63 18.08 25.54 17.39 26.53L16.04 28.46L10.75 24.77ZM22.19 18.2C22.83 19.56 22.71 20.44 21.87 21.29L20.21 22.97L13.3 16.13L12.52 16.92L19.51 23.84L23.42 19.89L22.19 18.2ZM33.43 13.37L34.46 12.81L26.11 6.15C26.04 8.23 26.06 11.1 26.36 13.21C26.45 13.99 26.64 14.76 26.92 15.5C27.15 16.09 27.49 16.38 27.9 16.35C27.98 16.37 28.07 16.36 28.14 16.33C28.71 16.05 28.67 15.49 28.57 14.75C28.48 13.64 28.27 12.12 30.25 10.8L33.43 13.37ZM30.25 10.8C28.24 12.15 28.37 13.64 28.46 14.78C28.57 15.45 28.6 15.98 28.09 16.21C28.02 16.21 27.96 16.22 27.89 16.24C27.54 16.3 27.16 16.02 26.92 15.5C26.65 14.77 26.45 13.98 26.36 13.21C26.1 11.51 26.13 9.37 26.09 7.52L30.25 10.8ZM36.2 12.33L37.22 11.97L33.98 2.79C35.38 2.31 36.25 2.09 37.43 2.61L37.07 1.58L29.81 4.14L30.17 5.17C30.74 4.03 31.57 3.65 32.97 3.15L36.2 12.33ZM53.45 0C50.5 0.04 49.67 4.19 49.46 7.4L46.17 0.11L45.01 0.13L45.17 9.97L45.1 0.38L45.5 1.29L49.4 9.9L49.54 9.9C49.5 7.36 49.63 1.56 52.4 0.35L52.55 9.85L53.61 9.83L53.45 0ZM60.49 1.29C57.76 1.37 55.6 3.63 55.65 6.36C55.73 9.13 57.97 11.29 60.69 11.19C63.43 11.14 65.6 8.84 65.5 6.13C65.46 3.4 63.2 1.19 60.49 1.29ZM60.48 1.41C62.97 1.32 64.34 3.93 64.39 6.15C64.42 8.34 63.15 11.05 60.69 11.09C58.25 11.14 56.87 8.52 56.82 6.34C56.77 4.13 58.03 1.45 60.48 1.41ZM67.95 14.13C70.34 15.39 73.3 14.47 74.56 12.09C75.85 9.66 74.91 6.69 72.56 5.45L69.76 3.96L65.15 12.65L67.95 14.13ZM70.67 4.55L72.56 5.45C74.45 6.45 74.9 9.25 73.65 11.6C72.4 13.96 69.84 15.13 67.95 14.13L66.16 13.06L70.67 4.55ZM78.02 12.66C77.29 14.19 78.63 15.19 78.68 16.41L79.37 15.56C77.9 14.35 77.39 13.43 78.6 11.95L80.03 10.21L80.91 10.93C82.23 12.01 82.74 12.52 82.91 13.88L83.62 13.02L79.26 9.45L73.03 17.06L77.32 20.57L78.88 19.18C77.6 19.95 76.69 19.91 75.75 19.15L73.93 17.66L78.02 12.66ZM83.7 24.57C82.3 25.1 81.42 24.92 80.64 24.01L79.09 22.23L86.44 15.86L85.71 15.02L78.28 21.47L81.92 25.66L83.7 24.57ZM89.1 26.92C90.65 29.67 84.45 29.56 86.93 33.98C86.46 33.13 87.24 32.13 88.04 31.06C89 29.79 90.06 28.62 89.1 26.92C88.89 26.55 88.64 26.22 88.23 26.11C89.65 26.08 91.02 26.35 92.63 26.69C92.65 26.73 94.14 27.13 94.79 27.89L93.66 25.87C93.55 26.76 91.42 26.32 91.42 26.32C89.16 25.89 87.3 25.74 84.89 26.71L91.91 22.76L91.39 21.84L82.82 26.66L83.34 27.58C84.93 26.69 86.26 26.29 87.54 26.16C87.85 26.14 88.68 26.16 89.1 26.92ZM96.93 33.5C95.44 31.21 92.39 30.54 90.08 32.01C87.76 33.52 87.08 36.56 88.58 38.83C90.05 41.13 93.15 41.79 95.4 40.3C97.71 38.84 98.42 35.76 96.93 33.5ZM96.82 33.55C98.19 35.63 96.68 38.16 94.81 39.36C92.96 40.52 89.89 40.91 88.58 38.83C87.27 36.77 88.87 34.17 90.71 32.99C92.56 31.8 95.52 31.48 96.82 33.55ZM97.06 43.15C95.48 43.28 94.8 44.8 94.26 46.34C93.03 49.7 91.62 50.06 90.78 49.21C89.17 47.58 90.13 44.37 93.46 42.73L91.53 42.89C89.64 44.62 89.35 47.84 90.68 49.33C91.14 49.82 91.81 50.07 92.48 49.99C94.12 49.86 94.8 48.35 95.33 46.79C96.64 43.27 98.15 43.04 98.95 44.06C99.94 45.27 99.94 47.81 97.2 49.44L98.66 49.33C100.5 47.98 100.16 42.9 97.06 43.15ZM99.41 57.19L89.8 55.07L89.58 56.09L99.09 58.19C98.76 59.66 97.42 60.5 95.69 60.98C93.5 61.55 90.66 61.45 88.5 60.97L88.28 61.99L97.88 64.11L98.11 63.09L90.3 61.37C92.1 61.55 94.03 61.45 95.69 60.98C97.44 60.54 98.76 59.67 99.09 58.19L99.41 57.19ZM95.19 70.57C95.71 67.89 93.97 65.29 91.29 64.75C88.57 64.23 85.97 65.95 85.48 68.63C84.95 71.31 86.72 73.93 89.38 74.41C92.06 74.96 94.71 73.24 95.19 70.57ZM95.08 70.54C94.63 72.98 91.78 73.76 89.6 73.33C87.46 72.89 85.09 71.05 85.58 68.65C86.06 66.25 88.92 65.47 91.06 65.9C93.22 66.32 95.57 68.14 95.08 70.54ZM78.62 77.91L82.09 84.89C82.57 85.9 83.55 86.44 84.57 85.9C85.65 85.33 85.91 84.03 85.23 82.73L84.3 80.8L88.06 82.05L88.83 81.16L83.62 79.45L81.98 76.15L90.7 78.99L91.49 78.07L81.32 74.79L83.5 79.4L78.62 77.91ZM84.13 80.76L85.23 82.73C85.75 83.81 85.7 85.27 84.57 85.9C83.59 86.41 82.56 85.82 82.09 84.89L79.35 79.2L84.13 80.76ZM75.03 87.45L74.68 86.88L71.37 88.89L71.72 89.46L75.03 87.45Z" fill="#000000" fill-opacity="1.000000" fill-rule="evenodd"/>
		<path id="Become a model at modelkos now -" d="M58.09 96.86C58.45 98.42 60.22 98.66 62.26 98.19L64.61 97.65L62.42 88.07L59.2 88.8C57.11 89.29 55.58 90.13 56.08 92.31C56.53 94.24 57.87 94.54 59.6 94.27C58.56 94.75 57.82 95.63 58.09 96.86ZM62.25 94.64C61.71 94.1 61.03 93.87 60.39 94.02C59.21 94.29 57.7 94.5 57.14 92.07C56.58 89.63 58.11 89.16 59.33 88.89L61.37 88.42L63.07 95.88C62.88 95.41 62.6 94.99 62.25 94.64C61.73 94.11 61.03 93.99 60.41 94.13C59.5 94.33 58.82 95.13 59.15 96.61C59.51 98.16 60.95 98.49 62.26 98.19M62.25 94.64C62.77 95.12 63.09 95.97 63.31 96.91L63.51 97.8L62.26 98.19M50.69 93.95L50.73 95.05C52.64 94.98 53.63 95.33 53.7 97.24L53.79 99.49L52.64 99.54C50.95 99.6 50.22 99.56 49.2 98.65L49.24 99.77L54.86 99.55L54.49 89.72L48.95 89.94L48.7 92.01C49.15 90.58 49.85 90.01 51.06 89.97L53.42 89.87L53.66 96.32C53.2 94.69 51.53 94.84 50.69 93.95ZM42.14 89.25C41.13 89.36 40.18 89.78 39.43 90.46L39.16 92.21C39.58 90.75 40.55 89.44 42.14 89.25C44.58 88.97 46.25 91.52 46.52 93.71C46.72 95.89 45.7 98.69 43.24 98.98C40.11 99.37 39.14 95.84 39.14 95.84L38.92 97.28C38.92 97.28 40.06 99.46 43.26 99.08C45.96 98.79 47.9 96.32 47.62 93.6C47.27 90.87 44.89 88.89 42.14 89.25M37.3 91.9C37.68 89.15 35.82 86.65 33.12 86.3C30.42 85.91 27.89 87.82 27.55 90.5C27.14 93.2 29.01 95.76 31.69 96.1C34.4 96.48 36.9 94.6 37.3 91.9ZM28.65 90.67C28.98 88.5 30.68 86.04 33.11 86.4C35.52 86.75 36.46 89.57 36.15 91.73C35.84 93.91 34.14 96.35 31.73 95.99C29.26 95.67 28.33 92.86 28.65 90.67ZM24 83.48L22.04 91.24L22.95 91.94L28.95 84.15L23.04 91.69L23.29 90.73L25.6 81.57L25.49 81.48C23.94 83.49 20.23 87.94 17.31 87.17L23.11 79.64L22.27 79L16.26 86.79C18.6 88.59 21.84 85.86 24 83.48ZM15.96 77.89L15.12 78.61C16.37 80.06 16.71 81.05 15.27 82.3L13.56 83.77L12.81 82.91C11.7 81.62 11.28 81.03 11.35 79.66L10.51 80.39L14.19 84.65L21.63 78.22L18.01 74.02L16.24 75.13C17.63 74.59 18.52 74.78 19.31 75.7L20.85 77.48L15.96 81.7C16.95 80.32 15.79 79.1 15.96 77.89ZM13.91 70.2C13.16 70.41 12.35 70.45 11.57 70.48C9.86 70.6 7.74 70.51 5.89 70.4L9.49 66.51L12.3 63.54L11.82 62.47L4.53 70.27C6.6 70.51 9.46 70.72 11.58 70.58C12.37 70.55 13.16 70.42 13.91 70.2C14.52 70.01 14.84 69.7 14.84 69.29C14.86 69.21 14.86 69.12 14.83 69.05C14.61 68.46 14.04 68.46 13.29 68.5C12.18 68.5 10.65 68.59 9.49 66.51M9.49 66.51C10.68 68.62 12.17 68.61 13.31 68.61C13.99 68.55 14.53 68.56 14.71 69.08C14.71 69.15 14.72 69.22 14.73 69.29C14.76 69.64 14.45 70 13.91 70.2M7.68 53.64L0.65 57.46L0.76 58.61L10.55 57.73L1 58.51L1.88 58.04L10.17 53.51L10.16 53.37C7.63 53.6 1.84 53.9 0.42 51.23L9.89 50.37L9.79 49.32L0 50.21C0.26 53.15 4.46 53.66 7.68 53.64ZM6.17 47.55C8.93 47.26 10.91 44.86 10.6 42.16C10.34 39.43 7.88 37.44 5.19 37.75C2.47 38 0.44 40.42 0.75 43.11C1.03 45.83 3.45 47.81 6.17 47.55ZM5.3 38.85C7.47 38.66 10.28 39.72 10.5 42.17C10.74 44.59 8.23 46.18 6.06 46.39C3.87 46.61 1.09 45.55 0.87 43.12C0.59 40.64 3.09 39.07 5.3 38.85ZM10.44 28.26C7.92 27.16 5.03 28.32 3.97 30.76L2.7 33.67L11.71 37.6L12.98 34.69C14.05 32.21 12.91 29.33 10.44 28.26ZM3.97 30.76C4.82 28.8 7.59 28.14 10.03 29.2C12.46 30.27 13.73 32.69 12.88 34.64L12.05 36.56L3.22 32.71L3.97 30.76M14.44 23.82L13.53 23.19C12.44 24.76 11.56 25.33 10 24.24L8.15 22.95L8.8 22.01C9.78 20.62 10.25 20.06 11.59 19.8L10.68 19.16L7.45 23.77L15.52 29.41L18.69 24.86L17.18 23.42C18.05 24.63 18.08 25.54 17.39 26.53L16.04 28.46L10.75 24.77C12.33 25.38 13.22 23.96 14.44 23.82ZM21.87 21.29L20.21 22.97L13.3 16.13L12.52 16.92L19.51 23.84L23.42 19.89L22.19 18.2C22.83 19.56 22.71 20.44 21.87 21.29ZM26.36 13.21C26.1 11.51 26.13 9.37 26.09 7.52L30.25 10.8L33.43 13.37L34.46 12.81L26.11 6.15C26.04 8.23 26.06 11.1 26.36 13.21C26.45 13.99 26.64 14.76 26.92 15.5C27.15 16.09 27.49 16.38 27.9 16.35C27.98 16.37 28.07 16.36 28.14 16.33C28.71 16.05 28.67 15.49 28.57 14.75C28.48 13.64 28.27 12.12 30.25 10.8M30.25 10.8C28.24 12.15 28.37 13.64 28.46 14.78C28.57 15.45 28.6 15.98 28.09 16.21C28.02 16.21 27.96 16.22 27.89 16.24C27.54 16.3 27.16 16.02 26.92 15.5M26.92 15.5C26.65 14.77 26.45 13.98 26.36 13.21M37.22 11.97L33.98 2.79C35.38 2.31 36.25 2.09 37.43 2.61L37.07 1.58L29.81 4.14L30.17 5.17C30.74 4.03 31.57 3.65 32.97 3.15L36.2 12.33L37.22 11.97ZM49.46 7.4L46.17 0.11L45.01 0.13L45.17 9.97L45.1 0.38L45.5 1.29L49.4 9.9L49.54 9.9C49.5 7.36 49.63 1.56 52.4 0.35L52.55 9.85L53.61 9.83L53.45 0C50.5 0.04 49.67 4.19 49.46 7.4ZM55.65 6.36C55.73 9.13 57.97 11.29 60.69 11.19C63.43 11.14 65.6 8.84 65.5 6.13C65.46 3.4 63.2 1.19 60.49 1.29C57.76 1.37 55.6 3.63 55.65 6.36ZM64.39 6.15C64.42 8.34 63.15 11.05 60.69 11.09C58.25 11.14 56.87 8.52 56.82 6.34C56.77 4.13 58.03 1.45 60.48 1.41C62.97 1.32 64.34 3.93 64.39 6.15ZM67.95 14.13C70.34 15.39 73.3 14.47 74.56 12.09C75.85 9.66 74.91 6.69 72.56 5.45L69.76 3.96L65.15 12.65L67.95 14.13C69.84 15.13 72.4 13.96 73.65 11.6C74.9 9.25 74.45 6.45 72.56 5.45M67.95 14.13L66.16 13.06L70.67 4.55L72.56 5.45M78.68 16.41L79.37 15.56C77.9 14.35 77.39 13.43 78.6 11.95L80.03 10.21L80.91 10.93C82.23 12.01 82.74 12.52 82.91 13.88L83.62 13.02L79.26 9.45L73.03 17.06L77.32 20.57L78.88 19.18C77.6 19.95 76.69 19.91 75.75 19.15L73.93 17.66L78.02 12.66C77.29 14.19 78.63 15.19 78.68 16.41ZM80.64 24.01L79.09 22.23L86.44 15.86L85.71 15.02L78.28 21.47L81.92 25.66L83.7 24.57C82.3 25.1 81.42 24.92 80.64 24.01ZM89.1 26.92C90.65 29.67 84.45 29.56 86.93 33.98C86.46 33.13 87.24 32.13 88.04 31.06C89 29.79 90.06 28.62 89.1 26.92C88.68 26.16 87.85 26.14 87.54 26.16C86.26 26.29 84.93 26.69 83.34 27.58L82.82 26.66L91.39 21.84L91.91 22.76L84.89 26.71C87.3 25.74 89.16 25.89 91.42 26.32C91.42 26.32 93.55 26.76 93.66 25.87L94.79 27.89C94.14 27.13 92.65 26.73 92.63 26.69C91.02 26.35 89.65 26.08 88.23 26.11C88.64 26.22 88.89 26.55 89.1 26.92M88.58 38.83C89.89 40.91 92.96 40.52 94.81 39.36C96.68 38.16 98.19 35.63 96.82 33.55C95.52 31.48 92.56 31.8 90.71 32.99C88.87 34.17 87.27 36.77 88.58 38.83C90.05 41.13 93.15 41.79 95.4 40.3C97.71 38.84 98.42 35.76 96.93 33.5C95.44 31.21 92.39 30.54 90.08 32.01C87.76 33.52 87.08 36.56 88.58 38.83M94.26 46.34C93.03 49.7 91.62 50.06 90.78 49.21C89.17 47.58 90.13 44.37 93.46 42.73L91.53 42.89C89.64 44.62 89.35 47.84 90.68 49.33C91.14 49.82 91.81 50.07 92.48 49.99C94.12 49.86 94.8 48.35 95.33 46.79C96.64 43.27 98.15 43.04 98.95 44.06C99.94 45.27 99.94 47.81 97.2 49.44L98.66 49.33C100.5 47.98 100.16 42.9 97.06 43.15C95.48 43.28 94.8 44.8 94.26 46.34ZM95.69 60.98C94.03 61.45 92.1 61.55 90.3 61.37L98.11 63.09L97.88 64.11L88.28 61.99L88.5 60.97C90.66 61.45 93.5 61.55 95.69 60.98C97.44 60.54 98.76 59.67 99.09 58.19L99.41 57.19L89.8 55.07L89.58 56.09L99.09 58.19M99.09 58.19C98.76 59.66 97.42 60.5 95.69 60.98M91.29 64.75C88.57 64.23 85.97 65.95 85.48 68.63C84.95 71.31 86.72 73.93 89.38 74.41C92.06 74.96 94.71 73.24 95.19 70.57C95.71 67.89 93.97 65.29 91.29 64.75ZM89.6 73.33C87.46 72.89 85.09 71.05 85.58 68.65C86.06 66.25 88.92 65.47 91.06 65.9C93.22 66.32 95.57 68.14 95.08 70.54C94.63 72.98 91.78 73.76 89.6 73.33ZM84.57 85.9C85.7 85.27 85.75 83.81 85.23 82.73L84.3 80.8L88.06 82.05L88.83 81.16L83.62 79.45L81.98 76.15L90.7 78.99L91.49 78.07L81.32 74.79L83.5 79.4L78.62 77.91L82.09 84.89M85.23 82.73L84.13 80.76L79.35 79.2L82.09 84.89C82.57 85.9 83.55 86.44 84.57 85.9M82.09 84.89C82.56 85.82 83.59 86.41 84.57 85.9C85.65 85.33 85.91 84.03 85.23 82.73M74.68 86.88L71.37 88.89L71.72 89.46L75.03 87.45L74.68 86.88Z" stroke="#707070" stroke-opacity="0" stroke-width="1.000000"/>
	</g>
	<g style="mix-blend-mode:normal">
		<line id="Line 2" x1="63.523438" y1="49.160645" x2="36.000000" y2="49.160645" stroke="#808080" stroke-opacity="1.000000" stroke-width="2.000000"/>
	</g>
	<g style="mix-blend-mode:normal">
		<line id="Line 3" x1="63.523438" y1="49.160156" x2="58.936279" y2="43.999512" stroke="#808080" stroke-opacity="1.000000" stroke-width="2.000000"/>
	</g>
	<g style="mix-blend-mode:normal">
		<line id="Line 4" x1="63.523438" y1="49.160645" x2="58.936279" y2="54.321289" stroke="#808080" stroke-opacity="1.000000" stroke-width="2.000000"/>
	</g>
</svg>
