<svg xmlns="http://www.w3.org/2000/svg" width="19.017" height="19" viewBox="270.05 3702 19.017 19"><path d="M279.557 3706.625a4.867 4.867 0 0 0-4.874 4.874 4.867 4.867 0 0 0 4.874 4.874 4.867 4.867 0 0 0 4.874-4.874 4.867 4.867 0 0 0-4.874-4.874Zm0 8.042a3.174 3.174 0 0 1-3.168-3.168 3.174 3.174 0 0 1 3.168-3.168 3.174 3.174 0 0 1 3.168 3.168 3.174 3.174 0 0 1-3.168 3.168Zm5.074-9.377a1.137 1.137 0 1 0 0 2.277 1.135 1.135 0 0 0 1.052-1.575 1.138 1.138 0 0 0-1.052-.702Zm4.427 6.21c0-1.313.012-2.613-.062-3.922-.074-1.52-.42-2.87-1.533-3.983-1.114-1.114-2.462-1.459-3.983-1.533-1.311-.073-2.611-.061-3.92-.061-1.312 0-2.612-.012-3.921.061-1.521.074-2.871.421-3.983 1.533-1.115 1.115-1.46 2.462-1.533 3.983-.074 1.312-.062 2.612-.062 3.921 0 1.31-.012 2.612.062 3.921.074 1.521.42 2.87 1.533 3.983 1.114 1.114 2.462 1.46 3.983 1.533 1.311.073 2.611.062 3.92.062 1.312 0 2.612.011 3.921-.062 1.521-.074 2.871-.42 3.983-1.533 1.115-1.114 1.46-2.462 1.533-3.983.076-1.31.062-2.61.062-3.92Zm-2.091 5.603a3.021 3.021 0 0 1-.718 1.088 3.04 3.04 0 0 1-1.088.718c-1.25.496-4.218.385-5.604.385-1.385 0-4.356.111-5.606-.383a3.02 3.02 0 0 1-1.088-.718 3.04 3.04 0 0 1-.718-1.088c-.494-1.252-.382-4.22-.382-5.606 0-1.385-.112-4.356.382-5.606a3.02 3.02 0 0 1 .718-1.088 3.072 3.072 0 0 1 1.088-.718c1.25-.494 4.22-.382 5.606-.382 1.386 0 4.356-.112 5.606.382a3.02 3.02 0 0 1 1.088.718c.335.335.545.656.718 1.088.494 1.25.383 4.22.383 5.606 0 1.386.111 4.354-.385 5.604Z" fill="#fff" fill-rule="evenodd" data-name="instagram"/></svg>