<svg width="8.173828" height="17.709564" viewBox="0 0 8.17383 17.7096" fill="none" xmlns="http://www.w3.org/2000/svg" xmlns:xlink="http://www.w3.org/1999/xlink">
	<desc>
			Created with Pixso.
	</desc>
	<defs/>
	<g style="mix-blend-mode:normal">
		<path id="facebook" d="M5.44 5.9L5.44 4.13C5.44 3.36 5.61 2.95 6.75 2.95L8.17 2.95L8.17 0L5.99 0C3.26 0 2.17 1.94 2.17 4.13L2.17 5.9L0 5.9L0 8.85L2.17 8.85L2.17 17.7L5.44 17.7L5.44 8.85L7.84 8.85L8.17 5.9L5.44 5.9Z" fill="#1D1D1D" fill-opacity="1.000000" fill-rule="nonzero"/>
		<path id="facebook" d="M5.44 4.13C5.44 3.36 5.61 2.95 6.75 2.95L8.17 2.95L8.17 0L5.99 0C3.26 0 2.17 1.94 2.17 4.13L2.17 5.9L0 5.9L0 8.85L2.17 8.85L2.17 17.7L5.44 17.7L5.44 8.85L7.84 8.85L8.17 5.9L5.44 5.9L5.44 4.13Z" stroke="#707070" stroke-opacity="0" stroke-width="1.000000"/>
	</g>
</svg>
