<svg width="26.998047" height="26.998260" viewBox="0 0 26.998 26.9983" fill="none" xmlns="http://www.w3.org/2000/svg" xmlns:xlink="http://www.w3.org/1999/xlink">
	<desc>
			Created with Pixso.
	</desc>
	<defs>
		<filter id="filter_1_11283_dd" x="0.000000" y="0.000000" width="26.998047" height="26.998260" filterUnits="userSpaceOnUse" color-interpolation-filters="sRGB">
			<feFlood flood-opacity="0" result="BackgroundImageFix"/>
			<feColorMatrix in="SourceAlpha" type="matrix" values="0 0 0 0 0 0 0 0 0 0 0 0 0 0 0 0 0 0 127 0" result="hardAlpha"/>
			<feOffset dx="0" dy="4"/>
			<feGaussianBlur stdDeviation="1.33333"/>
			<feComposite in2="hardAlpha" operator="out" k2="-1" k3="1"/>
			<feColorMatrix type="matrix" values="0 0 0 0 0 0 0 0 0 0 0 0 0 0 0 0 0 0 0.25 0"/>
			<feBlend mode="normal" in2="BackgroundImageFix" result="effect_dropShadow_1"/>
			<feBlend mode="normal" in="SourceGraphic" in2="effect_dropShadow_1" result="shape"/>
		</filter>
	</defs>
	<g filter="url(#filter_1_11283_dd)" style="mix-blend-mode:normal">
		<path id="instagram" d="M13.49 4.62C10.79 4.62 8.62 6.8 8.62 9.49C8.62 12.19 10.79 14.37 13.49 14.37C16.19 14.37 18.37 12.19 18.37 9.49C18.37 6.8 16.19 4.62 13.49 4.62ZM13.49 12.66C11.75 12.66 10.32 11.24 10.32 9.49C10.32 7.75 11.75 6.33 13.49 6.33C15.24 6.33 16.66 7.75 16.66 9.49C16.66 11.24 15.24 12.66 13.49 12.66ZM18.57 3.28C17.94 3.28 17.43 3.79 17.43 4.42C17.43 5.05 17.94 5.56 18.57 5.56C19.2 5.56 19.7 5.06 19.7 4.42C19.7 4.27 19.67 4.13 19.62 3.99C19.56 3.85 19.48 3.72 19.37 3.62C19.26 3.51 19.14 3.43 19 3.37C18.86 3.31 18.71 3.28 18.57 3.28ZM22.99 9.49C22.99 8.18 23 6.88 22.93 5.57C22.86 4.05 22.51 2.7 21.4 1.59C20.28 0.48 18.94 0.13 17.41 0.06C16.1 -0.02 14.8 0 13.49 0C12.18 0 10.88 -0.02 9.57 0.06C8.05 0.13 6.7 0.48 5.59 1.59C4.48 2.7 4.13 4.05 4.06 5.57C3.98 6.88 4 8.18 4 9.49C4 10.8 3.98 12.11 4.06 13.42C4.13 14.94 4.48 16.29 5.59 17.4C6.7 18.51 8.05 18.86 9.57 18.93C10.88 19 12.18 18.99 13.49 18.99C14.81 18.99 16.11 19 17.41 18.93C18.94 18.86 20.29 18.51 21.4 17.4C22.51 16.28 22.86 14.94 22.93 13.42C23.01 12.11 22.99 10.81 22.99 9.49ZM20.9 15.1C20.73 15.53 20.52 15.85 20.18 16.19C19.85 16.52 19.53 16.73 19.09 16.9C17.84 17.4 14.88 17.29 13.49 17.29C12.11 17.29 9.14 17.4 7.89 16.91C7.45 16.73 7.13 16.52 6.8 16.19C6.46 15.85 6.25 15.53 6.08 15.1C5.59 13.85 5.7 10.88 5.7 9.49C5.7 8.11 5.59 5.14 6.08 3.89C6.25 3.46 6.46 3.13 6.8 2.8C7.13 2.47 7.45 2.26 7.89 2.08C9.14 1.59 12.11 1.7 13.49 1.7C14.88 1.7 17.85 1.59 19.1 2.08C19.53 2.26 19.85 2.46 20.19 2.8C20.52 3.13 20.73 3.46 20.9 3.89C21.4 5.14 21.29 8.11 21.29 9.49C21.29 10.88 21.4 13.85 20.9 15.1Z" fill="#1D1D1D" fill-opacity="1.000000" fill-rule="nonzero"/>
		<path id="instagram" d="M8.62 9.49C8.62 12.19 10.79 14.37 13.49 14.37C16.19 14.37 18.37 12.19 18.37 9.49C18.37 6.8 16.19 4.62 13.49 4.62C10.79 4.62 8.62 6.8 8.62 9.49ZM10.32 9.49C10.32 7.75 11.75 6.33 13.49 6.33C15.24 6.33 16.66 7.75 16.66 9.49C16.66 11.24 15.24 12.66 13.49 12.66C11.75 12.66 10.32 11.24 10.32 9.49ZM17.43 4.42C17.43 5.05 17.94 5.56 18.57 5.56C19.2 5.56 19.7 5.06 19.7 4.42C19.7 4.27 19.67 4.13 19.62 3.99C19.56 3.85 19.48 3.72 19.37 3.62C19.26 3.51 19.14 3.43 19 3.37C18.86 3.31 18.71 3.28 18.57 3.28C17.94 3.28 17.43 3.79 17.43 4.42ZM22.93 5.57C22.86 4.05 22.51 2.7 21.4 1.59C20.28 0.48 18.94 0.13 17.41 0.06C16.1 -0.02 14.8 0 13.49 0C12.18 0 10.88 -0.02 9.57 0.06C8.05 0.13 6.7 0.48 5.59 1.59C4.48 2.7 4.13 4.05 4.06 5.57C3.98 6.88 4 8.18 4 9.49C4 10.8 3.98 12.11 4.06 13.42C4.13 14.94 4.48 16.29 5.59 17.4C6.7 18.51 8.05 18.86 9.57 18.93C10.88 19 12.18 18.99 13.49 18.99C14.81 18.99 16.11 19 17.41 18.93C18.94 18.86 20.29 18.51 21.4 17.4C22.51 16.28 22.86 14.94 22.93 13.42C23.01 12.11 22.99 10.81 22.99 9.49C22.99 8.18 23 6.88 22.93 5.57ZM20.18 16.19C19.85 16.52 19.53 16.73 19.09 16.9C17.84 17.4 14.88 17.29 13.49 17.29C12.11 17.29 9.14 17.4 7.89 16.91C7.45 16.73 7.13 16.52 6.8 16.19C6.46 15.85 6.25 15.53 6.08 15.1C5.59 13.85 5.7 10.88 5.7 9.49C5.7 8.11 5.59 5.14 6.08 3.89C6.25 3.46 6.46 3.13 6.8 2.8C7.13 2.47 7.45 2.26 7.89 2.08C9.14 1.59 12.11 1.7 13.49 1.7C14.88 1.7 17.85 1.59 19.1 2.08C19.53 2.26 19.85 2.46 20.19 2.8C20.52 3.13 20.73 3.46 20.9 3.89C21.4 5.14 21.29 8.11 21.29 9.49C21.29 10.88 21.4 13.85 20.9 15.1C20.73 15.53 20.52 15.85 20.18 16.19Z" stroke="#707070" stroke-opacity="0" stroke-width="1.000000"/>
	</g>
</svg>
