<svg width="16.356445" height="18.693390" viewBox="0 0 16.3564 18.6934" fill="none" xmlns="http://www.w3.org/2000/svg" xmlns:xlink="http://www.w3.org/1999/xlink">
	<desc>
			Created with Pixso.
	</desc>
	<defs/>
	<g style="mix-blend-mode:normal">
		<path id="tiktok" d="M16.35 7.66C14.74 7.66 13.17 7.16 11.87 6.23L11.87 12.75C11.87 13.96 11.5 15.14 10.81 16.14C10.12 17.13 9.14 17.89 8.01 18.31C6.88 18.74 5.64 18.8 4.47 18.51C3.3 18.21 2.25 17.56 1.45 16.65C0.66 15.74 0.16 14.61 0.03 13.4C-0.1 12.2 0.14 10.99 0.71 9.93C1.29 8.86 2.17 8 3.25 7.46C4.33 6.91 5.55 6.71 6.75 6.87L6.75 10.15C6.2 9.98 5.61 9.99 5.07 10.17C4.52 10.35 4.05 10.7 3.71 11.17C3.38 11.64 3.2 12.2 3.2 12.77C3.21 13.34 3.39 13.9 3.73 14.37C4.07 14.83 4.55 15.17 5.1 15.35C5.64 15.52 6.23 15.52 6.78 15.34C7.32 15.17 7.8 14.82 8.14 14.35C8.47 13.89 8.65 13.33 8.65 12.75L8.65 0L11.87 0C11.87 0.27 11.89 0.54 11.94 0.8C12.05 1.4 12.28 1.97 12.62 2.47C12.96 2.98 13.39 3.41 13.9 3.73C14.63 4.21 15.48 4.47 16.35 4.47L16.35 7.66Z" fill="#1D1D1D" fill-opacity="1.000000" fill-rule="nonzero"/>
		<path id="tiktok" d="M11.87 6.23L11.87 12.75C11.87 13.96 11.5 15.14 10.81 16.14C10.12 17.13 9.14 17.89 8.01 18.31C6.88 18.74 5.64 18.8 4.47 18.51C3.3 18.21 2.25 17.56 1.45 16.65C0.66 15.74 0.16 14.61 0.03 13.4C-0.1 12.2 0.14 10.99 0.71 9.93C1.29 8.86 2.17 8 3.25 7.46C4.33 6.91 5.55 6.71 6.75 6.87L6.75 10.15C6.2 9.98 5.61 9.99 5.07 10.17C4.52 10.35 4.05 10.7 3.71 11.17C3.38 11.64 3.2 12.2 3.2 12.77C3.21 13.34 3.39 13.9 3.73 14.37C4.07 14.83 4.55 15.17 5.1 15.35C5.64 15.52 6.23 15.52 6.78 15.34C7.32 15.17 7.8 14.82 8.14 14.35C8.47 13.89 8.65 13.33 8.65 12.75L8.65 0L11.87 0C11.87 0.27 11.89 0.54 11.94 0.8C12.05 1.4 12.28 1.97 12.62 2.47C12.96 2.98 13.39 3.41 13.9 3.73C14.63 4.21 15.48 4.47 16.35 4.47L16.35 7.66C14.74 7.66 13.17 7.16 11.87 6.23Z" stroke="#707070" stroke-opacity="0" stroke-width="1.000000"/>
	</g>
</svg>
