<svg width="21.922852" height="19.000000" viewBox="0 0 21.9229 19" fill="none" xmlns="http://www.w3.org/2000/svg" xmlns:xlink="http://www.w3.org/1999/xlink">
	<desc>
			Created with Pixso.
	</desc>
	<defs/>
	<g style="mix-blend-mode:normal">
		<path id="twitter" d="M21.92 2.25C21.11 2.62 20.23 2.89 19.33 2.99C20.27 2.4 20.97 1.46 21.31 0.35C20.43 0.91 19.46 1.3 18.46 1.51C18.04 1.03 17.53 0.65 16.96 0.39C16.4 0.13 15.79 -0.01 15.17 0C12.68 0 10.68 2.15 10.68 4.79C10.68 5.16 10.72 5.53 10.79 5.89C7.06 5.68 3.74 3.78 1.53 0.87C1.13 1.61 0.91 2.44 0.92 3.29C0.92 4.96 1.71 6.42 2.92 7.29C2.21 7.26 1.51 7.05 0.89 6.68C0.89 9.01 2.43 11 4.49 11.44C4.1 11.55 3.71 11.6 3.31 11.6C3.01 11.6 2.74 11.57 2.46 11.53C3.03 13.43 4.68 14.81 6.66 14.85C5.11 16.15 3.18 16.9 1.08 16.9C0.7 16.9 0.36 16.89 0 16.84C1.99 18.21 4.35 19 6.9 19C15.16 19 19.68 11.69 19.68 5.35C19.68 5.15 19.68 4.94 19.67 4.73C20.54 4.05 21.31 3.2 21.92 2.25Z" fill="#1D1D1D" fill-opacity="1.000000" fill-rule="nonzero"/>
		<path id="twitter" d="M19.33 2.99C20.27 2.4 20.97 1.46 21.31 0.35C20.43 0.91 19.46 1.3 18.46 1.51C18.04 1.03 17.53 0.65 16.96 0.39C16.4 0.13 15.79 -0.01 15.17 0C12.68 0 10.68 2.15 10.68 4.79C10.68 5.16 10.72 5.53 10.79 5.89C7.06 5.68 3.74 3.78 1.53 0.87C1.13 1.61 0.91 2.44 0.92 3.29C0.92 4.96 1.71 6.42 2.92 7.29C2.21 7.26 1.51 7.05 0.89 6.68C0.89 9.01 2.43 11 4.49 11.44C4.1 11.55 3.71 11.6 3.31 11.6C3.01 11.6 2.74 11.57 2.46 11.53C3.03 13.43 4.68 14.81 6.66 14.85C5.11 16.15 3.18 16.9 1.08 16.9C0.7 16.9 0.36 16.89 0 16.84C1.99 18.21 4.35 19 6.9 19C15.16 19 19.68 11.69 19.68 5.35C19.68 5.15 19.68 4.94 19.67 4.73C20.54 4.05 21.31 3.2 21.92 2.25C21.11 2.62 20.23 2.89 19.33 2.99Z" stroke="#707070" stroke-opacity="0" stroke-width="1.000000"/>
	</g>
</svg>
