<svg width="21.857666" height="21.857422" viewBox="0 0 21.8577 21.8574" fill="none" xmlns="http://www.w3.org/2000/svg" xmlns:xlink="http://www.w3.org/1999/xlink">
	<desc>
			Created with Pixso.
	</desc>
	<defs/>
	<g style="mix-blend-mode:normal">
		<path id="Fill-131" d="M10.92 21.85C4.91 21.85 0 16.94 0 10.92C0 4.91 4.91 0 10.92 0C16.94 0 21.85 4.91 21.85 10.92C21.9 16.94 16.98 21.85 10.92 21.85ZM10.92 1.14C5.53 1.14 1.19 5.53 1.19 10.88C1.19 16.22 5.58 20.61 10.92 20.61C16.27 20.61 20.66 16.22 20.66 10.88C20.66 5.53 16.32 1.14 10.92 1.14Z" fill="#808080" fill-opacity="1.000000" fill-rule="nonzero"/>
		<path id="Fill-131" d="M0 10.92C0 4.91 4.91 0 10.92 0C16.94 0 21.85 4.91 21.85 10.92C21.9 16.94 16.98 21.85 10.92 21.85C4.91 21.85 0 16.94 0 10.92ZM1.19 10.88C1.19 16.22 5.58 20.61 10.92 20.61C16.27 20.61 20.66 16.22 20.66 10.88C20.66 5.53 16.32 1.14 10.92 1.14C5.53 1.14 1.19 5.53 1.19 10.88Z" stroke="#707070" stroke-opacity="0" stroke-width="1.000000"/>
	</g>
	<g style="mix-blend-mode:normal">
		<path id="Fill-132" d="M14.36 16.51L10.3 12.45L10.3 5.05L11.59 5.05L11.59 11.93L15.27 15.6L14.36 16.51Z" fill="#808080" fill-opacity="1.000000" fill-rule="nonzero"/>
		<path id="Fill-132" d="M10.3 12.45L10.3 5.05L11.59 5.05L11.59 11.93L15.27 15.6L14.36 16.51L10.3 12.45Z" stroke="#707070" stroke-opacity="0" stroke-width="1.000000"/>
	</g>
</svg>
