<svg width="21.857422" height="21.857422" viewBox="0 0 21.8574 21.8574" fill="none" xmlns="http://www.w3.org/2000/svg" xmlns:xlink="http://www.w3.org/1999/xlink">
	<desc>
			Created with Pixso.
	</desc>
	<defs/>
	<g style="mix-blend-mode:normal">
		<path id="Path 7" d="M19.67 2.18L17.48 2.18L17.48 0L15.3 0L15.3 2.18L6.55 2.18L6.55 0L4.37 0L4.37 2.18L2.18 2.18C0.97 2.18 0 3.16 0 4.37L0 19.67C0 20.87 0.97 21.85 2.18 21.85L19.67 21.85C20.87 21.85 21.85 20.87 21.85 19.67L21.85 4.37C21.85 3.16 20.87 2.18 19.67 2.18ZM19.67 19.67L2.18 19.67L2.18 8.74L19.67 8.74L19.67 19.67ZM19.67 6.55L2.18 6.55L2.18 4.37L19.67 4.37L19.67 6.55Z" fill="#808080" fill-opacity="1.000000" fill-rule="nonzero"/>
		<path id="Path 7" d="M17.48 2.18L17.48 0L15.3 0L15.3 2.18L6.55 2.18L6.55 0L4.37 0L4.37 2.18L2.18 2.18C0.97 2.18 0 3.16 0 4.37L0 19.67C0 20.87 0.97 21.85 2.18 21.85L19.67 21.85C20.87 21.85 21.85 20.87 21.85 19.67L21.85 4.37C21.85 3.16 20.87 2.18 19.67 2.18L17.48 2.18ZM2.18 19.67L2.18 8.74L19.67 8.74L19.67 19.67L2.18 19.67ZM2.18 6.55L2.18 4.37L19.67 4.37L19.67 6.55L2.18 6.55Z" stroke="#707070" stroke-opacity="0" stroke-width="1.000000"/>
	</g>
	<g style="mix-blend-mode:normal">
		<rect id="Rectangle 17" x="15.312012" y="10.928711" width="1.753320" height="1.753320" fill="#808080" fill-opacity="1.000000"/>
		<rect id="Rectangle 17" x="15.312012" y="10.928711" width="1.753320" height="1.753320" stroke="#707070" stroke-opacity="0" stroke-width="1.000000"/>
	</g>
</svg>
