<svg width="24.049072" height="22.846680" viewBox="0 0 24.0491 22.8467" fill="none" xmlns="http://www.w3.org/2000/svg" xmlns:xlink="http://www.w3.org/1999/xlink">
	<desc>
			Created with Pixso.
	</desc>
	<defs/>
	<g style="mix-blend-mode:normal">
		<path id="Path 355" d="M21.64 4.81L16.83 4.81L16.83 2.4C16.83 1.07 15.75 0 14.42 0L9.61 0C8.29 0 7.21 1.07 7.21 2.4L7.21 4.81L2.4 4.81C1.07 4.81 0.01 5.88 0.01 7.21L0 20.44C0 21.77 1.07 22.84 2.4 22.84L21.64 22.84C22.97 22.84 24.04 21.77 24.04 20.44L24.04 7.21C24.04 5.88 22.97 4.81 21.64 4.81ZM14.42 4.81L9.61 4.81L9.61 2.4L14.42 2.4L14.42 4.81Z" fill="#808080" fill-opacity="1.000000" fill-rule="nonzero"/>
		<path id="Path 355" d="M16.83 4.81L16.83 2.4C16.83 1.07 15.75 0 14.42 0L9.61 0C8.29 0 7.21 1.07 7.21 2.4L7.21 4.81L2.4 4.81C1.07 4.81 0.01 5.88 0.01 7.21L0 20.44C0 21.77 1.07 22.84 2.4 22.84L21.64 22.84C22.97 22.84 24.04 21.77 24.04 20.44L24.04 7.21C24.04 5.88 22.97 4.81 21.64 4.81L16.83 4.81ZM9.61 4.81L9.61 2.4L14.42 2.4L14.42 4.81L9.61 4.81Z" stroke="#707070" stroke-opacity="0" stroke-width="1.000000"/>
	</g>
</svg>
