<svg width="178.000000" height="177.988281" viewBox="0 0 178 177.988" fill="none" xmlns="http://www.w3.org/2000/svg" xmlns:xlink="http://www.w3.org/1999/xlink">
	<desc>
			Created with Pixso.
	</desc>
	<defs/>
	<g style="mix-blend-mode:normal">
		<path id="LEARN MORE ABOUT MODELKOS - -" d="M103.27 160.91C103.5 157.87 104.59 156.41 106.93 155.75L111.54 154.45L116.91 173.48L119.09 172.86L113.66 153.61L102.78 156.69L103.27 160.91ZM98.92 170.68C97.86 167.4 94.49 167.82 92.71 166.07L92.87 168.3C96.74 168.02 98.78 168.67 99.06 172.54L99.39 177.12L97.07 177.29C93.62 177.53 92.14 177.5 90 175.72L90.16 177.98L101.58 177.16L100.14 157.21L88.89 158.03L88.54 162.25C89.36 159.33 90.74 158.12 93.2 157.94L97.98 157.6L98.92 170.68ZM72.6 156.06L70.25 155.68L75.46 176.77L75.65 176.8C78.35 173.53 81.68 168.84 83.81 165.08C84.77 163.39 85.41 161.89 85.74 160.69C86.08 159.45 85.91 158.56 85.21 158.1C85.11 157.97 84.96 157.87 84.79 157.84C83.54 157.58 82.9 158.54 82.15 159.85C80.93 161.75 79.38 164.46 74.55 164.14L72.6 156.06ZM74.6 164.35C79.52 164.65 81.1 161.89 82.36 159.94C83.02 158.73 83.62 157.82 84.73 158.08C84.84 158.17 84.96 158.23 85.1 158.29C85.73 158.62 85.79 159.52 85.55 160.65C85.22 161.83 84.58 163.31 83.62 164.99C81.93 168.05 79.42 171.55 77.18 174.57L74.6 164.35ZM56.34 161.83C53.98 161.08 51.48 161.49 50.32 164.01C48.97 166.95 51.56 169.51 55.35 171.25L59.87 173.33L68.24 155.14L66.21 154.21L59.57 168.64C59.83 167.62 59.9 166.57 59.78 165.53C59.57 163.96 58.76 162.81 57.5 162.23C51.68 159.56 62.07 152.3 52.7 147.99L52.61 148.2C54.33 148.99 54.38 151.38 54.33 154.07C54.25 156.96 53.95 159.98 56.34 161.83ZM52.35 164.95C53.6 162.24 55.54 161.67 57.23 162.33L57.41 162.41C58.6 162.96 59.31 164.19 59.55 165.57C59.75 167.04 59.53 168.72 58.67 170.6L57.94 172.19L55.44 171.04C52.94 169.9 51 167.88 52.35 164.95ZM38.33 162.18L51.05 146.74L49.4 145.39L36.81 160.67C34.45 158.73 34.16 155.51 34.91 151.94C35.9 147.44 38.69 142.4 41.56 138.93L39.92 137.58L27.2 153.01L28.84 154.36L39.18 141.81C37.18 144.9 35.42 148.51 34.75 151.96C33.92 155.54 34.31 158.86 36.69 160.83L38.33 162.18ZM7.48 124.83C10.4 130.07 18.63 127.55 24.58 124.84L14.7 137.76L15.85 139.81L33.3 130.06L33.22 129.91L16.21 139.42L17.45 137.81L29.1 122.54L28.97 122.29C24.47 124.81 13.96 130.16 9.12 126.37L25.98 116.95L24.93 115.07L7.48 124.83ZM3.15 109.92C5.67 114.87 11.71 116.86 16.68 114.36C21.69 111.8 23.7 105.79 21.13 100.89C18.63 95.92 12.51 93.94 7.64 96.5C2.66 98.97 0.59 105.05 3.15 109.92ZM3.36 109.85C1.03 105.36 4.62 100.55 8.64 98.52C12.63 96.55 18.73 96.5 20.95 100.99C23.18 105.41 19.57 110.25 15.62 112.24C11.62 114.27 5.58 114.3 3.36 109.85ZM9.65 82.43C9.56 79.95 8.34 77.73 5.57 77.49C2.36 77.2 0.81 80.5 0.44 84.65L0 89.61L19.94 91.4L20.14 89.17L4.31 87.75C5.36 87.65 6.37 87.37 7.32 86.91C8.72 86.19 9.53 85.04 9.66 83.65C10.23 77.28 20.55 84.63 21.47 74.36L21.24 74.34C21.07 76.23 18.83 77.08 16.28 77.93C13.53 78.82 10.59 79.56 9.65 82.43ZM5.37 79.71C8.34 79.98 9.53 81.62 9.48 83.44L9.46 83.64C9.34 84.93 8.42 86.02 7.19 86.7C5.88 87.38 4.23 87.75 2.17 87.56L0.42 87.41L0.66 84.67C0.91 81.93 2.16 79.43 5.37 79.71ZM10.28 66.03C13.71 66.34 14.65 63.07 16.95 62.12L14.83 61.39C13.57 65.06 12.18 66.68 8.51 65.42L4.17 63.94L4.92 61.74C6.04 58.47 6.66 57.12 9.13 55.85L6.99 55.11L3.28 65.94L22.19 72.42L25.85 61.76L22.09 59.78C24.47 61.67 25.04 63.42 24.24 65.75L22.68 70.28L10.28 66.03ZM39.21 41.52L40.71 39.67L19.83 33.71L19.7 33.86C21.19 37.83 23.6 43.05 25.82 46.76C26.8 48.43 27.78 49.73 28.67 50.63C29.57 51.54 30.43 51.83 31.17 51.45C31.34 51.42 31.5 51.34 31.61 51.22C32.45 50.26 31.94 49.23 31.18 47.92C30.14 45.92 28.56 43.22 31.23 39.19L39.21 41.52ZM31.02 39.13C28.32 43.25 29.92 46 30.99 48.06C31.72 49.23 32.21 50.21 31.43 51.04C31.3 51.09 31.18 51.17 31.07 51.25C30.47 51.64 29.66 51.25 28.79 50.47C27.93 49.6 26.97 48.31 25.98 46.64C24.17 43.65 22.39 39.73 20.87 36.29L31.02 39.13ZM42.38 24.47C43.93 22.71 44.58 20.46 43.06 18.42C41.11 15.81 37.62 16.82 34.22 19.36L30.29 22.3L42.26 38.31L47.64 34.3C51.12 31.66 53.26 28.86 50.53 25.2C48.13 21.98 45.39 22.54 42.38 24.47ZM48.76 26.53C51.82 30.61 49.36 32.72 47.32 34.25L43.92 36.79L34.61 24.34C35.45 25.09 36.3 25.65 37.17 25.96C38.61 26.51 40.06 26.38 41.13 25.58C43.1 24.11 45.73 22.47 48.76 26.53ZM41.29 19.74C43.14 22.21 42.51 24.27 40.99 25.4C39.97 26.16 38.66 26.26 37.27 25.71C35.89 25.25 34.49 24.18 33.32 22.61L32.2 21.12L34.34 19.52C36.51 17.89 39.35 17.15 41.29 19.74ZM54.69 7.56C50.21 10.86 49.24 17.14 52.51 21.64C55.85 26.17 62.11 27.17 66.53 23.84C71.03 20.56 71.98 14.2 68.66 9.81C65.42 5.3 59.08 4.24 54.69 7.56ZM54.8 7.77C58.84 4.73 64.17 7.49 66.84 11.13C69.43 14.74 70.46 20.75 66.4 23.67C62.4 26.6 57.04 23.82 54.43 20.25C51.77 16.63 50.76 10.67 54.8 7.77ZM76.25 1.09L74.02 1.28L75.1 14.01C75.57 19.6 81.41 22.14 86.31 19.91C89.18 18.56 90.52 15.86 90.25 12.72L89.17 0L86.97 0.18C89.04 2.45 89.64 8.51 90 12.74C90.27 15.99 88.86 18.47 86.24 19.69C81.84 21.76 77.72 18.5 77.33 13.82L76.25 1.09ZM99.57 21.12L101.72 21.48L105.01 1.95C107.96 2.48 109.72 2.95 111.33 5.02L111.69 2.85L96.24 0.25L95.88 2.43C98.02 0.98 99.86 1.12 102.85 1.59L99.57 21.12ZM142.9 17.94C137.78 14.8 131.83 21.01 127.96 26.28L130.28 10.18L128.28 8.95L117.81 25.99L117.95 26.07L128.16 9.47L127.85 11.48L125.14 30.49L125.38 30.64C128.08 26.25 134.64 16.45 140.71 17.39L130.59 33.85L132.43 34.97L142.9 17.94ZM153.92 28.77C149.3 25.7 143.06 26.94 139.96 31.55C136.85 36.24 138.05 42.46 142.7 45.47C147.31 48.58 153.62 47.29 156.6 42.67C159.73 38.07 158.55 31.76 153.92 28.77ZM153.77 28.94C158.01 31.7 157.25 37.65 154.74 41.41C152.23 45.08 146.94 48.11 142.81 45.3C138.69 42.54 139.46 36.55 141.92 32.88C144.41 29.14 149.66 26.15 153.77 28.94ZM151.04 59.04C153.33 64.03 159.23 66.21 164.22 63.93C169.3 61.62 171.48 55.68 169.24 50.75L166.56 44.87L148.36 53.17L151.04 59.04ZM167.3 46.97L169.06 50.84C170.85 54.78 168.28 59.78 163.35 62.02C158.43 64.27 153.04 62.89 151.25 58.95L149.48 55.08L167.3 46.97ZM169.03 69.7C165.91 71.14 166.72 74.44 165.2 76.41L167.39 75.99C166.66 72.18 167.06 70.08 170.87 69.34L175.37 68.47L175.81 70.75C176.47 74.14 176.61 75.62 175.1 77.96L177.33 77.53L175.15 66.29L155.52 70.09L157.66 81.16L161.9 81C158.9 80.54 157.53 79.31 157.07 76.89L156.16 72.19L169.03 69.7ZM162 95.86C159.16 94.77 158.07 93.3 158.11 90.87L158.19 86.08L177.96 86.4L178 84.14L158 83.81L157.82 95.11L162 95.86ZM166.77 107.06C165.18 113.29 156.21 104.42 153.66 114.41L153.88 114.47C154.37 112.55 156.7 112.12 159.39 111.66C162.6 111.14 166.01 110.96 166.99 107.11C167.2 106.28 167.07 105.39 166.62 104.65C168.75 106.6 170.38 108.92 172.28 111.68C172.26 111.76 173.88 114.46 173.78 116.48L174.94 111.92C173.53 113.08 171.02 109.43 171.02 109.43C168.3 105.64 165.78 102.8 160.87 100.85L176.73 104.89L177.27 102.81L157.89 97.86L157.36 99.95C160.95 100.87 163.46 102.15 165.53 103.76C166.02 104.15 167.2 105.35 166.77 107.06ZM168.51 128.31C169.75 122.89 166.39 117.5 160.98 116.22C155.49 114.97 150.1 118.29 148.92 123.7C147.64 129.11 151.07 134.56 156.45 135.72C161.85 137.02 167.35 133.69 168.51 128.31ZM168.29 128.23C167.21 133.17 161.37 134.55 156.97 133.53C152.65 132.48 147.95 128.6 149.12 123.74C150.24 118.91 156.12 117.52 160.43 118.53C164.8 119.54 169.45 123.39 168.29 128.23ZM154.1 142.57C151.76 140.35 148.54 141.39 145.47 142.66C138.73 145.37 136.26 143.73 136.42 141.3C136.69 136.64 142.84 133.73 149.85 136.55L147 133.84C141.81 133.34 136.53 137.27 136.1 141.31C135.99 142.61 136.42 143.88 137.53 144.94C139.96 147.24 143.16 146.21 146.25 144.88C153.35 142.09 155.77 144.07 155.29 146.66C154.82 149.8 150.96 153.25 144.78 151.33L146.94 153.38C151.47 154.32 158.69 146.91 154.1 142.57ZM130.94 156.42L130.28 155.23L123.4 159.05L124.06 160.24L130.94 156.42Z" fill="#000000" fill-opacity="1.000000" fill-rule="evenodd"/>
		<path id="LEARN MORE ABOUT MODELKOS - -" d="M106.93 155.75L111.54 154.45L116.91 173.48L119.09 172.86L113.66 153.61L102.78 156.69L103.27 160.91C103.5 157.87 104.59 156.41 106.93 155.75ZM92.71 166.07L92.87 168.3C96.74 168.02 98.78 168.67 99.06 172.54L99.39 177.12L97.07 177.29C93.62 177.53 92.14 177.5 90 175.72L90.16 177.98L101.58 177.16L100.14 157.21L88.89 158.03L88.54 162.25C89.36 159.33 90.74 158.12 93.2 157.94L97.98 157.6L98.92 170.68C97.86 167.4 94.49 167.82 92.71 166.07ZM70.25 155.68L75.46 176.77L75.65 176.8C78.35 173.53 81.68 168.84 83.81 165.08C84.77 163.39 85.41 161.89 85.74 160.69C86.08 159.45 85.91 158.56 85.21 158.1C85.11 157.97 84.96 157.87 84.79 157.84C83.54 157.58 82.9 158.54 82.15 159.85C80.93 161.75 79.38 164.46 74.55 164.14L72.6 156.06L70.25 155.68ZM82.36 159.94C83.02 158.73 83.62 157.82 84.73 158.08C84.84 158.17 84.96 158.23 85.1 158.29C85.73 158.62 85.79 159.52 85.55 160.65C85.22 161.83 84.58 163.31 83.62 164.99C81.93 168.05 79.42 171.55 77.18 174.57L74.6 164.35C79.52 164.65 81.1 161.89 82.36 159.94ZM50.32 164.01C48.97 166.95 51.56 169.51 55.35 171.25L59.87 173.33L68.24 155.14L66.21 154.21L59.57 168.64C59.83 167.62 59.9 166.57 59.78 165.53C59.57 163.96 58.76 162.81 57.5 162.23C51.68 159.56 62.07 152.3 52.7 147.99L52.61 148.2C54.33 148.99 54.38 151.38 54.33 154.07C54.25 156.96 53.95 159.98 56.34 161.83C53.98 161.08 51.48 161.49 50.32 164.01ZM57.23 162.33L57.41 162.41C58.6 162.96 59.31 164.19 59.55 165.57C59.75 167.04 59.53 168.72 58.67 170.6L57.94 172.19L55.44 171.04C52.94 169.9 51 167.88 52.35 164.95C53.6 162.24 55.54 161.67 57.23 162.33ZM51.05 146.74L49.4 145.39L36.81 160.67C34.45 158.73 34.16 155.51 34.91 151.94C35.9 147.44 38.69 142.4 41.56 138.93L39.92 137.58L27.2 153.01L28.84 154.36L39.18 141.81C37.18 144.9 35.42 148.51 34.75 151.96C33.92 155.54 34.31 158.86 36.69 160.83L38.33 162.18L51.05 146.74ZM24.58 124.84L14.7 137.76L15.85 139.81L33.3 130.06L33.22 129.91L16.21 139.42L17.45 137.81L29.1 122.54L28.97 122.29C24.47 124.81 13.96 130.16 9.12 126.37L25.98 116.95L24.93 115.07L7.48 124.83C10.4 130.07 18.63 127.55 24.58 124.84ZM16.68 114.36C21.69 111.8 23.7 105.79 21.13 100.89C18.63 95.92 12.51 93.94 7.64 96.5C2.66 98.97 0.59 105.05 3.15 109.92C5.67 114.87 11.71 116.86 16.68 114.36ZM8.64 98.52C12.63 96.55 18.73 96.5 20.95 100.99C23.18 105.41 19.57 110.25 15.62 112.24C11.62 114.27 5.58 114.3 3.36 109.85C1.03 105.36 4.62 100.55 8.64 98.52ZM5.57 77.49C2.36 77.2 0.81 80.5 0.44 84.65L0 89.61L19.94 91.4L20.14 89.17L4.31 87.75C5.36 87.65 6.37 87.37 7.32 86.91C8.72 86.19 9.53 85.04 9.66 83.65C10.23 77.28 20.55 84.63 21.47 74.36L21.24 74.34C21.07 76.23 18.83 77.08 16.28 77.93C13.53 78.82 10.59 79.56 9.65 82.43C9.56 79.95 8.34 77.73 5.57 77.49ZM9.48 83.44L9.46 83.64C9.34 84.93 8.42 86.02 7.19 86.7C5.88 87.38 4.23 87.75 2.17 87.56L0.42 87.41L0.66 84.67C0.91 81.93 2.16 79.43 5.37 79.71C8.34 79.98 9.53 81.62 9.48 83.44ZM16.95 62.12L14.83 61.39C13.57 65.06 12.18 66.68 8.51 65.42L4.17 63.94L4.92 61.74C6.04 58.47 6.66 57.12 9.13 55.85L6.99 55.11L3.28 65.94L22.19 72.42L25.85 61.76L22.09 59.78C24.47 61.67 25.04 63.42 24.24 65.75L22.68 70.28L10.28 66.03C13.71 66.34 14.65 63.07 16.95 62.12ZM40.71 39.67L19.83 33.71L19.7 33.86C21.19 37.83 23.6 43.05 25.82 46.76C26.8 48.43 27.78 49.73 28.67 50.63C29.57 51.54 30.43 51.83 31.17 51.45C31.34 51.42 31.5 51.34 31.61 51.22C32.45 50.26 31.94 49.23 31.18 47.92C30.14 45.92 28.56 43.22 31.23 39.19L39.21 41.52L40.71 39.67ZM30.99 48.06C31.72 49.23 32.21 50.21 31.43 51.04C31.3 51.09 31.18 51.17 31.07 51.25C30.47 51.64 29.66 51.25 28.79 50.47C27.93 49.6 26.97 48.31 25.98 46.64C24.17 43.65 22.39 39.73 20.87 36.29L31.02 39.13C28.32 43.25 29.92 46 30.99 48.06ZM43.06 18.42C41.11 15.81 37.62 16.82 34.22 19.36L30.29 22.3L42.26 38.31L47.64 34.3C51.12 31.66 53.26 28.86 50.53 25.2C48.13 21.98 45.39 22.54 42.38 24.47C43.93 22.71 44.58 20.46 43.06 18.42ZM47.32 34.25L43.92 36.79L34.61 24.34C35.45 25.09 36.3 25.65 37.17 25.96C38.61 26.51 40.06 26.38 41.13 25.58C43.1 24.11 45.73 22.47 48.76 26.53C51.82 30.61 49.36 32.72 47.32 34.25ZM40.99 25.4C39.97 26.16 38.66 26.26 37.27 25.71C35.89 25.25 34.49 24.18 33.32 22.61L32.2 21.12L34.34 19.52C36.51 17.89 39.35 17.15 41.29 19.74C43.14 22.21 42.51 24.27 40.99 25.4ZM52.51 21.64C55.85 26.17 62.11 27.17 66.53 23.84C71.03 20.56 71.98 14.2 68.66 9.81C65.42 5.3 59.08 4.24 54.69 7.56C50.21 10.86 49.24 17.14 52.51 21.64ZM66.84 11.13C69.43 14.74 70.46 20.75 66.4 23.67C62.4 26.6 57.04 23.82 54.43 20.25C51.77 16.63 50.76 10.67 54.8 7.77C58.84 4.73 64.17 7.49 66.84 11.13ZM74.02 1.28L75.1 14.01C75.57 19.6 81.41 22.14 86.31 19.91C89.18 18.56 90.52 15.86 90.25 12.72L89.17 0L86.97 0.18C89.04 2.45 89.64 8.51 90 12.74C90.27 15.99 88.86 18.47 86.24 19.69C81.84 21.76 77.72 18.5 77.33 13.82L76.25 1.09L74.02 1.28ZM101.72 21.48L105.01 1.95C107.96 2.48 109.72 2.95 111.33 5.02L111.69 2.85L96.24 0.25L95.88 2.43C98.02 0.98 99.86 1.12 102.85 1.59L99.57 21.12L101.72 21.48ZM127.96 26.28L130.28 10.18L128.28 8.95L117.81 25.99L117.95 26.07L128.16 9.47L127.85 11.48L125.14 30.49L125.38 30.64C128.08 26.25 134.64 16.45 140.71 17.39L130.59 33.85L132.43 34.97L142.9 17.94C137.78 14.8 131.83 21.01 127.96 26.28ZM139.96 31.55C136.85 36.24 138.05 42.46 142.7 45.47C147.31 48.58 153.62 47.29 156.6 42.67C159.73 38.07 158.55 31.76 153.92 28.77C149.3 25.7 143.06 26.94 139.96 31.55ZM154.74 41.41C152.23 45.08 146.94 48.11 142.81 45.3C138.69 42.54 139.46 36.55 141.92 32.88C144.41 29.14 149.66 26.15 153.77 28.94C158.01 31.7 157.25 37.65 154.74 41.41ZM164.22 63.93C169.3 61.62 171.48 55.68 169.24 50.75L166.56 44.87L148.36 53.17L151.04 59.04C153.33 64.03 159.23 66.21 164.22 63.93ZM169.06 50.84C170.85 54.78 168.28 59.78 163.35 62.02C158.43 64.27 153.04 62.89 151.25 58.95L149.48 55.08L167.3 46.97L169.06 50.84ZM165.2 76.41L167.39 75.99C166.66 72.18 167.06 70.08 170.87 69.34L175.37 68.47L175.81 70.75C176.47 74.14 176.61 75.62 175.1 77.96L177.33 77.53L175.15 66.29L155.52 70.09L157.66 81.16L161.9 81C158.9 80.54 157.53 79.31 157.07 76.89L156.16 72.19L169.03 69.7C165.91 71.14 166.72 74.44 165.2 76.41ZM158.11 90.87L158.19 86.08L177.96 86.4L178 84.14L158 83.81L157.82 95.11L162 95.86C159.16 94.77 158.07 93.3 158.11 90.87ZM153.66 114.41L153.88 114.47C154.37 112.55 156.7 112.12 159.39 111.66C162.6 111.14 166.01 110.96 166.99 107.11C167.2 106.28 167.07 105.39 166.62 104.65C168.75 106.6 170.38 108.92 172.28 111.68C172.26 111.76 173.88 114.46 173.78 116.48L174.94 111.92C173.53 113.08 171.02 109.43 171.02 109.43C168.3 105.64 165.78 102.8 160.87 100.85L176.73 104.89L177.27 102.81L157.89 97.86L157.36 99.95C160.95 100.87 163.46 102.15 165.53 103.76C166.02 104.15 167.2 105.35 166.77 107.06C165.18 113.29 156.21 104.42 153.66 114.41ZM160.98 116.22C155.49 114.97 150.1 118.29 148.92 123.7C147.64 129.11 151.07 134.56 156.45 135.72C161.85 137.02 167.35 133.69 168.51 128.31C169.75 122.89 166.39 117.5 160.98 116.22ZM156.97 133.53C152.65 132.48 147.95 128.6 149.12 123.74C150.24 118.91 156.12 117.52 160.43 118.53C164.8 119.54 169.45 123.39 168.29 128.23C167.21 133.17 161.37 134.55 156.97 133.53ZM145.47 142.66C138.73 145.37 136.26 143.73 136.42 141.3C136.69 136.64 142.84 133.73 149.85 136.55L147 133.84C141.81 133.34 136.53 137.27 136.1 141.31C135.99 142.61 136.42 143.88 137.53 144.94C139.96 147.24 143.16 146.21 146.25 144.88C153.35 142.09 155.77 144.07 155.29 146.66C154.82 149.8 150.96 153.25 144.78 151.33L146.94 153.38C151.47 154.32 158.69 146.91 154.1 142.57C151.76 140.35 148.54 141.39 145.47 142.66ZM130.28 155.23L123.4 159.05L124.06 160.24L130.94 156.42L130.28 155.23Z" stroke="#707070" stroke-opacity="0" stroke-width="1.000000"/>
	</g>
	<g style="mix-blend-mode:normal">
		<line id="Line 2" x1="113.000000" y1="89.000000" x2="65.000000" y2="89.000000" stroke="#FFFFFF" stroke-opacity="1.000000" stroke-width="2.000000"/>
	</g>
	<g style="mix-blend-mode:normal">
		<line id="Line 3" x1="113.000000" y1="89.000000" x2="105.000000" y2="80.000000" stroke="#FFFFFF" stroke-opacity="1.000000" stroke-width="2.000000"/>
	</g>
	<g style="mix-blend-mode:normal">
		<line id="Line 4" x1="113.000000" y1="89.000000" x2="105.000000" y2="98.000000" stroke="#FFFFFF" stroke-opacity="1.000000" stroke-width="2.000000"/>
	</g>
</svg>
