<svg width="20.454590" height="20.454590" viewBox="0 0 20.4546 20.4546" fill="none" xmlns="http://www.w3.org/2000/svg" xmlns:xlink="http://www.w3.org/1999/xlink">
	<desc>
			Created with Pixso.
	</desc>
	<defs/>
	<g style="mix-blend-mode:normal">
		<path id="XMLID_223_" d="M19.95 17.54L15.62 13.21C16.52 11.87 17.04 10.25 17.04 8.52C17.04 3.82 13.22 0 8.52 0C3.82 0 0 3.82 0 8.52C0 13.22 3.82 17.04 8.52 17.04C10.25 17.04 11.87 16.52 13.21 15.62L17.54 19.95C18.2 20.62 19.29 20.62 19.95 19.95C20.62 19.28 20.62 18.21 19.95 17.54ZM2.55 8.52C2.55 5.23 5.23 2.55 8.52 2.55C11.81 2.55 14.48 5.23 14.48 8.52C14.48 11.81 11.81 14.48 8.52 14.48C5.23 14.48 2.55 11.81 2.55 8.52Z" fill="#808080" fill-opacity="1.000000" fill-rule="nonzero"/>
		<path id="XMLID_223_" d="M15.62 13.21C16.52 11.87 17.04 10.25 17.04 8.52C17.04 3.82 13.22 0 8.52 0C3.82 0 0 3.82 0 8.52C0 13.22 3.82 17.04 8.52 17.04C10.25 17.04 11.87 16.52 13.21 15.62L17.54 19.95C18.2 20.62 19.29 20.62 19.95 19.95C20.62 19.28 20.62 18.21 19.95 17.54L15.62 13.21ZM8.52 2.55C11.81 2.55 14.48 5.23 14.48 8.52C14.48 11.81 11.81 14.48 8.52 14.48C5.23 14.48 2.55 11.81 2.55 8.52C2.55 5.23 5.23 2.55 8.52 2.55Z" stroke="#707070" stroke-opacity="0" stroke-width="1.000000"/>
	</g>
</svg>
