<svg width="34.081299" height="22.863281" viewBox="0 0 34.0813 22.8633" fill="none" xmlns="http://www.w3.org/2000/svg" xmlns:xlink="http://www.w3.org/1999/xlink">
	<desc>
			Created with Pixso.
	</desc>
	<defs/>
	<g style="mix-blend-mode:normal">
		<path id="Shape" d="M14.68 0L13.16 0L13.16 6.96L0.99 0.88C0.43 1.43 0.08 2.16 0.02 2.94L9.36 7.62L5.96 7.62L0 4.64L0 5.5L4.25 7.63L0 7.63L0 9.15L14.7 9.15L14.68 0Z" fill="#FFFFFF" fill-opacity="1.000000" fill-rule="nonzero"/>
		<path id="Shape" d="M13.16 0L13.16 6.96L0.99 0.88C0.43 1.43 0.08 2.16 0.02 2.94L9.36 7.62L5.96 7.62L0 4.64L0 5.5L4.25 7.63L0 7.63L0 9.15L14.7 9.15L14.68 0L13.16 0Z" stroke="#707070" stroke-opacity="0" stroke-width="1.000000"/>
	</g>
	<g style="mix-blend-mode:normal">
		<path id="Shape" d="M33.01 22C33.59 21.47 33.96 20.74 34.04 19.96L24.59 15.24L28 15.24L34.06 18.27L34.06 17.42L29.68 15.24L34.06 15.24L34.06 13.71L19.27 13.71L19.27 22.86L20.8 22.86L20.8 15.89L33.01 22Z" fill="#FFFFFF" fill-opacity="1.000000" fill-rule="nonzero"/>
		<path id="Shape" d="M34.04 19.96L24.59 15.24L28 15.24L34.06 18.27L34.06 17.42L29.68 15.24L34.06 15.24L34.06 13.71L19.27 13.71L19.27 22.86L20.8 22.86L20.8 15.89L33.01 22C33.59 21.47 33.96 20.74 34.04 19.96Z" stroke="#707070" stroke-opacity="0" stroke-width="1.000000"/>
	</g>
	<g style="mix-blend-mode:normal">
		<path id="Shape" d="M20.78 0L19.27 0L19.27 9.14L34.08 9.14L34.08 7.62L29.7 7.62L34.08 5.44L34.08 3.21C34.08 3.1 34.08 2.99 34.08 2.89L24.62 7.61L21.21 7.61L33.56 1.44C33.42 1.22 33.26 1.02 33.07 0.84L20.78 6.96L20.78 0Z" fill="#FFFFFF" fill-opacity="1.000000" fill-rule="nonzero"/>
		<path id="Shape" d="M19.27 0L19.27 9.14L34.08 9.14L34.08 7.62L29.7 7.62L34.08 5.44L34.08 3.21C34.08 3.1 34.08 2.99 34.08 2.89L24.62 7.61L21.21 7.61L33.56 1.44C33.42 1.22 33.26 1.02 33.07 0.84L20.78 6.96L20.78 0L19.27 0Z" stroke="#707070" stroke-opacity="0" stroke-width="1.000000"/>
	</g>
	<g style="mix-blend-mode:normal">
		<path id="Shape" d="M0 13.71L0 15.24L4.24 15.24L0 17.36L0 19.62C0 19.71 0 19.81 0 19.9L9.34 15.23L12.75 15.23L0.49 21.36C0.63 21.58 0.79 21.78 0.98 21.96L13.14 15.88L13.14 22.85L14.67 22.85L14.67 13.71L0 13.71Z" fill="#FFFFFF" fill-opacity="1.000000" fill-rule="nonzero"/>
		<path id="Shape" d="M0 15.24L4.24 15.24L0 17.36L0 19.62C0 19.71 0 19.81 0 19.9L9.34 15.23L12.75 15.23L0.49 21.36C0.63 21.58 0.79 21.78 0.98 21.96L13.14 15.88L13.14 22.85L14.67 22.85L14.67 13.71L0 13.71L0 15.24Z" stroke="#707070" stroke-opacity="0" stroke-width="1.000000"/>
	</g>
	<g style="mix-blend-mode:normal">
		<path id="Shape" d="M34.06 13.71L34.06 9.14L19.26 9.14L19.26 0L14.68 0L14.68 9.14L0 9.14L0 13.71L14.68 13.71L14.68 22.85L19.26 22.85L19.26 13.71L34.06 13.71Z" fill="#EC5565" fill-opacity="1.000000" fill-rule="nonzero"/>
		<path id="Shape" d="M34.06 9.14L19.26 9.14L19.26 0L14.68 0L14.68 9.14L0 9.14L0 13.71L14.68 13.71L14.68 22.85L19.26 22.85L19.26 13.71L34.06 13.71L34.06 9.14Z" stroke="#707070" stroke-opacity="0" stroke-width="1.000000"/>
	</g>
	<g style="mix-blend-mode:normal">
		<path id="Shape" d="M9.35 7.62L0 2.94C0 3.03 0 3.12 0 3.21L0 4.64L5.96 7.61L9.35 7.62Z" fill="#EC5565" fill-opacity="1.000000" fill-rule="nonzero"/>
		<path id="Shape" d="M0 2.94C0 3.03 0 3.12 0 3.21L0 4.64L5.96 7.61L9.35 7.62L0 2.94Z" stroke="#707070" stroke-opacity="0" stroke-width="1.000000"/>
	</g>
	<g style="mix-blend-mode:normal">
		<path id="Shape" d="M24.59 7.62L34.05 2.89C34 2.37 33.82 1.87 33.53 1.43L21.18 7.61L24.59 7.62Z" fill="#EC5565" fill-opacity="1.000000" fill-rule="nonzero"/>
		<path id="Shape" d="M34.05 2.89C34 2.37 33.82 1.87 33.53 1.43L21.18 7.61L24.59 7.62L34.05 2.89Z" stroke="#707070" stroke-opacity="0" stroke-width="1.000000"/>
	</g>
	<g style="mix-blend-mode:normal">
		<path id="Shape" d="M24.59 15.24L34.04 19.96C34.05 19.85 34.05 19.73 34.04 19.62L34.04 18.27L28 15.24L24.59 15.24Z" fill="#EC5565" fill-opacity="1.000000" fill-rule="nonzero"/>
		<path id="Shape" d="M34.04 19.96C34.05 19.85 34.05 19.73 34.04 19.62L34.04 18.27L28 15.24L24.59 15.24L34.04 19.96Z" stroke="#707070" stroke-opacity="0" stroke-width="1.000000"/>
	</g>
	<g style="mix-blend-mode:normal">
		<path id="Shape" d="M9.35 15.24L0 19.91C0.05 20.43 0.21 20.93 0.49 21.37L12.76 15.24L9.35 15.24Z" fill="#EC5565" fill-opacity="1.000000" fill-rule="nonzero"/>
		<path id="Shape" d="M0 19.91C0.05 20.43 0.21 20.93 0.49 21.37L12.76 15.24L9.35 15.24L0 19.91Z" stroke="#707070" stroke-opacity="0" stroke-width="1.000000"/>
	</g>
	<g style="mix-blend-mode:normal">
		<path id="Shape" d="M20.78 6.96L33.03 0.84C32.51 0.36 31.85 0.07 31.16 0L20.78 0L20.78 6.96Z" fill="#4658A9" fill-opacity="1.000000" fill-rule="nonzero"/>
		<path id="Shape" d="M33.03 0.84C32.51 0.36 31.85 0.07 31.16 0L20.78 0L20.78 6.96L33.03 0.84Z" stroke="#707070" stroke-opacity="0" stroke-width="1.000000"/>
	</g>
	<g style="mix-blend-mode:normal">
		<path id="Shape" d="M34.06 17.41L34.06 15.23L29.7 15.23L34.06 17.41Z" fill="#4658A9" fill-opacity="1.000000" fill-rule="nonzero"/>
		<path id="Shape" d="M34.06 15.23L29.7 15.23L34.06 17.41L34.06 15.23Z" stroke="#707070" stroke-opacity="0" stroke-width="1.000000"/>
	</g>
	<g style="mix-blend-mode:normal">
		<path id="Shape" d="M34.06 7.62L34.06 5.43L29.7 7.62L34.06 7.62Z" fill="#4658A9" fill-opacity="1.000000" fill-rule="nonzero"/>
		<path id="Shape" d="M34.06 5.43L29.7 7.62L34.06 7.62L34.06 5.43Z" stroke="#707070" stroke-opacity="0" stroke-width="1.000000"/>
	</g>
	<g style="mix-blend-mode:normal">
		<path id="Shape" d="M1 21.96C1.6 22.54 2.4 22.85 3.23 22.85L13.16 22.85L13.16 15.88L1 21.96Z" fill="#4658A9" fill-opacity="1.000000" fill-rule="nonzero"/>
		<path id="Shape" d="M3.23 22.85L13.16 22.85L13.16 15.88L1 21.96C1.6 22.54 2.4 22.85 3.23 22.85Z" stroke="#707070" stroke-opacity="0" stroke-width="1.000000"/>
	</g>
	<g style="mix-blend-mode:normal">
		<path id="Shape" d="M20.78 15.88L20.78 22.85L30.83 22.85C31.64 22.85 32.42 22.55 33.01 22L20.78 15.88Z" fill="#4658A9" fill-opacity="1.000000" fill-rule="nonzero"/>
		<path id="Shape" d="M20.78 22.85L30.83 22.85C31.64 22.85 32.42 22.55 33.01 22L20.78 15.88L20.78 22.85Z" stroke="#707070" stroke-opacity="0" stroke-width="1.000000"/>
	</g>
	<g style="mix-blend-mode:normal">
		<path id="Shape" d="M13.16 0L2.9 0C2.18 0.07 1.51 0.38 0.99 0.88L13.16 6.96L13.16 0Z" fill="#4658A9" fill-opacity="1.000000" fill-rule="nonzero"/>
		<path id="Shape" d="M2.9 0C2.18 0.07 1.51 0.38 0.99 0.88L13.16 6.96L13.16 0L2.9 0Z" stroke="#707070" stroke-opacity="0" stroke-width="1.000000"/>
	</g>
	<g style="mix-blend-mode:normal">
		<path id="Shape" d="M0 15.23L0 17.35L4.24 15.23L0 15.23Z" fill="#4658A9" fill-opacity="1.000000" fill-rule="nonzero"/>
		<path id="Shape" d="M0 17.35L4.24 15.23L0 15.23L0 17.35Z" stroke="#707070" stroke-opacity="0" stroke-width="1.000000"/>
	</g>
	<g style="mix-blend-mode:normal">
		<path id="Shape" d="M0 5.49L0 7.62L4.24 7.62L0 5.49Z" fill="#4658A9" fill-opacity="1.000000" fill-rule="nonzero"/>
		<path id="Shape" d="M0 7.62L4.24 7.62L0 5.49L0 7.62Z" stroke="#707070" stroke-opacity="0" stroke-width="1.000000"/>
	</g>
</svg>
