<svg width="77.143555" height="59.731445" viewBox="0 0 77.1436 59.7314" fill="none" xmlns="http://www.w3.org/2000/svg" xmlns:xlink="http://www.w3.org/1999/xlink">
	<desc>
			Created with Pixso.
	</desc>
	<defs/>
	<g style="mix-blend-mode:normal">
		<path id="Path 323" d="M1.6 57.14C1.49 56.75 1.49 55.96 1.49 55.4C1.54 53.49 4.02 40.82 4.19 40.42C4.24 40.48 11.28 14.64 22.94 7.66C28.79 4.16 32.23 1.35 40.39 1.46C62.12 2.25 80.31 49.77 74.28 55.85C74.23 55.96 73.55 57.03 72.65 56.36C80.87 49.71 56.1 50.28 54.24 50.28C42.25 50.28 8.64 60.18 1.6 57.14ZM3.57 37.78C3.51 40.08 -1.89 57.31 0.7 58.61C4.07 60.3 22.43 57.37 29.02 56.02C33.8 55 49.46 51.63 53.85 51.68C57.45 51.74 70.34 50.95 72.26 54.39C70.46 59.17 49.4 56.69 43.66 56.58L30.2 56.41C29.69 56.41 29.35 56.53 29.02 56.75L29.02 57.54C35.32 60.18 45.74 57.88 52.38 58.89C56.21 59.51 70.79 60.75 73.72 58.1C86.9 45.66 59.08 0.56 39.32 0C20.46 -0.28 7.68 21.96 3.57 37.78Z" fill="#1D1D1D" fill-opacity="1.000000" fill-rule="evenodd"/>
		<path id="Path 323" d="M1.49 55.4C1.54 53.49 4.02 40.82 4.19 40.42C4.24 40.48 11.28 14.64 22.94 7.66C28.79 4.16 32.23 1.35 40.39 1.46C62.12 2.25 80.31 49.77 74.28 55.85C74.23 55.96 73.55 57.03 72.65 56.36C80.87 49.71 56.1 50.28 54.24 50.28C42.25 50.28 8.64 60.18 1.6 57.14C1.49 56.75 1.49 55.96 1.49 55.4ZM0.7 58.61C4.07 60.3 22.43 57.37 29.02 56.02C33.8 55 49.46 51.63 53.85 51.68C57.45 51.74 70.34 50.95 72.26 54.39C70.46 59.17 49.4 56.69 43.66 56.58L30.2 56.41C29.69 56.41 29.35 56.53 29.02 56.75L29.02 57.54C35.32 60.18 45.74 57.88 52.38 58.89C56.21 59.51 70.79 60.75 73.72 58.1C86.9 45.66 59.08 0.56 39.32 0C20.46 -0.28 7.68 21.96 3.57 37.78C3.51 40.08 -1.89 57.31 0.7 58.61Z" stroke="#707070" stroke-opacity="0" stroke-width="1.000000"/>
	</g>
	<g style="mix-blend-mode:normal">
		<path id="Path 324" d="M27.63 42.46L19.79 37.87L19.79 17.32L38.18 27.59L56.56 17.32L56.56 39.22L50.34 42.46L50.34 30.84L39.26 36.78L27.63 30.84L27.63 42.46Z" fill="#1D1D1D" fill-opacity="1.000000" fill-rule="nonzero"/>
		<path id="Path 324" d="M19.79 37.87L19.79 17.32L38.18 27.59L56.56 17.32L56.56 39.22L50.34 42.46L50.34 30.84L39.26 36.78L27.63 30.84L27.63 42.46L19.79 37.87Z" stroke="#707070" stroke-opacity="0" stroke-width="1.000000"/>
	</g>
</svg>
