<svg width="13.738403" height="17.704407" viewBox="0 0 13.7384 17.7044" fill="none" xmlns="http://www.w3.org/2000/svg" xmlns:xlink="http://www.w3.org/1999/xlink">
	<desc>
			Created with Pixso.
	</desc>
	<defs/>
	<g style="mix-blend-mode:normal">
		<path id="Path 8" d="M13.23 6.86C13.23 3.34 10.39 0.5 6.86 0.5C3.34 0.5 0.5 3.34 0.5 6.86C0.5 10.39 6.86 16.98 6.86 16.98C6.86 16.98 13.23 10.39 13.23 6.86ZM3.9 6.74C3.9 5.12 5.24 3.77 6.86 3.77C8.49 3.77 9.83 5.08 9.83 6.74C9.83 8.36 8.52 9.71 6.86 9.71C5.24 9.71 3.9 8.36 3.9 6.74Z" fill="#000000" fill-opacity="0" fill-rule="nonzero"/>
		<path id="Path 8" d="M6.86 0.5C3.34 0.5 0.5 3.34 0.5 6.86C0.5 10.39 6.86 16.98 6.86 16.98C6.86 16.98 13.23 10.39 13.23 6.86C13.23 3.34 10.39 0.5 6.86 0.5ZM6.86 3.77C8.49 3.77 9.83 5.08 9.83 6.74C9.83 8.36 8.52 9.71 6.86 9.71C5.24 9.71 3.9 8.36 3.9 6.74C3.9 5.12 5.24 3.77 6.86 3.77Z" stroke="#707070" stroke-opacity="1.000000" stroke-width="1.000000"/>
	</g>
</svg>
