<svg width="14.992432" height="17.301453" viewBox="0 0 14.9924 17.3015" fill="none" xmlns="http://www.w3.org/2000/svg" xmlns:xlink="http://www.w3.org/1999/xlink">
	<desc>
			Created with Pixso.
	</desc>
	<defs/>
	<g style="mix-blend-mode:normal">
		<path id="Path 20" d="M14.49 0.5C9.59 0.5 8.11 7.35 7.68 12.66L2.41 0.5L0.5 0.5L0.5 16.8L0.63 16.8L0.63 0.91L1.28 2.43L7.51 16.8L7.75 16.8C7.75 12.59 8.11 2.99 12.73 1.05L12.73 16.8L14.49 16.8L14.49 0.5Z" fill="#808080" fill-opacity="1.000000" fill-rule="nonzero"/>
		<path id="Path 20" d="M7.68 12.66L2.41 0.5L0.5 0.5L0.5 16.8L0.63 16.8L0.63 0.91L1.28 2.43L7.51 16.8L7.75 16.8C7.75 12.59 8.11 2.99 12.73 1.05L12.73 16.8L14.49 16.8L14.49 0.5C9.59 0.5 8.11 7.35 7.68 12.66Z" stroke="#808080" stroke-opacity="1.000000" stroke-width="1.000000"/>
	</g>
</svg>
