<svg width="371.370605" height="376.145020" viewBox="0 0 371.371 376.145" fill="none" xmlns="http://www.w3.org/2000/svg" xmlns:xlink="http://www.w3.org/1999/xlink">
	<desc>
			Created with Pixso.
	</desc>
	<defs/>
	<g opacity="0.240000" style="mix-blend-mode:normal">
		<path id="MODELKOS - AGENCY - MODELING - ACADEMY- " d="M151.01 372.97C160.85 374.08 165.37 360.64 167.46 350.07L175.28 375.71L179.13 376.14L182.82 343.39L182.54 343.36L178.94 375.28L177.99 372.07L168.72 341.8L168.25 341.74C167.3 350.19 164.38 369.4 154.66 372.25L158.23 340.61L154.71 340.21L151.01 372.97ZM129.12 366.42C138.25 367.05 146.17 360.18 146.86 351.05C147.48 341.78 140.68 333.86 131.58 333.34C127.19 333.01 122.86 334.45 119.55 337.34C116.24 340.22 114.21 344.31 113.94 348.7C113.21 357.83 120.05 365.92 129.12 366.42ZM129.19 366.05C120.87 365.56 117.11 356.41 117.64 348.98C118.23 341.68 123.34 333.02 131.56 333.68C139.7 334.26 143.49 343.48 142.96 350.75C142.44 358.13 137.37 366.7 129.19 366.05ZM108.04 321.69C100.26 316.97 90.12 319.44 85.39 327.23C80.67 335.01 83.15 345.14 90.93 349.87L100.03 355.39L117.13 327.21L108.04 321.69ZM97.09 353.22L91.1 349.58C84.99 345.88 83.86 336.67 88.49 329.05C93.12 321.43 101.74 318.3 107.84 322.01L113.83 325.64L97.09 353.22ZM74.39 325.17C77 320.14 72.6 316.66 72.58 312.56L70.16 315.33C74.97 319.54 76.57 322.68 72.36 327.5L67.38 333.19L64.5 330.67C60.21 326.92 58.54 325.14 58.13 320.57L55.67 323.38L69.87 335.8L91.57 310.99L77.58 298.76L72.23 303.25C76.6 300.81 79.62 301.04 82.68 303.71L88.62 308.91L74.39 325.17ZM56.42 285.09C61.14 283.36 64.06 284 66.66 287.07L71.76 293.09L46.89 314.15L49.3 317L74.46 295.7L62.42 281.48L56.42 285.09ZM38.41 277.57C33.08 268.41 53.86 268.48 45.32 253.79L44.99 253.97C46.64 256.8 44.39 260 41.76 263.64C38.6 267.96 34.8 272.11 38.09 277.76C38.8 278.99 39.99 279.88 41.37 280.23C36.61 280.41 32.01 279.57 26.59 278.51C26.52 278.39 21.5 277.1 19.29 274.6L23.19 281.3C23.5 278.31 30.68 279.7 30.68 279.7C38.25 281.02 44.5 281.44 52.53 278.06L29.2 291.63L30.99 294.7L59.48 278.12L57.69 275.05C52.4 278.13 47.97 279.52 43.68 280.02C42.66 280.13 39.87 280.08 38.41 277.57ZM11.93 256.89C17.23 264.36 27.56 266.14 35.06 260.89C42.63 255.5 44.45 245.22 39.09 237.84C36.56 234.25 32.71 231.81 28.38 231.07C24.04 230.33 19.6 231.36 16.03 233.92C8.5 239.15 6.58 249.56 11.93 256.89ZM12.27 256.72C7.38 249.97 12.07 241.26 18.15 236.97C24.18 232.81 34.12 231.27 38.81 238.05C43.52 244.72 38.79 253.48 32.83 257.68C26.79 261.95 16.94 263.45 12.27 256.72ZM9.99 225.45C15.25 224.63 17.11 219.37 18.55 214.09C21.79 202.56 26.41 200.98 29.42 203.63C35.23 208.66 32.85 219.63 22.12 225.95L28.53 224.94C34.4 218.67 34.58 207.82 29.73 203.19C28.06 201.67 25.77 201.02 23.55 201.43C18.1 202.29 16.23 207.5 14.86 212.87C11.38 224.95 6.36 226.12 3.44 222.9C-0.18 219.12 -0.81 210.62 7.91 204.47L3.07 205.23C-2.72 210.21 -0.29 227.08 9.99 225.45ZM14.16 182.66L16.39 182.81L17.3 169.86L15.06 169.71L14.16 182.66ZM41.21 133.04L42.38 129.29L6.75 132.76L6.65 133.07C11.34 138.26 18.19 144.81 23.82 149.17C25.88 150.83 28.13 152.24 30.53 153.37C32.46 154.22 33.95 154.15 34.86 153.12C35.11 152.98 35.3 152.77 35.4 152.5C36.12 150.53 34.71 149.25 32.74 147.71C29.94 145.26 25.89 142.09 27.55 134.29L41.21 133.04ZM27.2 134.33C25.54 142.27 29.66 145.52 32.54 148.04C34.37 149.39 35.7 150.59 35.01 152.33C34.85 152.5 34.71 152.68 34.59 152.89C33.9 153.84 32.42 153.72 30.62 153.06C28.26 151.93 26.04 150.53 24.01 148.88C19.43 145.39 14.32 140.46 9.91 136.1L27.2 134.33ZM50.99 104.97C51.62 106.83 51.71 108.83 51.25 110.74C49.55 118.64 39.86 121.28 32.66 119.63C25.52 117.96 17.8 111.57 19.52 103.51C21.66 93.47 33.32 93.91 33.93 93.97L29.62 91.72C29.62 91.72 21.44 92.98 19.22 103.4C18.23 107.71 19.01 112.23 21.37 115.97C23.73 119.7 27.49 122.34 31.8 123.29C40.79 125.24 49.76 119.65 51.5 110.76C52.33 107.43 52.03 103.93 50.65 100.79L41.99 96.28L33.75 112.09L36.94 113.75C35.78 109.41 38.05 104.64 40.69 99.59L50.99 104.97ZM42.75 84.53C47.92 86.85 51.14 82.25 55.24 82L52.33 79.74C48.4 84.79 45.36 86.57 40.31 82.64L34.34 78L36.69 74.98C40.19 70.48 41.86 68.71 46.4 68.04L43.45 65.75L31.87 80.64L57.9 100.87L69.31 86.2L64.51 81.11C67.2 85.33 67.15 88.37 64.65 91.57L59.81 97.8L42.75 84.53ZM49.68 58.62L72.08 82.8L74.65 80.42L52.47 56.48C56.16 53.05 61.47 53.29 67.15 55.29C74.28 57.91 81.9 63.58 86.94 69.03L89.51 66.65L67.11 42.47L64.54 44.85L82.76 64.51C78.15 60.57 72.64 56.89 67.16 55.03C61.49 52.9 55.98 52.78 52.24 56.24L49.68 58.62ZM85.64 30.64C92.79 22.85 102.94 29.75 102.94 29.75L100.38 25.62C100.38 25.62 92.74 22.5 85.39 30.41C79.11 37.04 79.53 47.55 86.14 53.88C92.96 60.09 103.33 59.99 109.56 53.11C111.91 50.65 113.43 47.5 113.88 44.12L110.75 39.08C112.85 43.71 113.02 49.04 109.35 52.96C103.74 58.96 94.14 56.23 88.71 51.19C83.46 46.1 80.01 36.71 85.64 30.64ZM128.45 12.02C128.45 11.11 129.48 8.86 130.58 8.34L125.66 10.24C126.52 10.01 128.24 10.3 128.02 12.44L126.23 29.15L120.93 25.05L109.86 16.37L105.94 17.88L123.48 31.62L128.49 44.55L131.93 43.22L126.57 29.37L128.45 12.02ZM156.18 18.79L156.49 21.01L169.34 19.23L169.03 17.02L156.18 18.79ZM219.25 2.9C209.4 1.88 205 15.37 203.02 25.96L194.96 0.39L191.1 0L187.72 32.78L188 32.81L191.29 0.86L192.28 4.06L201.84 34.24L202.3 34.29C203.17 25.84 205.91 6.59 215.6 3.65L212.33 35.33L215.86 35.69L219.25 2.9ZM241.22 9.25C232.08 8.7 224.21 15.64 223.62 24.78C223.08 34.05 229.95 41.91 239.06 42.35C243.45 42.64 247.76 41.16 251.05 38.24C254.34 35.33 256.32 31.22 256.56 26.83C257.2 17.69 250.28 9.67 241.22 9.25ZM241.14 9.62C249.47 10.04 253.32 19.15 252.85 26.58C252.33 33.88 247.3 42.59 239.08 42.01C230.93 41.5 227.05 32.33 227.51 25.05C227.97 17.67 232.96 9.05 241.14 9.62ZM262.71 53.78C270.53 58.43 280.65 55.86 285.3 48.03C289.95 40.21 287.37 30.09 279.55 25.44L270.39 20L253.56 48.34L262.71 53.78ZM273.36 22.15L279.38 25.72C285.52 29.37 286.74 38.57 282.18 46.23C277.62 53.9 269.04 57.11 262.9 53.46L256.88 49.88L273.36 22.15ZM296.32 49.97C293.76 55.03 298.19 58.47 298.24 62.57L300.64 59.77C295.79 55.61 294.16 52.49 298.33 47.63L303.25 41.89L306.16 44.39C310.48 48.1 312.17 49.85 312.62 54.42L315.05 51.59L300.73 39.3L279.27 64.32L293.37 76.42L298.69 71.88C294.34 74.36 291.31 74.16 288.23 71.51L282.24 66.38L296.32 49.97ZM314.66 89.88C309.96 91.66 307.03 91.05 304.41 88.01L299.25 82.04L323.92 60.74L321.48 57.91L296.53 79.45L308.7 93.55L314.66 89.88ZM311.14 97.22L313.16 100.08L340.07 81.04L338.05 78.18L311.14 97.22ZM344.19 86.56L315.38 102.56L317.08 105.62L345.61 89.78C348.06 94.19 346.57 99.29 343.27 104.32C339.03 110.63 331.7 116.67 325.21 120.28L326.92 123.34L355.73 107.34L354.03 104.28L330.6 117.28C335.53 113.75 340.41 109.27 343.53 104.4C346.94 99.4 348.37 94.07 345.9 89.62L344.19 86.56ZM339.81 149.67C338.04 148.82 336.55 147.48 335.5 145.82C331.04 139.07 335.94 130.31 342.15 126.31C348.33 122.38 358.31 121.34 362.86 128.2C368.54 136.75 360.06 144.78 359.6 145.18L364.22 143.67C364.22 143.67 369.05 136.94 363.15 128.06C360.76 124.34 356.99 121.73 352.67 120.81C348.35 119.89 343.83 120.73 340.13 123.14C332.45 128.2 330.18 138.52 335.31 145.98C337.11 148.9 339.82 151.14 343.03 152.35L352.31 149.32L346.78 132.37L343.36 133.48C347.28 135.69 349.09 140.65 350.86 146.06L339.81 149.67ZM356.87 169.1L354.63 169.27L355.58 182.21L357.82 182.05L356.87 169.1ZM337.16 222.07L336.54 225.95L371.31 217.46L371.37 217.14C365.99 212.67 358.28 207.16 352.09 203.64C349.81 202.29 347.38 201.21 344.85 200.43C342.82 199.86 341.35 200.14 340.6 201.3C340.37 201.47 340.21 201.71 340.15 201.98C339.72 204.04 341.3 205.1 343.46 206.35C346.59 208.37 351.04 210.95 350.5 218.9L337.16 222.07ZM350.85 218.81C351.36 210.72 346.82 208.08 343.62 206C341.62 204.92 340.12 203.92 340.56 202.1C340.7 201.91 340.81 201.7 340.9 201.49C341.45 200.44 342.93 200.35 344.8 200.75C347.3 201.53 349.7 202.61 351.95 203.95C356.97 206.76 362.73 210.91 367.71 214.61L350.85 218.81ZM362.79 248.18C362.08 258.73 349.85 259.7 349.85 259.7L354.43 261.32C354.43 261.32 362.34 258.97 363.13 248.2C363.87 239.1 356.98 231.17 347.85 230.36C338.65 229.78 330.63 236.35 330.07 245.61C329.77 249.01 330.56 252.41 332.33 255.33L337.92 257.31C333.38 255.01 329.91 250.96 330.32 245.6C330.95 237.4 340.14 233.53 347.53 234.06C354.81 234.76 363.38 239.92 362.79 248.18ZM313.7 275.86L311.69 279.22L347.13 284.21L347.3 283.93C343.96 277.79 338.84 269.81 334.38 264.25C332.77 262.15 330.91 260.25 328.85 258.59C327.17 257.31 325.7 257.03 324.57 257.82C324.3 257.9 324.07 258.07 323.91 258.3C322.75 260.05 323.82 261.62 325.37 263.58C327.52 266.62 330.71 270.65 327.27 277.85L313.7 275.86ZM327.62 277.89C331.1 270.56 327.85 266.44 325.64 263.31C324.18 261.57 323.16 260.08 324.24 258.56C324.44 258.43 324.62 258.29 324.78 258.12C325.68 257.34 327.09 257.81 328.68 258.87C330.71 260.53 332.54 262.41 334.14 264.49C337.77 268.96 341.58 274.94 344.84 280.22L327.62 277.89ZM302.55 289.82C296.44 296.56 296.96 306.98 303.7 313.1C310.45 319.21 320.87 318.69 326.98 311.95L334.13 304.06L309.7 281.92L302.55 289.82ZM331.44 306.54L326.74 311.73C321.94 317.02 312.69 316.39 306.08 310.4C299.48 304.41 298.03 295.36 302.83 290.07L307.53 284.88L331.44 306.54ZM299.62 323.51C295.16 319.99 290.91 323.66 286.88 322.89L289.15 325.8C294.2 321.87 297.58 320.89 301.51 325.94L306.16 331.9L303.14 334.26C298.65 337.76 296.58 339.07 292.02 338.6L294.32 341.55L309.2 329.95L288.94 303.95L274.27 315.37L277.68 321.49C276.1 316.73 276.9 313.8 280.1 311.3L286.32 306.46L299.62 323.51ZM261.24 360.52C269.99 355.89 266.15 342.24 261.91 332.33L282.82 349.11L286.25 347.29L270.84 318.16L270.59 318.29L285.61 346.68L283.01 344.57L258.3 324.79L257.88 325.01C261.85 332.52 270.27 350.04 263.85 357.87L248.97 329.72L245.83 331.38L261.24 360.52ZM229.21 368.24C229.13 369.14 227.93 371.31 226.79 371.74L231.85 370.24C230.97 370.4 229.29 369.98 229.68 367.86L232.79 351.34L237.75 355.86L248.09 365.4L252.12 364.2L235.73 349.1L231.78 335.82L228.24 336.87L232.48 351.1L229.21 368.24ZM216.45 357.29L216.13 355.07L203.28 356.9L203.6 359.11L216.45 357.29Z" fill="#1D1D1D" fill-opacity="1.000000" fill-rule="evenodd"/>
		<path id="MODELKOS - AGENCY - MODELING - ACADEMY- " d="M167.46 350.07L175.28 375.71L179.13 376.14L182.82 343.39L182.54 343.36L178.94 375.28L177.99 372.07L168.72 341.8L168.25 341.74C167.3 350.19 164.38 369.4 154.66 372.25L158.23 340.61L154.71 340.21L151.01 372.97C160.85 374.08 165.37 360.64 167.46 350.07ZM146.86 351.05C147.48 341.78 140.68 333.86 131.58 333.34C127.19 333.01 122.86 334.45 119.55 337.34C116.24 340.22 114.21 344.31 113.94 348.7C113.21 357.83 120.05 365.92 129.12 366.42C138.25 367.05 146.17 360.18 146.86 351.05ZM117.64 348.98C118.23 341.68 123.34 333.02 131.56 333.68C139.7 334.26 143.49 343.48 142.96 350.75C142.44 358.13 137.37 366.7 129.19 366.05C120.87 365.56 117.11 356.41 117.64 348.98ZM85.39 327.23C80.67 335.01 83.15 345.14 90.93 349.87L100.03 355.39L117.13 327.21L108.04 321.69C100.26 316.97 90.12 319.44 85.39 327.23ZM91.1 349.58C84.99 345.88 83.86 336.67 88.49 329.05C93.12 321.43 101.74 318.3 107.84 322.01L113.83 325.64L97.09 353.22L91.1 349.58ZM72.58 312.56L70.16 315.33C74.97 319.54 76.57 322.68 72.36 327.5L67.38 333.19L64.5 330.67C60.21 326.92 58.54 325.14 58.13 320.57L55.67 323.38L69.87 335.8L91.57 310.99L77.58 298.76L72.23 303.25C76.6 300.81 79.62 301.04 82.68 303.71L88.62 308.91L74.39 325.17C77 320.14 72.6 316.66 72.58 312.56ZM66.66 287.07L71.76 293.09L46.89 314.15L49.3 317L74.46 295.7L62.42 281.48L56.42 285.09C61.14 283.36 64.06 284 66.66 287.07ZM45.32 253.79L44.99 253.97C46.64 256.8 44.39 260 41.76 263.64C38.6 267.96 34.8 272.11 38.09 277.76C38.8 278.99 39.99 279.88 41.37 280.23C36.61 280.41 32.01 279.57 26.59 278.51C26.52 278.39 21.5 277.1 19.29 274.6L23.19 281.3C23.5 278.31 30.68 279.7 30.68 279.7C38.25 281.02 44.5 281.44 52.53 278.06L29.2 291.63L30.99 294.7L59.48 278.12L57.69 275.05C52.4 278.13 47.97 279.52 43.68 280.02C42.66 280.13 39.87 280.08 38.41 277.57C33.08 268.41 53.86 268.48 45.32 253.79ZM35.06 260.89C42.63 255.5 44.45 245.22 39.09 237.84C36.56 234.25 32.71 231.81 28.38 231.07C24.04 230.33 19.6 231.36 16.03 233.92C8.5 239.15 6.58 249.56 11.93 256.89C17.23 264.36 27.56 266.14 35.06 260.89ZM18.15 236.97C24.18 232.81 34.12 231.27 38.81 238.05C43.52 244.72 38.79 253.48 32.83 257.68C26.79 261.95 16.94 263.45 12.27 256.72C7.38 249.97 12.07 241.26 18.15 236.97ZM18.55 214.09C21.79 202.56 26.41 200.98 29.42 203.63C35.23 208.66 32.85 219.63 22.12 225.95L28.53 224.94C34.4 218.67 34.58 207.82 29.73 203.19C28.06 201.67 25.77 201.02 23.55 201.43C18.1 202.29 16.23 207.5 14.86 212.87C11.38 224.95 6.36 226.12 3.44 222.9C-0.18 219.12 -0.81 210.62 7.91 204.47L3.07 205.23C-2.72 210.21 -0.29 227.08 9.99 225.45C15.25 224.63 17.11 219.37 18.55 214.09ZM16.39 182.81L17.3 169.86L15.06 169.71L14.16 182.66L16.39 182.81ZM42.38 129.29L6.75 132.76L6.65 133.07C11.34 138.26 18.19 144.81 23.82 149.17C25.88 150.83 28.13 152.24 30.53 153.37C32.46 154.22 33.95 154.15 34.86 153.12C35.11 152.98 35.3 152.77 35.4 152.5C36.12 150.53 34.71 149.25 32.74 147.71C29.94 145.26 25.89 142.09 27.55 134.29L41.21 133.04L42.38 129.29ZM32.54 148.04C34.37 149.39 35.7 150.59 35.01 152.33C34.85 152.5 34.71 152.68 34.59 152.89C33.9 153.84 32.42 153.72 30.62 153.06C28.26 151.93 26.04 150.53 24.01 148.88C19.43 145.39 14.32 140.46 9.91 136.1L27.2 134.33C25.54 142.27 29.66 145.52 32.54 148.04ZM51.25 110.74C49.55 118.64 39.86 121.28 32.66 119.63C25.52 117.96 17.8 111.57 19.52 103.51C21.66 93.47 33.32 93.91 33.93 93.97L29.62 91.72C29.62 91.72 21.44 92.98 19.22 103.4C18.23 107.71 19.01 112.23 21.37 115.97C23.73 119.7 27.49 122.34 31.8 123.29C40.79 125.24 49.76 119.65 51.5 110.76C52.33 107.43 52.03 103.93 50.65 100.79L41.99 96.28L33.75 112.09L36.94 113.75C35.78 109.41 38.05 104.64 40.69 99.59L50.99 104.97C51.62 106.83 51.71 108.83 51.25 110.74ZM55.24 82L52.33 79.74C48.4 84.79 45.36 86.57 40.31 82.64L34.34 78L36.69 74.98C40.19 70.48 41.86 68.71 46.4 68.04L43.45 65.75L31.87 80.64L57.9 100.87L69.31 86.2L64.51 81.11C67.2 85.33 67.15 88.37 64.65 91.57L59.81 97.8L42.75 84.53C47.92 86.85 51.14 82.25 55.24 82ZM72.08 82.8L74.65 80.42L52.47 56.48C56.16 53.05 61.47 53.29 67.15 55.29C74.28 57.91 81.9 63.58 86.94 69.03L89.51 66.65L67.11 42.47L64.54 44.85L82.76 64.51C78.15 60.57 72.64 56.89 67.16 55.03C61.49 52.9 55.98 52.78 52.24 56.24L49.68 58.62L72.08 82.8ZM102.94 29.75L100.38 25.62C100.38 25.62 92.74 22.5 85.39 30.41C79.11 37.04 79.53 47.55 86.14 53.88C92.96 60.09 103.33 59.99 109.56 53.11C111.91 50.65 113.43 47.5 113.88 44.12L110.75 39.08C112.85 43.71 113.02 49.04 109.35 52.96C103.74 58.96 94.14 56.23 88.71 51.19C83.46 46.1 80.01 36.71 85.64 30.64C92.79 22.85 102.94 29.75 102.94 29.75ZM130.58 8.34L125.66 10.24C126.52 10.01 128.24 10.3 128.02 12.44L126.23 29.15L120.93 25.05L109.86 16.37L105.94 17.88L123.48 31.62L128.49 44.55L131.93 43.22L126.57 29.37L128.45 12.02C128.45 11.11 129.48 8.86 130.58 8.34ZM156.49 21.01L169.34 19.23L169.03 17.02L156.18 18.79L156.49 21.01ZM203.02 25.96L194.96 0.39L191.1 0L187.72 32.78L188 32.81L191.29 0.86L192.28 4.06L201.84 34.24L202.3 34.29C203.17 25.84 205.91 6.59 215.6 3.65L212.33 35.33L215.86 35.69L219.25 2.9C209.4 1.88 205 15.37 203.02 25.96ZM223.62 24.78C223.08 34.05 229.95 41.91 239.06 42.35C243.45 42.64 247.76 41.16 251.05 38.24C254.34 35.33 256.32 31.22 256.56 26.83C257.2 17.69 250.28 9.67 241.22 9.25C232.08 8.7 224.21 15.64 223.62 24.78ZM252.85 26.58C252.33 33.88 247.3 42.59 239.08 42.01C230.93 41.5 227.05 32.33 227.51 25.05C227.97 17.67 232.96 9.05 241.14 9.62C249.47 10.04 253.32 19.15 252.85 26.58ZM285.3 48.03C289.95 40.21 287.37 30.09 279.55 25.44L270.39 20L253.56 48.34L262.71 53.78C270.53 58.43 280.65 55.86 285.3 48.03ZM279.38 25.72C285.52 29.37 286.74 38.57 282.18 46.23C277.62 53.9 269.04 57.11 262.9 53.46L256.88 49.88L273.36 22.15L279.38 25.72ZM298.24 62.57L300.64 59.77C295.79 55.61 294.16 52.49 298.33 47.63L303.25 41.89L306.16 44.39C310.48 48.1 312.17 49.85 312.62 54.42L315.05 51.59L300.73 39.3L279.27 64.32L293.37 76.42L298.69 71.88C294.34 74.36 291.31 74.16 288.23 71.51L282.24 66.38L296.32 49.97C293.76 55.03 298.19 58.47 298.24 62.57ZM304.41 88.01L299.25 82.04L323.92 60.74L321.48 57.91L296.53 79.45L308.7 93.55L314.66 89.88C309.96 91.66 307.03 91.05 304.41 88.01ZM313.16 100.08L340.07 81.04L338.05 78.18L311.14 97.22L313.16 100.08ZM315.38 102.56L317.08 105.62L345.61 89.78C348.06 94.19 346.57 99.29 343.27 104.32C339.03 110.63 331.7 116.67 325.21 120.28L326.92 123.34L355.73 107.34L354.03 104.28L330.6 117.28C335.53 113.75 340.41 109.27 343.53 104.4C346.94 99.4 348.37 94.07 345.9 89.62L344.19 86.56L315.38 102.56ZM335.5 145.82C331.04 139.07 335.94 130.31 342.15 126.31C348.33 122.38 358.31 121.34 362.86 128.2C368.54 136.75 360.06 144.78 359.6 145.18L364.22 143.67C364.22 143.67 369.05 136.94 363.15 128.06C360.76 124.34 356.99 121.73 352.67 120.81C348.35 119.89 343.83 120.73 340.13 123.14C332.45 128.2 330.18 138.52 335.31 145.98C337.11 148.9 339.82 151.14 343.03 152.35L352.31 149.32L346.78 132.37L343.36 133.48C347.28 135.69 349.09 140.65 350.86 146.06L339.81 149.67C338.04 148.82 336.55 147.48 335.5 145.82ZM354.63 169.27L355.58 182.21L357.82 182.05L356.87 169.1L354.63 169.27ZM336.54 225.95L371.31 217.46L371.37 217.14C365.99 212.67 358.28 207.16 352.09 203.64C349.81 202.29 347.38 201.21 344.85 200.43C342.82 199.86 341.35 200.14 340.6 201.3C340.37 201.47 340.21 201.71 340.15 201.98C339.72 204.04 341.3 205.1 343.46 206.35C346.59 208.37 351.04 210.95 350.5 218.9L337.16 222.07L336.54 225.95ZM343.62 206C341.62 204.92 340.12 203.92 340.56 202.1C340.7 201.91 340.81 201.7 340.9 201.49C341.45 200.44 342.93 200.35 344.8 200.75C347.3 201.53 349.7 202.61 351.95 203.95C356.97 206.76 362.73 210.91 367.71 214.61L350.85 218.81C351.36 210.72 346.82 208.08 343.62 206ZM349.85 259.7L354.43 261.32C354.43 261.32 362.34 258.97 363.13 248.2C363.87 239.1 356.98 231.17 347.85 230.36C338.65 229.78 330.63 236.35 330.07 245.61C329.77 249.01 330.56 252.41 332.33 255.33L337.92 257.31C333.38 255.01 329.91 250.96 330.32 245.6C330.95 237.4 340.14 233.53 347.53 234.06C354.81 234.76 363.38 239.92 362.79 248.18C362.08 258.73 349.85 259.7 349.85 259.7ZM311.69 279.22L347.13 284.21L347.3 283.93C343.96 277.79 338.84 269.81 334.38 264.25C332.77 262.15 330.91 260.25 328.85 258.59C327.17 257.31 325.7 257.03 324.57 257.82C324.3 257.9 324.07 258.07 323.91 258.3C322.75 260.05 323.82 261.62 325.37 263.58C327.52 266.62 330.71 270.65 327.27 277.85L313.7 275.86L311.69 279.22ZM325.64 263.31C324.18 261.57 323.16 260.08 324.24 258.56C324.44 258.43 324.62 258.29 324.78 258.12C325.68 257.34 327.09 257.81 328.68 258.87C330.71 260.53 332.54 262.41 334.14 264.49C337.77 268.96 341.58 274.94 344.84 280.22L327.62 277.89C331.1 270.56 327.85 266.44 325.64 263.31ZM303.7 313.1C310.45 319.21 320.87 318.69 326.98 311.95L334.13 304.06L309.7 281.92L302.55 289.82C296.44 296.56 296.96 306.98 303.7 313.1ZM326.74 311.73C321.94 317.02 312.69 316.39 306.08 310.4C299.48 304.41 298.03 295.36 302.83 290.07L307.53 284.88L331.44 306.54L326.74 311.73ZM286.88 322.89L289.15 325.8C294.2 321.87 297.58 320.89 301.51 325.94L306.16 331.9L303.14 334.26C298.65 337.76 296.58 339.07 292.02 338.6L294.32 341.55L309.2 329.95L288.94 303.95L274.27 315.37L277.68 321.49C276.1 316.73 276.9 313.8 280.1 311.3L286.32 306.46L299.62 323.51C295.16 319.99 290.91 323.66 286.88 322.89ZM261.91 332.33L282.82 349.11L286.25 347.29L270.84 318.16L270.59 318.29L285.61 346.68L283.01 344.57L258.3 324.79L257.88 325.01C261.85 332.52 270.27 350.04 263.85 357.87L248.97 329.72L245.83 331.38L261.24 360.52C269.99 355.89 266.15 342.24 261.91 332.33ZM226.79 371.74L231.85 370.24C230.97 370.4 229.29 369.98 229.68 367.86L232.79 351.34L237.75 355.86L248.09 365.4L252.12 364.2L235.73 349.1L231.78 335.82L228.24 336.87L232.48 351.1L229.21 368.24C229.13 369.14 227.93 371.31 226.79 371.74ZM216.13 355.07L203.28 356.9L203.6 359.11L216.45 357.29L216.13 355.07Z" stroke="#707070" stroke-opacity="0" stroke-width="1.000000"/>
	</g>
</svg>
