<svg width="79.368652" height="61.000000" viewBox="0 0 79.3687 61" fill="none" xmlns="http://www.w3.org/2000/svg" xmlns:xlink="http://www.w3.org/1999/xlink">
	<desc>
			Created with Pixso.
	</desc>
	<defs/>
	<g style="mix-blend-mode:normal">
		<mask id="mask_1_2070" fill="white">
			<path id="Union 2" d="M10.9287 28.8301C9.38574 18.8662 0 15.5869 0 15.5869C0 15.5869 6.94287 13.209 14.4644 13.4658C21.9861 13.7227 34.9082 36.8018 35.1653 43.7451C35.4224 50.6885 18.1934 55.3174 18.1934 55.3174C18.1934 55.3174 16.4072 52.0693 17.8718 49.4668C18.7717 47.8672 18.1592 47.4453 17.5718 47.04C17.2031 46.7861 16.8445 46.5391 16.8755 46.0127C16.9556 44.6465 17.4668 45.127 17.7241 43.9062C17.8416 43.3486 17.5208 43.1055 17.1313 42.8105C16.6675 42.46 16.1064 42.0352 16.0718 40.917C16.0398 39.8936 16.9468 39.2998 17.8503 38.708C18.7629 38.1104 19.6724 37.5146 19.6079 36.4805C19.5674 35.8379 18.855 35.8232 17.8477 35.8018C15.6321 35.7559 11.9893 35.6797 10.9287 28.8301ZM79.3687 15.5869C79.3687 15.5869 69.9829 18.8662 68.4397 28.8301C67.3789 35.6797 63.7363 35.7559 61.521 35.8018C60.5137 35.8232 59.8013 35.8379 59.761 36.4805C59.6963 37.5146 60.6057 38.1104 61.5183 38.708C62.4224 39.2998 63.3286 39.8936 63.2966 40.917C63.2617 42.0352 62.7007 42.46 62.2373 42.8105C61.8479 43.1055 61.5273 43.3486 61.6445 43.9062C61.9016 45.127 62.4128 44.6465 62.4932 46.0127C62.5242 46.5391 62.1655 46.7861 61.7969 47.04C61.209 47.4453 60.5972 47.8682 61.4966 49.4668C62.9614 52.0693 61.1753 55.3174 61.1753 55.3174C61.1753 55.3174 43.946 50.6885 44.2036 43.7451C44.4604 36.8018 57.3823 13.7227 64.9041 13.4658C72.4258 13.209 79.3687 15.5869 79.3687 15.5869Z" clip-rule="evenodd" fill="" fill-opacity="1.000000" fill-rule="evenodd"/>
		</mask>
		<path id="Union 2" d="M10.9287 28.8301C9.38574 18.8662 0 15.5869 0 15.5869C0 15.5869 6.94287 13.209 14.4644 13.4658C21.9861 13.7227 34.9082 36.8018 35.1653 43.7451C35.4224 50.6885 18.1934 55.3174 18.1934 55.3174C18.1934 55.3174 16.4072 52.0693 17.8718 49.4668C18.7717 47.8672 18.1592 47.4453 17.5718 47.04C17.2031 46.7861 16.8445 46.5391 16.8755 46.0127C16.9556 44.6465 17.4668 45.127 17.7241 43.9062C17.8416 43.3486 17.5208 43.1055 17.1313 42.8105C16.6675 42.46 16.1064 42.0352 16.0718 40.917C16.0398 39.8936 16.9468 39.2998 17.8503 38.708C18.7629 38.1104 19.6724 37.5146 19.6079 36.4805C19.5674 35.8379 18.855 35.8232 17.8477 35.8018C15.6321 35.7559 11.9893 35.6797 10.9287 28.8301ZM79.3687 15.5869C79.3687 15.5869 69.9829 18.8662 68.4397 28.8301C67.3789 35.6797 63.7363 35.7559 61.521 35.8018C60.5137 35.8232 59.8013 35.8379 59.761 36.4805C59.6963 37.5146 60.6057 38.1104 61.5183 38.708C62.4224 39.2998 63.3286 39.8936 63.2966 40.917C63.2617 42.0352 62.7007 42.46 62.2373 42.8105C61.8479 43.1055 61.5273 43.3486 61.6445 43.9062C61.9016 45.127 62.4128 44.6465 62.4932 46.0127C62.5242 46.5391 62.1655 46.7861 61.7969 47.04C61.209 47.4453 60.5972 47.8682 61.4966 49.4668C62.9614 52.0693 61.1753 55.3174 61.1753 55.3174C61.1753 55.3174 43.946 50.6885 44.2036 43.7451C44.4604 36.8018 57.3823 13.7227 64.9041 13.4658C72.4258 13.209 79.3687 15.5869 79.3687 15.5869Z" clip-rule="evenodd" fill="#808080" fill-opacity="1.000000" fill-rule="evenodd" mask="url(#mask_1_2070)"/>
		<path id="Union 2" d="" fill="#707070" fill-opacity="0.000000" fill-rule="nonzero"/>
	</g>
	<g style="mix-blend-mode:normal">
		<mask id="mask_1_2071" fill="white">
			<path id="Union 1" d="M37.2998 31.9414C39.9739 51.0801 22.6155 61 22.6155 61C22.6155 61 22.478 53.7754 22.7031 52.9268C22.7969 52.5732 23.0166 52.1641 23.2385 51.749C23.55 51.168 23.8665 50.5771 23.8462 50.1221C23.8308 49.7734 23.5237 49.5664 23.2017 49.3496C22.8044 49.083 22.3845 48.8008 22.4609 48.2168C22.5996 47.1611 23.4094 47.3652 23.448 45.7412C23.4644 45.0498 23.2412 44.6387 23.011 44.2158C22.7009 43.6455 22.3789 43.0527 22.6155 41.7197C22.7874 40.752 23.4065 40.1992 24.0039 39.665C24.8403 38.918 25.6343 38.209 25.0977 36.4541C24.7817 35.4199 23.5764 34.1582 22.1443 32.6582C19.4114 29.7979 15.8525 26.0723 16.0718 21.4111C16.4062 14.3076 7.46387 5.86621 7.46387 5.86621C7.46387 5.86621 9.05176 5.61523 12.2275 5.86621C15.4033 6.11719 34.6255 12.8027 37.2998 31.9414ZM56.7532 61C56.7532 61 39.3948 51.0801 42.0691 31.9414C44.7437 12.8027 63.9653 6.11719 67.1411 5.86621C70.3171 5.61523 71.905 5.86621 71.905 5.86621C71.905 5.86621 62.9624 14.3076 63.2969 21.4111C63.5161 26.0723 59.9573 29.7979 57.2244 32.6582C55.7922 34.1582 54.5869 35.4199 54.271 36.4541C53.7349 38.209 54.5286 38.918 55.3647 39.665C55.9624 40.1992 56.5815 40.752 56.7532 41.7197C56.9902 43.0527 56.668 43.6455 56.3579 44.2158C56.1277 44.6387 55.9043 45.0498 55.9209 45.7412C55.9595 47.3652 56.7695 47.1611 56.9077 48.2168C56.9844 48.7998 56.5645 49.083 56.1675 49.3496C55.8452 49.5664 55.5381 49.7734 55.5227 50.1221C55.5024 50.5771 55.8188 51.168 56.1304 51.749C56.3523 52.1641 56.5718 52.5732 56.6655 52.9268C56.8904 53.7754 56.7532 61 56.7532 61Z" clip-rule="evenodd" fill="" fill-opacity="1.000000" fill-rule="evenodd"/>
		</mask>
		<path id="Union 1" d="M37.2998 31.9414C39.9739 51.0801 22.6155 61 22.6155 61C22.6155 61 22.478 53.7754 22.7031 52.9268C22.7969 52.5732 23.0166 52.1641 23.2385 51.749C23.55 51.168 23.8665 50.5771 23.8462 50.1221C23.8308 49.7734 23.5237 49.5664 23.2017 49.3496C22.8044 49.083 22.3845 48.8008 22.4609 48.2168C22.5996 47.1611 23.4094 47.3652 23.448 45.7412C23.4644 45.0498 23.2412 44.6387 23.011 44.2158C22.7009 43.6455 22.3789 43.0527 22.6155 41.7197C22.7874 40.752 23.4065 40.1992 24.0039 39.665C24.8403 38.918 25.6343 38.209 25.0977 36.4541C24.7817 35.4199 23.5764 34.1582 22.1443 32.6582C19.4114 29.7979 15.8525 26.0723 16.0718 21.4111C16.4062 14.3076 7.46387 5.86621 7.46387 5.86621C7.46387 5.86621 9.05176 5.61523 12.2275 5.86621C15.4033 6.11719 34.6255 12.8027 37.2998 31.9414ZM56.7532 61C56.7532 61 39.3948 51.0801 42.0691 31.9414C44.7437 12.8027 63.9653 6.11719 67.1411 5.86621C70.3171 5.61523 71.905 5.86621 71.905 5.86621C71.905 5.86621 62.9624 14.3076 63.2969 21.4111C63.5161 26.0723 59.9573 29.7979 57.2244 32.6582C55.7922 34.1582 54.5869 35.4199 54.271 36.4541C53.7349 38.209 54.5286 38.918 55.3647 39.665C55.9624 40.1992 56.5815 40.752 56.7532 41.7197C56.9902 43.0527 56.668 43.6455 56.3579 44.2158C56.1277 44.6387 55.9043 45.0498 55.9209 45.7412C55.9595 47.3652 56.7695 47.1611 56.9077 48.2168C56.9844 48.7998 56.5645 49.083 56.1675 49.3496C55.8452 49.5664 55.5381 49.7734 55.5227 50.1221C55.5024 50.5771 55.8188 51.168 56.1304 51.749C56.3523 52.1641 56.5718 52.5732 56.6655 52.9268C56.8904 53.7754 56.7532 61 56.7532 61Z" clip-rule="evenodd" fill="#000000" fill-opacity="1.000000" fill-rule="evenodd" mask="url(#mask_1_2071)"/>
		<path id="Union 1" d="" fill="#707070" fill-opacity="0.000000" fill-rule="nonzero"/>
	</g>
	<g style="mix-blend-mode:normal">
		<circle id="Ellipse 1" cx="39.583984" cy="6.565430" r="6.565741" fill="#000000" fill-opacity="1.000000"/>
		<circle id="Ellipse 1" cx="39.583984" cy="6.565430" r="6.065741" stroke="#707070" stroke-opacity="0" stroke-width="1.000000"/>
	</g>
</svg>
