<svg width="66.832764" height="66.832520" viewBox="0 0 66.8328 66.8325" fill="none" xmlns="http://www.w3.org/2000/svg" xmlns:xlink="http://www.w3.org/1999/xlink">
	<desc>
			Created with Pixso.
	</desc>
	<defs/>
	<g style="mix-blend-mode:normal">
		<path id="4747498_instagram_social media_icon" d="M54.23 16.21C54.23 16.71 54.13 17.21 53.94 17.67C53.75 18.13 53.47 18.55 53.12 18.91C52.76 19.26 52.34 19.54 51.88 19.73C51.42 19.92 50.92 20.02 50.42 20.02C49.92 20.02 49.43 19.92 48.96 19.73C48.5 19.54 48.08 19.26 47.73 18.91C47.37 18.55 47.09 18.13 46.9 17.67C46.71 17.21 46.61 16.71 46.61 16.21C46.61 15.2 47.01 14.23 47.73 13.52C48.44 12.8 49.41 12.4 50.42 12.4C51.43 12.4 52.4 12.8 53.12 13.52C53.83 14.23 54.23 15.2 54.23 16.21ZM66.33 33.41L66.11 47.27C66.05 52.25 64.05 57.01 60.53 60.53C57.01 64.05 52.25 66.06 47.27 66.11L33.41 66.33L19.55 66.11C14.57 66.05 9.81 64.05 6.29 60.53C2.77 57.01 0.77 52.25 0.71 47.27L0.5 33.41L0.71 19.55C0.77 14.57 2.77 9.81 6.29 6.29C9.81 2.77 14.57 0.77 19.55 0.71L33.41 0.5L47.27 0.71C52.25 0.77 57.01 2.77 60.53 6.29C64.05 9.81 66.06 14.57 66.11 19.55L66.33 33.41ZM50.31 33.41C50.31 37.89 48.53 42.19 45.36 45.36C42.19 48.53 37.89 50.31 33.41 50.31C28.93 50.31 24.63 48.53 21.46 45.36C18.29 42.19 16.51 37.89 16.51 33.41C16.51 28.93 18.29 24.63 21.46 21.46C24.63 18.29 28.93 16.51 33.41 16.51C37.89 16.51 42.19 18.29 45.36 21.46C48.53 24.63 50.31 28.93 50.31 33.41ZM44.18 33.41C44.18 30.55 43.05 27.81 41.03 25.79C39.01 23.77 36.27 22.64 33.41 22.64C30.55 22.64 27.81 23.77 25.79 25.79C23.77 27.81 22.64 30.55 22.64 33.41C22.64 36.27 23.77 39.01 25.79 41.03C27.81 43.05 30.55 44.18 33.41 44.18C36.27 44.18 39.01 43.05 41.03 41.03C43.05 39.01 44.18 36.27 44.18 33.41Z" fill="#000000" fill-opacity="0" fill-rule="nonzero"/>
		<path id="4747498_instagram_social media_icon" d="M53.94 17.67C53.75 18.13 53.47 18.55 53.12 18.91C52.76 19.26 52.34 19.54 51.88 19.73C51.42 19.92 50.92 20.02 50.42 20.02C49.92 20.02 49.43 19.92 48.96 19.73C48.5 19.54 48.08 19.26 47.73 18.91C47.37 18.55 47.09 18.13 46.9 17.67C46.71 17.21 46.61 16.71 46.61 16.21C46.61 15.2 47.01 14.23 47.73 13.52C48.44 12.8 49.41 12.4 50.42 12.4C51.43 12.4 52.4 12.8 53.12 13.52C53.83 14.23 54.23 15.2 54.23 16.21C54.23 16.71 54.13 17.21 53.94 17.67ZM66.11 47.27C66.05 52.25 64.05 57.01 60.53 60.53C57.01 64.05 52.25 66.06 47.27 66.11L33.41 66.33L19.55 66.11C14.57 66.05 9.81 64.05 6.29 60.53C2.77 57.01 0.77 52.25 0.71 47.27L0.5 33.41L0.71 19.55C0.77 14.57 2.77 9.81 6.29 6.29C9.81 2.77 14.57 0.77 19.55 0.71L33.41 0.5L47.27 0.71C52.25 0.77 57.01 2.77 60.53 6.29C64.05 9.81 66.06 14.57 66.11 19.55L66.33 33.41L66.11 47.27ZM45.36 45.36C42.19 48.53 37.89 50.31 33.41 50.31C28.93 50.31 24.63 48.53 21.46 45.36C18.29 42.19 16.51 37.89 16.51 33.41C16.51 28.93 18.29 24.63 21.46 21.46C24.63 18.29 28.93 16.51 33.41 16.51C37.89 16.51 42.19 18.29 45.36 21.46C48.53 24.63 50.31 28.93 50.31 33.41C50.31 37.89 48.53 42.19 45.36 45.36ZM41.03 25.79C39.01 23.77 36.27 22.64 33.41 22.64C30.55 22.64 27.81 23.77 25.79 25.79C23.77 27.81 22.64 30.55 22.64 33.41C22.64 36.27 23.77 39.01 25.79 41.03C27.81 43.05 30.55 44.18 33.41 44.18C36.27 44.18 39.01 43.05 41.03 41.03C43.05 39.01 44.18 36.27 44.18 33.41C44.18 30.55 43.05 27.81 41.03 25.79Z" stroke="#808080" stroke-opacity="1.000000" stroke-width="1.000000"/>
	</g>
</svg>
