<svg width="47.547333" height="79.428711" viewBox="0 0 47.5473 79.4287" fill="none" xmlns="http://www.w3.org/2000/svg" xmlns:xlink="http://www.w3.org/1999/xlink">
	<desc>
			Created with Pixso.
	</desc>
	<defs/>
	<g style="mix-blend-mode:normal">
		<path id="498953_dress_clothes_bride_wedding_clothing_icon" d="M46.8 72.8C46.8 72.8 45 74.4 41.8 74.8C38.9 75.1 36.5 74.6 34.7 74.1C31.9 67.1 26.8 54.6 26 51.7C26.1 52.4 28.8 71.3 31.2 78.2C30.7 78.8 29.9 79 28.8 78.9C24.4 78.2 20.7 74.8 18.7 76.8C17 78.5 12.3 78.1 11.2 77.4C13.1 69 14.9 56.8 15 56.2C14.3 58.8 10.2 69 7.3 76.1C3.8 76.4 0.4 74.7 0.5 73.9C11.6 52.6 13.4 40.9 13 33.9C12.6 27.9 15.3 21.1 15.7 18.3C16 15.5 14.2 11.5 14.2 11.5C13.1 6.1 22.9 6.6 26.4 3.9C26.9 2.4 27.9 0.6 27.9 0.6L28.8 0.9C27.2 5.4 29.9 7.1 29.2 10.1C28.7 12.6 26.9 13.9 27.4 18.6C27.8 22.4 30.7 26.1 30.8 31.8C30.9 35.8 29.2 39.2 31.3 45.7C34.1 54.4 40.1 66.6 46.8 72.8Z" fill="#1C2B36" fill-opacity="0" fill-rule="nonzero"/>
		<path id="498953_dress_clothes_bride_wedding_clothing_icon" d="M41.8 74.8C38.9 75.1 36.5 74.6 34.7 74.1C31.9 67.1 26.8 54.6 26 51.7C26.1 52.4 28.8 71.3 31.2 78.2C30.7 78.8 29.9 79 28.8 78.9C24.4 78.2 20.7 74.8 18.7 76.8C17 78.5 12.3 78.1 11.2 77.4C13.1 69 14.9 56.8 15 56.2C14.3 58.8 10.2 69 7.3 76.1C3.8 76.4 0.4 74.7 0.5 73.9C11.6 52.6 13.4 40.9 13 33.9C12.6 27.9 15.3 21.1 15.7 18.3C16 15.5 14.2 11.5 14.2 11.5C13.1 6.1 22.9 6.6 26.4 3.9C26.9 2.4 27.9 0.6 27.9 0.6L28.8 0.9C27.2 5.4 29.9 7.1 29.2 10.1C28.7 12.6 26.9 13.9 27.4 18.6C27.8 22.4 30.7 26.1 30.8 31.8C30.9 35.8 29.2 39.2 31.3 45.7C34.1 54.4 40.1 66.6 46.8 72.8C46.8 72.8 45 74.4 41.8 74.8Z" stroke="#808080" stroke-opacity="1.000000" stroke-width="1.000000"/>
	</g>
</svg>
