<svg width="48.574219" height="64.421387" viewBox="0 0 48.5742 64.4214" fill="none" xmlns="http://www.w3.org/2000/svg" xmlns:xlink="http://www.w3.org/1999/xlink">
	<desc>
			Created with Pixso.
	</desc>
	<defs/>
	<g style="mix-blend-mode:normal">
		<path id="9040369_gender_ambiguous_icon" d="M30.23 4.46C29.14 4.46 28.25 3.57 28.25 2.48C28.25 1.38 29.14 0.5 30.23 0.5L46.09 0.5C47.18 0.5 48.07 1.38 48.07 2.48L48.07 18.33C48.07 19.43 47.18 20.31 46.09 20.31C44.99 20.31 44.11 19.43 44.11 18.33L44.11 7.26L30.43 20.94C32.82 25.54 32.81 31.02 30.4 35.61C27.99 40.21 23.49 43.33 18.34 43.98L18.34 52.02L24.29 52.02C25.38 52.02 26.27 52.91 26.27 54.01C26.27 55.1 25.38 55.99 24.29 55.99L18.34 55.99L18.34 61.93C18.34 63.03 17.45 63.92 16.36 63.92C15.26 63.92 14.38 63.03 14.38 61.93L14.38 55.99L8.43 55.99C7.34 55.99 6.45 55.1 6.45 54.01C6.45 52.91 7.34 52.02 8.43 52.02L14.38 52.02L14.38 43.98C7.4 43.1 1.84 37.73 0.71 30.79C-0.41 23.85 3.16 17 9.5 13.95C15.84 10.91 23.43 12.41 28.14 17.63L41.3 4.46L30.23 4.46ZM26.28 21.69C22.66 16.21 15.28 14.7 9.8 18.32C4.32 21.94 2.82 29.32 6.44 34.8C10.06 40.28 17.44 41.79 22.92 38.16C28.4 34.54 29.9 27.16 26.28 21.69Z" fill="#C5B2AB" fill-opacity="0" fill-rule="evenodd"/>
		<path id="9040369_gender_ambiguous_icon" d="M28.25 2.48C28.25 1.38 29.14 0.5 30.23 0.5L46.09 0.5C47.18 0.5 48.07 1.38 48.07 2.48L48.07 18.33C48.07 19.43 47.18 20.31 46.09 20.31C44.99 20.31 44.11 19.43 44.11 18.33L44.11 7.26L30.43 20.94C32.82 25.54 32.81 31.02 30.4 35.61C27.99 40.21 23.49 43.33 18.34 43.98L18.34 52.02L24.29 52.02C25.38 52.02 26.27 52.91 26.27 54.01C26.27 55.1 25.38 55.99 24.29 55.99L18.34 55.99L18.34 61.93C18.34 63.03 17.45 63.92 16.36 63.92C15.26 63.92 14.38 63.03 14.38 61.93L14.38 55.99L8.43 55.99C7.34 55.99 6.45 55.1 6.45 54.01C6.45 52.91 7.34 52.02 8.43 52.02L14.38 52.02L14.38 43.98C7.4 43.1 1.84 37.73 0.71 30.79C-0.41 23.85 3.16 17 9.5 13.95C15.84 10.91 23.43 12.41 28.14 17.63L41.3 4.46L30.23 4.46C29.14 4.46 28.25 3.57 28.25 2.48ZM9.8 18.32C4.32 21.94 2.82 29.32 6.44 34.8C10.06 40.28 17.44 41.79 22.92 38.16C28.4 34.54 29.9 27.16 26.28 21.69C22.66 16.21 15.28 14.7 9.8 18.32Z" stroke="#808080" stroke-opacity="1.000000" stroke-width="1.000000"/>
	</g>
</svg>
