<svg width="63.538818" height="53.767090" viewBox="0 0 63.5388 53.7671" fill="none" xmlns="http://www.w3.org/2000/svg" xmlns:xlink="http://www.w3.org/1999/xlink">
	<desc>
			Created with Pixso.
	</desc>
	<defs/>
	<g style="mix-blend-mode:normal">
		<path id="Path 10" d="M31.76 14.18C23.13 14.18 16.13 21.18 16.13 29.81C16.13 38.45 23.13 45.45 31.76 45.45C40.4 45.45 47.4 38.45 47.4 29.81C47.4 21.18 40.4 14.18 31.76 14.18ZM40.67 37.44C36.45 42.36 29.05 42.93 24.13 38.71C19.22 34.5 18.65 27.1 22.86 22.18C27.08 17.26 34.48 16.7 39.4 20.91C44.31 25.12 44.88 32.53 40.67 37.44Z" fill="#333333" fill-opacity="0" fill-rule="evenodd"/>
		<path id="Path 10" d="M16.13 29.81C16.13 38.45 23.13 45.45 31.76 45.45C40.4 45.45 47.4 38.45 47.4 29.81C47.4 21.18 40.4 14.18 31.76 14.18C23.13 14.18 16.13 21.18 16.13 29.81ZM24.13 38.71C19.22 34.5 18.65 27.1 22.86 22.18C27.08 17.26 34.48 16.7 39.4 20.91C44.31 25.12 44.88 32.53 40.67 37.44C36.45 42.36 29.05 42.93 24.13 38.71Z" stroke="#808080" stroke-opacity="1.000000" stroke-width="1.000000"/>
	</g>
	<g style="mix-blend-mode:normal">
		<path id="Path 12" d="M58.13 12.3L49.66 10.89L46.98 4.18C46.08 1.94 43.94 0.5 41.54 0.5L21.99 0.5C19.59 0.5 17.45 1.94 16.55 4.18L13.87 10.89L5.4 12.3C2.56 12.77 0.5 15.21 0.5 18.08L0.5 47.4C0.5 50.63 3.13 53.26 6.36 53.26L57.17 53.26C60.4 53.26 63.03 50.63 63.03 47.4L63.03 18.08C63.03 15.21 60.97 12.77 58.13 12.3Z" fill="#333333" fill-opacity="0" fill-rule="evenodd"/>
		<path id="Path 12" d="M49.66 10.89L46.98 4.18C46.08 1.94 43.94 0.5 41.54 0.5L21.99 0.5C19.59 0.5 17.45 1.94 16.55 4.18L13.87 10.89L5.4 12.3C2.56 12.77 0.5 15.21 0.5 18.08L0.5 47.4C0.5 50.63 3.13 53.26 6.36 53.26L57.17 53.26C60.4 53.26 63.03 50.63 63.03 47.4L63.03 18.08C63.03 15.21 60.97 12.77 58.13 12.3L49.66 10.89Z" stroke="#808080" stroke-opacity="1.000000" stroke-width="1.000000"/>
	</g>
</svg>
