<svg width="1994.746338" height="866.000000" viewBox="0 0 1994.75 866" fill="none" xmlns="http://www.w3.org/2000/svg" xmlns:xlink="http://www.w3.org/1999/xlink">
	<desc>
			Created with Pixso.
	</desc>
	<defs/>
	<g opacity="0.270000" style="mix-blend-mode:normal">
		<path id="THE DAY OF" d="M1438.66 319.48Q1465.11 344.22 1514.7 344.22Q1561.59 344.22 1588.03 320.97Q1591.92 317.55 1595.36 313.64Q1622.25 283.06 1622.25 227.71Q1622.25 172.29 1595.67 142.18Q1591.84 137.84 1587.47 134.12Q1561.57 112.07 1516.9 112.07Q1475.96 112.07 1449.57 131.67Q1442.37 137.02 1436.25 143.83Q1434.94 145.29 1433.69 146.79Q1407.79 178.05 1407.79 230.78Q1407.79 285.97 1434.36 315.13Q1436.43 317.39 1438.66 319.48ZM1057.73 265.29L1081.24 334.86L1058.43 334.86L1058.43 341L1163.69 341L1163.69 334.86L1148.92 334.86L1067.72 113.65L1041.38 113.65L959.23 334.86L944.13 334.86L944.13 341L993.34 341L993.34 334.86L969.21 334.86L993.97 265.29L1057.73 265.29ZM208.01 196.43L204.78 115.61L14.77 115.61L11.55 196.43L17.68 196.43Q31.2 154.92 42.45 138.64Q47.6 131.23 54.68 127.2Q63.15 122.37 74.36 122.37L78.53 122.37L78.53 334.23L51.17 334.23L51.17 341L168.7 341L168.7 334.23L141.34 334.23L141.34 122.37L145.19 122.37Q157.32 122.37 166.1 127.8Q172.23 131.58 176.72 138.02Q187.72 153.58 201.87 196.43L208.01 196.43ZM327.15 115.61L226.68 115.61L226.68 121.74L245.71 121.74L245.71 334.86L226.68 334.86L226.68 341L327.15 341L327.15 334.86L308.44 334.86L308.44 229.91L372.59 229.91L372.59 334.86L353.56 334.86L353.56 341L454.35 341L454.35 334.86L435.32 334.86L435.32 121.74L454.35 121.74L454.35 115.61L353.56 115.61L353.56 121.74L372.59 121.74L372.59 221.5L308.44 221.5L308.44 121.74L327.15 121.74L327.15 115.61ZM635.31 115.61L467.86 115.61L467.86 122.69L486.88 122.69L486.88 333.92L467.86 333.92L467.86 341L644.66 341L647.18 270.79L640.81 270.79Q635.75 288.78 625.21 302.58Q619.54 310.01 612.27 316.23Q605.46 322.03 597.7 325.93Q581.8 333.92 561.88 333.92L549.62 333.92L549.62 230.54L557.4 230.54Q570.69 230.54 579.59 236.79Q582.12 238.57 584.29 240.84Q594.11 251.14 599.85 275.27L605.35 275.27L605.35 180L600.56 180Q596.31 199.33 586.02 210.81Q580.59 216.82 573.84 219.66Q567.77 222.21 560.62 222.21L549.62 222.21L549.62 122.69L560.94 122.69Q589.55 122.69 604.33 134.79Q619.19 146.82 632.71 179.37L638.53 179.37L635.31 115.61ZM920.68 310.28Q949.93 283.08 949.93 224.41Q949.93 169.75 922.65 144.16Q920.86 142.48 918.96 140.92Q888.06 115.61 826.27 115.61L726.75 115.61L726.75 121.74L747.97 121.74L747.97 334.86L726.75 334.86L726.75 341L817.86 341Q878.08 341 912.51 316.86Q916.84 313.84 920.68 310.28ZM1303.8 120.72L1258.05 221.5L1214.26 120.72L1235.17 120.72L1235.17 115.61L1132.18 115.61L1132.18 120.72L1147.28 120.72L1201.99 234.4L1201.99 334.86L1182.42 334.86L1182.42 341L1284.46 341L1284.46 334.86L1264.81 334.86L1264.81 228.26L1313.47 120.72L1334.69 120.72L1334.69 115.61L1271.25 115.61L1271.25 120.72L1303.8 120.72ZM1809.64 115.61L1642.2 115.61L1642.2 122.69L1661.22 122.69L1661.22 333.92L1642.2 333.92L1642.2 341L1763.89 341L1763.89 333.92L1723.96 333.92L1723.96 235.73L1738.5 235.73Q1749.35 235.73 1757.1 240.64Q1760.57 242.84 1763.42 246.03Q1772.62 256.33 1777.73 280.46L1783.23 280.46L1783.23 185.18L1778.44 185.18Q1774.5 204.76 1764.21 216.08Q1759.23 221.52 1753.05 224.32Q1746.46 227.32 1738.5 227.32L1723.96 227.32L1723.96 122.69L1733 122.69Q1763.89 122.69 1779.54 135.26Q1795.18 147.76 1807.05 182.59L1812.87 182.59L1809.64 115.61ZM1555.9 217.65L1555.9 241.47Q1555.9 294.61 1548.35 316.07Q1545.23 324.92 1539.04 330.1Q1530.27 337.46 1515.33 337.46Q1502.39 337.46 1493.63 331.4Q1488.24 327.68 1484.44 321.66Q1479.88 314.58 1476.81 297.99Q1473.82 281.41 1473.82 242.18L1473.82 218.99Q1473.82 182.59 1475.71 163.88Q1477.36 150.99 1480.03 143.91Q1482.79 136.84 1487.27 130.39Q1490.43 125.92 1494.73 123.34Q1496.63 122.2 1498.74 121.43Q1505.66 118.83 1515.33 118.83Q1525 118.83 1531.76 121.43Q1532.21 121.59 1532.66 121.76Q1543.88 126.27 1550.08 143.28Q1555.9 158.77 1555.9 217.65ZM823.05 334.86L810.79 334.86L810.79 121.74L818.49 121.74Q842.7 121.74 855.91 128.82Q883.58 143.6 883.58 216.08L883.58 234.71Q883.58 288.8 869.51 311.83Q865.14 319.02 858.98 323.96Q845.39 334.86 823.05 334.86ZM996.88 258.22L1027.15 173.86L1055.22 258.22L996.88 258.22Z" fill="#FFFFFF" fill-opacity="1.000000" fill-rule="evenodd"/>
	</g>
	<g opacity="0.270000" style="mix-blend-mode:normal">
		<path id="modeling" d="M1174.98 749.43L1178.51 772L1249.97 772L1249.97 766.18L1234.17 766.18L1234.17 530.5L1153.67 530.5L1153.67 536.31L1173.31 536.31L1173.31 631.28Q1172.22 629.35 1170.84 627.66Q1160.84 615.48 1135.98 615.48Q1111.29 615.48 1096.16 627.51Q1072.23 646.53 1072.23 695.66Q1072.23 735.28 1087.48 755.25Q1093.31 762.84 1100.92 767.55Q1113.32 775.22 1130.48 775.22Q1152.03 775.22 1164.27 764.55Q1171.05 758.63 1174.98 749.43ZM1502.08 530.5L1423.24 530.5L1423.24 536.31L1442.18 536.31L1442.18 766.18L1424.49 766.18L1424.49 772L1520.09 772L1520.09 766.18L1502.08 766.18L1502.08 530.5ZM1549.6 588.25Q1556.88 596.53 1573.57 596.53Q1590.63 596.53 1598.65 588.2Q1600.21 586.58 1601.46 584.75Q1606.75 577.09 1606.75 565.79Q1606.75 554.39 1601.22 547.27Q1599.93 545.61 1598.33 544.17Q1590 536.63 1573.88 536.63Q1558.45 536.63 1550.59 544.34Q1550.24 544.68 1549.91 545.04Q1547.64 547.44 1546.03 550.22Q1542.05 557.09 1542.05 566.26Q1542.05 576.21 1546.35 583.67Q1547.62 585.89 1549.28 587.88Q1549.44 588.07 1549.6 588.25ZM1964.79 596.53L1955.75 601.95Q1956.05 608.06 1959.12 612.02Q1960.12 613.31 1961.41 614.38Q1962.13 614.95 1962.89 615.45Q1967.85 618.7 1974.94 618.7Q1979.97 618.7 1984.06 616.74Q1986.69 615.49 1988.93 613.43Q1989.29 613.1 1989.62 612.75Q1994.75 607.41 1994.75 597.16Q1994.75 589.66 1991.34 584.34Q1989.78 581.91 1987.51 579.94Q1986.88 579.39 1986.2 578.89Q1979.23 573.65 1968.33 573.65Q1963.93 573.65 1959.82 574.77Q1952.87 576.66 1946.79 581.75Q1946.12 582.31 1945.49 582.92Q1937.12 591.02 1937.12 607.77Q1937.12 614.85 1939.01 623.57Q1924.23 615.48 1903.32 615.48Q1868.49 615.48 1851.12 630.33Q1843.82 636.54 1839.59 644.4Q1833.75 655.25 1833.75 669.25Q1833.75 688.12 1842.78 700.27Q1852.11 712.83 1871.09 718.22Q1850.49 730.8 1842.39 739.37Q1839.64 742.29 1837.83 745.7Q1834.38 752.23 1834.38 760.6Q1834.38 765.04 1835.76 768.99Q1838.32 776.31 1845.62 781.98Q1856.94 790.71 1883.04 790.71L1914.25 790.71Q1938.7 790.71 1946.87 795.34Q1948.25 796.12 1949.39 797.15Q1955.13 802.29 1955.13 813.82Q1955.13 818.21 1953.78 822.14Q1950.85 830.66 1941.6 837.01Q1928.08 846.36 1903 846.36Q1874.53 846.36 1865.7 833.19Q1861.73 827.27 1861.73 818.69Q1861.73 810.28 1864.33 801L1844.99 792.28Q1827.43 797.3 1822.32 808.17Q1820.22 812.62 1820.22 818.06Q1820.22 823.5 1822.21 828.07Q1832.78 852.5 1899.78 852.5Q1946.48 852.5 1968.49 835.91Q1978.87 828.12 1984.37 817.74Q1990.58 806.03 1990.58 791.02Q1990.58 773.15 1982.11 761.36Q1965.7 738.51 1917.47 738.51L1884.61 738.51Q1864.94 738.51 1864.05 734.42Q1864.01 734.23 1864.01 734.03Q1864.01 729.47 1878.16 720.5Q1891.68 723.02 1904.26 723.02Q1934.53 723.02 1952.22 708.87Q1958.37 703.97 1962.39 697.7Q1969.98 685.87 1969.98 669.17Q1969.98 660.37 1967.09 652.65Q1961.56 637.9 1945.46 627.11Q1943.25 616.18 1943.25 607.77Q1943.25 592.88 1950.07 588.43Q1952.96 586.55 1957.09 586.55Q1961.72 586.55 1963.68 588.83Q1965.82 591.33 1964.79 596.53ZM685.81 618.7L608.22 618.7L608.22 624.52L625.91 624.52L625.91 766.18L608.22 766.18L608.22 772L697.44 772L697.44 766.18L685.81 766.18L685.81 677.35Q685.81 658.32 693.04 644.64Q699.65 632.14 707.78 631.06Q708.54 630.96 709.32 630.96Q711.72 630.96 713.42 632.05Q714 632.43 714.5 632.93Q718.67 637.09 718.67 661.54L718.67 766.18L707.43 766.18L707.43 772L790.13 772L790.13 766.18L778.57 766.18L778.57 675.38Q778.57 656.04 785.65 643.54Q791.8 632.6 799.68 631.18Q800.86 630.96 802.08 630.96Q804.54 630.96 806.22 632.11Q806.74 632.46 807.19 632.93Q811.43 637.09 811.43 661.54L811.43 766.18L800.11 766.18L800.11 772L889.34 772L889.34 766.18L871.26 766.18L871.26 669.25Q871.26 638.95 856.23 625.72Q844.59 615.48 823.93 615.48Q806.37 615.48 794.68 623.76Q782.41 632.46 776.61 650.3Q772.83 633.24 762.21 624.54Q751.15 615.48 732.66 615.48Q713.28 615.48 701.23 624.88Q690.75 633.05 685.81 648.34L685.81 618.7ZM918.34 755.6Q938.91 775.22 978.19 775.22Q1018.88 775.22 1039.31 754.88Q1059.94 734.34 1059.94 693.07Q1059.94 653.93 1040.39 634.74Q1040.34 634.7 1040.3 634.66Q1020.73 615.48 980.79 615.48Q942.96 615.48 921.15 634.16Q919.93 635.21 918.76 636.31Q915.58 639.31 912.85 642.69Q896.75 662.64 896.75 695.58Q896.75 731.09 914.32 751.37Q915.77 753.05 917.35 754.62Q917.84 755.12 918.34 755.6ZM1281.93 755.1Q1302.74 775.22 1343.01 775.22Q1374.92 775.22 1390.8 762.33Q1392.7 760.8 1394.45 759.12Q1407.49 746.68 1412.89 726.24L1407.08 725.3Q1400.45 748.22 1385.32 757.98Q1374.09 765.23 1358.18 765.23Q1346.37 765.23 1338.71 759.59Q1333.42 755.7 1330.11 749.12Q1322.1 733 1322.1 701.48L1322.1 688.9L1412.89 688.9Q1414.36 652.01 1396.63 633.65Q1379.07 615.48 1342.69 615.48Q1313.78 615.48 1293.05 628.5Q1287.9 631.73 1283.26 635.76Q1278.37 640.01 1274.5 645.05Q1259.91 664.05 1259.91 694.25Q1259.91 728.44 1276.61 749.23Q1278.53 751.62 1280.67 753.84Q1281.29 754.48 1281.93 755.1ZM1706.54 618.7L1628.95 618.7L1628.95 624.52L1646.64 624.52L1646.64 766.18L1628.95 766.18L1628.95 772L1720.38 772L1720.38 766.18L1706.54 766.18L1706.54 677.35Q1706.54 658.01 1714.4 644.48Q1721.32 632.71 1730.02 631.19Q1731.31 630.96 1732.64 630.96Q1736.49 630.96 1738.99 632.8Q1740.88 634.19 1741.99 636.62Q1744.59 642.2 1744.59 661.54L1744.59 766.18L1731.38 766.18L1731.38 772L1822.49 772L1822.49 766.18L1804.41 766.18L1804.41 669.25Q1804.41 640.33 1789.99 626.96Q1777.6 615.48 1754.57 615.48Q1732.95 615.48 1722.34 624.52Q1721.37 625.34 1720.45 626.21Q1711.25 634.9 1706.54 648.34L1706.54 618.7ZM1603.84 618.7L1524.99 618.7L1524.99 624.52L1543.93 624.52L1543.93 766.18L1526.25 766.18L1526.25 772L1621.84 772L1621.84 766.18L1603.84 766.18L1603.84 618.7ZM998.16 681.2L998.16 708.55Q998.16 744.64 995.25 754.94Q992.88 763.84 987.21 767.26Q983.66 769.4 978.82 769.4Q972 769.4 968.14 766.02Q966.18 764.3 964.99 761.7Q962.71 757.22 960.58 750.14Q958.54 742.99 958.54 707.93L958.54 682.77Q958.54 653.21 961.45 638.67Q963.41 629.31 967.74 625.3Q968.5 624.59 969.35 624.01Q973.31 621.29 979.14 621.29Q983.81 621.29 987.19 623.38Q992.69 626.78 994.78 635.68Q998.16 649.99 998.16 681.2ZM1887.52 679.55L1887.52 662.17Q1887.52 637.72 1891.37 629.55Q1893.91 624.11 1898.05 622.25Q1900.2 621.29 1902.77 621.29Q1905.87 621.29 1908.25 622.61Q1911.71 624.53 1913.62 629.23Q1916.84 637.09 1916.84 662.17L1916.84 677.97Q1916.84 701.48 1913.46 709.03Q1911.54 713.31 1908.25 715.17Q1905.75 716.57 1902.45 716.57Q1899.5 716.57 1897.13 715.39Q1893.46 713.55 1891.21 708.87Q1887.52 701.16 1887.52 679.55ZM1355.59 682.45L1322.41 682.45L1322.41 666.73Q1322.41 641.89 1326.73 631.75Q1329.62 625.09 1334.54 622.81Q1337.12 621.61 1340.26 621.61Q1344.31 621.61 1347.17 623.45Q1350.8 625.8 1352.52 631.12Q1355.59 640.63 1355.59 666.73L1355.59 682.45ZM1137.87 750.3Q1134.32 739.14 1134.32 705.33L1134.32 688.59Q1134.32 653.21 1138.18 639.06Q1140.99 628.91 1147.18 626Q1149.68 624.83 1152.73 624.83Q1157.57 624.83 1161.35 626.85Q1165.81 629.25 1168.77 634.5Q1174.27 644.17 1174.27 658.01L1174.27 728.21Q1174.27 744.64 1167.35 753.05Q1162.67 758.68 1156.81 760.51Q1154 761.38 1150.92 761.38Q1147.62 761.38 1145.03 760.02Q1140.22 757.5 1137.87 750.3Z" fill="#FFFFFF" fill-opacity="1.000000" fill-rule="evenodd"/>
	</g>
</svg>
