<svg xmlns="http://www.w3.org/2000/svg" width="184.117" height="184.033" viewBox="867.983 15685.983 184.117 184.033"><path d="M976.16 15868.84c4.524-1.14 4.291-7.822 3.46-12.831l7.699 10.019 1.77-.448-3.796-15.062-.128.032 3.699 14.678-.952-1.257-9.105-11.819-.213.055c.979 3.883 2.873 12.844-.942 15.711l-3.668-14.55-1.62.409 3.797 15.063Zm-10.58.794a7.844 7.844 0 0 0 5.179-9.772c-1.303-4.18-5.64-6.503-9.73-5.182-4.135 1.257-6.456 5.682-5.135 9.75 1.234 4.136 5.618 6.525 9.686 5.204Zm-.029-.175c-3.742 1.199-6.952-2.181-7.98-5.533-.985-3.31-.214-7.984 3.51-9.093 3.677-1.13 6.91 2.271 7.915 5.558 1.027 3.329.256 7.96-3.445 9.068Zm-16.856-15.826a7.732 7.732 0 0 0-8.873 6.37c-.715 4.274 2.166 8.258 6.311 8.952l4.948.826 2.562-15.321-4.948-.827Zm.718 15.714-3.255-.545c-3.32-.555-5.423-4.386-4.73-8.532.692-4.146 3.917-7.019 7.238-6.463l3.255.543-2.508 14.997Zm-14.758-8.253c.239-2.663-2.301-3.395-3.036-5.183l-.565 1.644c2.852.978 4.108 2.062 3.13 4.912l-1.157 3.371-1.707-.585c-2.539-.872-3.586-1.347-4.578-3.27l-.57 1.665 8.406 2.885 5.044-14.691-8.284-2.843-1.534 2.916c1.47-1.845 2.83-2.285 4.641-1.664l3.517 1.207-3.307 9.636Zm-14.997-14.21c1.737-1.606 3.127-1.859 4.812-.997l3.31 1.695-6.998 13.67 1.568.803 7.077-13.829-7.815-3.999-1.954 2.658Zm-9.162.07c-4.004-2.986 5.015-6.799-1.404-11.586l-.106.14c1.235.921.853 2.722.383 4.787-.57 2.456-1.448 4.958 1.022 6.8.537.401 1.213.57 1.876.466-2.03.956-4.176 1.441-6.723 1.985-.053-.04-2.468.328-3.886-.346l2.928 2.184c-.419-1.355 2.95-2.08 2.95-2.08 3.527-.829 6.31-1.8 9.167-4.748l-7.603 10.195 1.34 1 9.286-12.452-1.34-1c-1.722 2.31-3.386 3.731-5.157 4.745-.422.233-1.64.726-2.733-.09Zm-15.242-3.954a7.844 7.844 0 0 0 10.744-2.63c2.254-3.752 1.106-8.537-2.6-10.712-3.69-2.253-8.539-1.044-10.698 2.647-2.268 3.674-1.136 8.536 2.554 10.695Zm.112-.137c-3.383-1.997-2.994-6.643-1.175-9.64 1.818-2.936 5.821-5.47 9.126-3.427 3.29 1.996 2.9 6.672 1.114 9.608-1.803 2.984-5.775 5.486-9.064 3.46Zm-6.827-12.968c2.102-1.369 1.892-3.99 1.493-6.538-.824-5.58.859-7.15 2.665-6.593 3.467 1.051 4.552 6.226 1.156 11.01l2.563-1.669c1.317-3.824-.695-8.527-3.667-9.584-.967-.316-2.006-.217-3.002.431-2.175 1.416-1.978 4.019-1.536 6.592.827 5.868-1.105 7.336-2.982 6.51-2.284-.928-4.193-4.464-1.625-8.787l-1.936 1.26c-1.53 3.255 2.759 10.045 6.87 7.368Zm-6.465-19.102.988-.374-2.167-5.72-.988.374 2.167 5.72Zm3.383-15.993-.344-1.614-15.193 3.235.343 1.614 15.194-3.235Zm-16.28-1.467 15.448-1.634-.173-1.641-15.294 1.618c-.25-2.364 1.337-4.302 3.693-5.878 3.001-1.954 7.292-3.227 10.77-3.595l-.173-1.641-15.448 1.634.174 1.64 12.559-1.327c-2.788.625-5.731 1.667-7.98 3.21-2.403 1.538-4.001 3.588-3.749 5.973l.174 1.641Zm2.527-16.157c2.504.15 3.894-2.081 5.088-4.368 2.656-4.977 4.942-5.238 6.063-3.716 2.163 2.906-.042 7.712-5.617 9.539l3.052.182c3.333-2.292 4.512-7.269 2.752-9.885-.59-.83-1.484-1.368-2.67-1.438-2.591-.156-3.98 2.053-5.155 4.386-2.824 5.209-5.25 5.24-6.268 3.46-1.285-2.104-.717-6.082 3.919-8.032l-2.306-.137c-3.166 1.706-3.755 9.715 1.142 10.009Zm13.78-16.117.392-1.648-14.962-3.557c.56-2.265 1.015-3.604 2.71-4.738l-1.67-.398-2.815 11.838 1.67.396c-1.013-1.733-.811-3.155-.288-5.45l14.964 3.557Zm4.696-14.443.658-1.727-16.858.611-.054.145c2.056 2.574 5.091 5.85 7.616 8.062 1.127.994 2.169 1.72 3.034 2.17.886.454 1.589.463 2.047.003a.548.548 0 0 0 .27-.275c.393-.909-.234-1.549-1.113-2.331-1.25-1.23-3.061-2.84-2.057-6.46l6.457-.198Zm-6.625.205c-1.007 3.69.838 5.335 2.121 6.601.82.69 1.415 1.294 1.04 2.093a1.268 1.268 0 0 0-.213.248c-.353.431-1.045.33-1.872-.032-.845-.439-1.866-1.157-2.993-2.154-2.056-1.773-4.318-4.237-6.266-6.416l8.183-.34Zm11.974-13.153c.197.833.288 1.757-.028 2.72-1.006 3.676-5.636 4.663-8.98 3.701-3.313-.97-6.78-4.18-5.76-7.925 1.266-4.673 6.743-4.157 7.027-4.117l-1.968-1.17s-3.885.381-5.202 5.229a7.818 7.818 0 0 0 5.406 9.683c4.178 1.152 8.545-1.246 9.594-5.382a7.294 7.294 0 0 0-.142-4.716l-3.954-2.348-4.292 7.226 1.457.866c-.432-2.073.762-4.256 2.132-6.565l4.71 2.798Zm1.013-12.22c1.1-1.585 1.37-3.53-.232-4.973-1.865-1.677-4.365-.345-6.528 2.06l-2.59 2.88 11.567 10.401 1.163-1.292-9.179-8.255c.82.471 1.52.746 2.26.878 1.21.2 2.251-.134 2.972-.936 3.325-3.698 6.315 5.678 11.67-.277l-.131-.117c-.986 1.097-2.773.583-4.755-.076-2.126-.727-4.293-1.641-6.216-.293Zm-1.395-3.68c1.719 1.544 1.693 3.12.816 4.225l-.103.115c-.676.752-1.754.996-2.836.851-1.132-.189-2.33-.734-3.524-1.807l-1.014-.912 1.427-1.587c1.427-1.587 3.37-2.563 5.234-.886Zm22.194-3.351 1.471-1.12-14.64-8.38-.123.094c.387 3.271 1.236 7.657 2.212 10.868.432 1.44.934 2.607 1.432 3.444.512.855 1.104 1.234 1.737 1.084a.547.547 0 0 0 .374-.09c.813-.565.619-1.44.285-2.568-.412-1.705-1.101-4.028 1.663-6.573l5.59 3.24Zm-5.735-3.323c-2.804 2.602-2.105 4.974-1.684 6.728.333 1.018.52 1.843-.221 2.324a1.25 1.25 0 0 0-.312.1c-.527.18-1.063-.27-1.574-1.015-.485-.82-.972-1.97-1.405-3.41-.81-2.591-1.43-5.879-1.934-8.758l7.13 4.03Zm13.552-18.505c-4.177 2.075-2.53 8.554-.653 13.272l-9.653-8.152-1.635.813 6.912 13.911.119-.059-6.737-13.556 1.198 1.026 11.41 9.613.197-.098c-1.782-3.586-5.539-11.94-2.421-15.553l6.677 13.438 1.498-.744-6.912-13.911Zm12.443 3.823.243 1.028 5.953-1.406-.243-1.028-5.953 1.406Zm26.104 5.042 1.849-.03-6.83-15.425-.154.002c-1.625 2.865-3.54 6.901-4.656 10.066-.506 1.416-.794 2.653-.888 3.623-.093.992.16 1.648.757 1.902.096.091.222.144.354.149.991.028 1.352-.792 1.753-1.9.678-1.616 1.499-3.896 5.233-4.309l2.582 5.922Zm-2.65-6.075c-3.8.436-4.642 2.76-5.343 4.422-.335 1.018-.675 1.794-1.555 1.742a1.283 1.283 0 0 0-.31-.105c-.531-.168-.697-.848-.667-1.75.096-.948.384-2.163.888-3.58.883-2.566 2.33-5.582 3.63-8.2l3.356 7.471Zm16.654 6.31c-.702.49-1.528.914-2.54.974-3.788.418-6.41-3.524-6.745-6.987-.319-3.439 1.39-7.844 5.249-8.273 4.811-.543 6.348 4.74 6.415 5.019l.362-2.26s-1.782-3.473-6.775-2.914a7.819 7.819 0 0 0-7.016 8.59c.467 4.31 4.303 7.487 8.535 6.94a7.28 7.28 0 0 0 4.333-1.867l.729-4.54-8.3-1.332-.268 1.673c1.77-1.165 4.24-.858 6.889-.432l-.868 5.41Zm7.834-6.786c-.241 2.662 2.299 3.396 3.034 5.184l.565-1.644c-2.85-.98-4.107-2.063-3.127-4.913l1.16-3.37 1.705.586c2.538.872 3.584 1.348 4.575 3.271l.572-1.665-8.406-2.889-5.05 14.69 8.283 2.846 1.535-2.915c-1.47 1.844-2.832 2.283-4.641 1.661l-3.517-1.209 3.312-9.633Zm12.503-.924-7.255 13.736 1.459.77 7.183-13.599c2.102 1.11 2.825 3.508 2.821 6.343-.05 3.58-1.386 7.852-3.02 10.946l1.46.77 7.254-13.735-1.459-.77-5.898 11.167c1.034-2.664 1.81-5.688 1.782-8.415.064-2.853-.747-5.322-2.868-6.441l-1.46-.772Zm17.98 11.49c4.594 1.923 3.164 7.524 3.164 7.524l1.42-1.794s.158-3.887-4.523-5.879c-3.944-1.717-8.535.15-10.282 4.097-1.663 4.016.047 8.594 4.093 10.251a7.55 7.55 0 0 0 4.675.474l1.734-2.192c-1.716 1.673-4.05 2.602-6.376 1.605-3.56-1.527-3.889-6.218-2.525-9.432 1.418-3.141 5.028-6.178 8.62-4.654Zm15.1 15.83c.398-.148 1.561-.062 1.973.337l-1.648-1.86c.244.341.398 1.145-.584 1.398l-7.677 1.952.945-3.013 2.019-6.316-1.313-1.481-3.192 10-4.89 4.334 1.152 1.301 5.237-4.64 7.977-2.013Zm1.56 13.248-.926.51 2.955 5.356.924-.51-2.953-5.356Zm17.76 24.842c-1.266-4.49-7.938-4.07-12.923-3.1l9.799-7.976-.496-1.758-14.95 4.217.036.127 14.569-4.11-1.231.988-11.559 9.433.06.211c3.854-1.086 12.759-3.232 15.733.5l-14.443 4.074.454 1.61 14.95-4.216Zm1.091 10.564a7.846 7.846 0 0 0-9.912-4.91c-4.14 1.417-6.346 5.816-4.913 9.868 1.37 4.1 5.857 6.299 9.887 4.867 4.101-1.348 6.37-5.795 4.938-9.826Zm-.175.033c1.3 3.707-1.99 7.01-5.313 8.13-3.28 1.074-7.975.433-9.187-3.26-1.23-3.645 2.081-6.97 5.34-8.065 3.3-1.119 7.95-.475 9.16 3.195Zm-15.358 17.282a7.733 7.733 0 0 0 6.613 8.692c4.293.595 8.195-2.395 8.773-6.557l.69-4.969-15.386-2.135-.69 4.969Zm15.687-1.156-.454 3.27c-.463 3.334-4.233 5.543-8.396 4.965-4.164-.577-7.125-3.72-6.662-7.055l.454-3.27 15.058 2.09Zm-7.836 14.985c-2.67-.164-3.33 2.396-5.097 3.18l1.66.52c.898-2.878 1.945-4.165 4.823-3.267l3.402 1.063-.538 1.722c-.8 2.562-1.246 3.621-3.14 4.667l1.681.525 2.648-8.485-14.827-4.63-2.61 8.359 2.957 1.454c-1.884-1.419-2.363-2.767-1.793-4.594l1.108-3.549 9.726 3.035Zm-13.784 15.386c-1.655-1.693-1.947-3.075-1.132-4.783l1.6-3.356 13.862 6.613.758-1.588-14.02-6.689-3.78 7.924 2.712 1.879Zm-3.823-.124-.844 1.417 13.346 7.948.845-1.417-13.347-7.948Zm10.952 12.13-12.448-9.292-.987 1.323 12.326 9.2c-1.422 1.903-3.903 2.249-6.704 1.807-3.53-.604-7.544-2.585-10.347-4.677l-.987 1.323 12.45 9.291.986-1.322-10.122-7.554c2.473 1.433 5.34 2.667 8.039 3.061 2.808.505 5.373.085 6.807-1.837l.987-1.323Zm-27.884 10.38c.048-.854.224-1.766.8-2.6 2.009-3.24 6.728-2.873 9.66-1 2.903 1.87 5.317 5.933 3.275 9.233-2.54 4.122-7.646 2.074-7.907 1.955l1.556 1.68s3.833.737 6.472-3.537a7.82 7.82 0 0 0-2.434-10.82c-3.681-2.29-8.548-1.231-10.728 2.438a7.274 7.274 0 0 0-1.202 4.562l3.124 3.374 6.167-5.712-1.152-1.242c-.174 2.11-1.938 3.864-3.907 5.688l-3.724-4.02Zm-4.83 11.145-.522-.918-5.316 3.024.521.917 5.318-3.023Z" fill="#fff" fill-rule="evenodd" data-name="MODELkos - Instagram - agency - modeling - - photography-"/></svg>