<svg xmlns="http://www.w3.org/2000/svg" width="19.017" height="19" viewBox="1313.367 16405 19.017 19"><path d="M1322.87 16409.625a4.867 4.867 0 0 0-4.873 4.874 4.867 4.867 0 0 0 4.874 4.874 4.867 4.867 0 0 0 4.874-4.874 4.867 4.867 0 0 0-4.874-4.874Zm0 8.042a3.174 3.174 0 0 1-3.167-3.168 3.174 3.174 0 0 1 3.168-3.168 3.174 3.174 0 0 1 3.167 3.168 3.174 3.174 0 0 1-3.167 3.168Zm5.074-9.377c-.63 0-1.138.508-1.138 1.138 0 .63.508 1.138 1.138 1.138a1.135 1.135 0 0 0 1.052-1.574 1.138 1.138 0 0 0-1.052-.702Zm4.427 6.21c0-1.313.012-2.613-.062-3.922-.073-1.52-.42-2.87-1.532-3.983-1.115-1.114-2.462-1.459-3.983-1.533-1.312-.073-2.612-.061-3.921-.061-1.312 0-2.612-.012-3.921.061-1.52.074-2.87.421-3.983 1.533-1.114 1.115-1.459 2.462-1.532 3.983-.074 1.312-.062 2.612-.062 3.921 0 1.31-.012 2.612.062 3.921.073 1.521.42 2.87 1.532 3.983 1.115 1.114 2.462 1.46 3.983 1.533 1.312.073 2.612.062 3.921.062 1.312 0 2.612.011 3.921-.062 1.52-.074 2.87-.42 3.983-1.533 1.114-1.114 1.459-2.462 1.532-3.983.076-1.31.062-2.61.062-3.92Zm-2.091 5.603a3.021 3.021 0 0 1-.718 1.088 3.04 3.04 0 0 1-1.088.718c-1.25.496-4.218.385-5.603.385-1.386 0-4.356.111-5.606-.383a3.02 3.02 0 0 1-1.089-.718 3.04 3.04 0 0 1-.717-1.088c-.494-1.252-.383-4.22-.383-5.606 0-1.385-.111-4.356.383-5.606a3.02 3.02 0 0 1 .717-1.088 3.072 3.072 0 0 1 1.089-.718c1.25-.494 4.22-.382 5.606-.382 1.385 0 4.355-.112 5.605.382a3.02 3.02 0 0 1 1.089.718c.335.335.544.656.718 1.088.494 1.25.382 4.22.382 5.606 0 1.386.112 4.354-.385 5.604Z" fill="#fff" fill-rule="evenodd" data-name="instagram"/></svg>