<svg xmlns="http://www.w3.org/2000/svg" width="21.95" height="19.033" viewBox="1402.267 16405 21.95 19.033"><path d="M1424.2 16407.257a8.57 8.57 0 0 1-2.586.742c.938-.595 1.64-1.534 1.976-2.642a8.54 8.54 0 0 1-2.851 1.158 4.494 4.494 0 0 0-1.494-1.122 4.243 4.243 0 0 0-1.789-.393c-2.49 0-4.492 2.153-4.492 4.795 0 .371.042.742.11 1.099-3.727-.208-7.052-2.108-9.263-5.017a5.005 5.005 0 0 0-.611 2.42c0 1.664.793 3.131 2.002 3.994a4.32 4.32 0 0 1-2.031-.61v.059c0 2.33 1.544 4.26 3.602 4.705a4.48 4.48 0 0 1-1.183.163 5.6 5.6 0 0 1-.849-.073c.57 1.9 2.227 3.28 4.2 3.325-1.544 1.29-3.478 2.049-5.578 2.049-.376 0-.724-.014-1.085-.06a12.15 12.15 0 0 0 6.9 2.151c8.262 0 12.783-7.302 12.783-13.64 0-.208 0-.416-.013-.624a10.054 10.054 0 0 0 2.253-2.479Z" fill="#fff" fill-rule="evenodd" data-name="twitter"/></svg>