<svg width="17.229980" height="11.000000" viewBox="0 0 17.23 11" fill="none" xmlns="http://www.w3.org/2000/svg" xmlns:xlink="http://www.w3.org/1999/xlink">
	<desc>
			Created with Pixso.
	</desc>
	<defs/>
	<g style="mix-blend-mode:normal">
		<path id="2205194_eye_look_monitor_observe_vision_icon" d="M8.61 0.5C4.19 0.5 0.61 5.5 0.61 5.5C0.61 5.5 4.19 10.5 8.61 10.5C13.03 10.5 16.61 5.5 16.61 5.5C16.61 5.5 13.03 0.5 8.61 0.5ZM8.61 8.5C6.95 8.5 5.61 7.15 5.61 5.5C5.61 3.84 6.95 2.5 8.61 2.5C10.27 2.5 11.61 3.84 11.61 5.5C11.61 7.15 10.27 8.5 8.61 8.5Z" fill="#000000" fill-opacity="0" fill-rule="nonzero"/>
		<path id="2205194_eye_look_monitor_observe_vision_icon" d="M0.61 5.5C0.61 5.5 4.19 10.5 8.61 10.5C13.03 10.5 16.61 5.5 16.61 5.5C16.61 5.5 13.03 0.5 8.61 0.5C4.19 0.5 0.61 5.5 0.61 5.5ZM5.61 5.5C5.61 3.84 6.95 2.5 8.61 2.5C10.27 2.5 11.61 3.84 11.61 5.5C11.61 7.15 10.27 8.5 8.61 8.5C6.95 8.5 5.61 7.15 5.61 5.5Z" stroke="#808080" stroke-opacity="1.000000" stroke-width="1.000000"/>
	</g>
</svg>
