<svg width="12.069092" height="15.543945" viewBox="0 0 12.0691 15.5439" fill="none" xmlns="http://www.w3.org/2000/svg" xmlns:xlink="http://www.w3.org/1999/xlink">
	<desc>
			Created with Pixso.
	</desc>
	<defs/>
	<g style="mix-blend-mode:normal">
		<path id="Path 8" d="M11.56 6.03C11.56 2.96 9.1 0.5 6.03 0.5C2.96 0.5 0.5 2.96 0.5 6.03C0.5 9.1 6.03 14.82 6.03 14.82C6.03 14.82 11.56 9.1 11.56 6.03ZM3.45 5.92C3.45 4.51 4.62 3.34 6.03 3.34C7.44 3.34 8.61 4.48 8.61 5.92C8.61 7.33 7.47 8.5 6.03 8.5C4.62 8.5 3.45 7.33 3.45 5.92Z" fill="#000000" fill-opacity="0" fill-rule="nonzero"/>
		<path id="Path 8" d="M6.03 0.5C2.96 0.5 0.5 2.96 0.5 6.03C0.5 9.1 6.03 14.82 6.03 14.82C6.03 14.82 11.56 9.1 11.56 6.03C11.56 2.96 9.1 0.5 6.03 0.5ZM6.03 3.34C7.44 3.34 8.61 4.48 8.61 5.92C8.61 7.33 7.47 8.5 6.03 8.5C4.62 8.5 3.45 7.33 3.45 5.92C3.45 4.51 4.62 3.34 6.03 3.34Z" stroke="#808080" stroke-opacity="1.000000" stroke-width="1.000000"/>
	</g>
</svg>
