<svg width="13.060547" height="13.058960" viewBox="0 0 13.0605 13.059" fill="none" xmlns="http://www.w3.org/2000/svg" xmlns:xlink="http://www.w3.org/1999/xlink">
	<desc>
			Created with Pixso.
	</desc>
	<defs/>
	<g style="mix-blend-mode:normal">
		<path id="XMLID_223_" d="M12.74 11.2L9.97 8.43C10.54 7.57 10.88 6.54 10.88 5.44C10.88 2.44 8.44 0 5.44 0C2.44 0 0 2.44 0 5.44C0 8.44 2.44 10.88 5.44 10.88C6.54 10.88 7.57 10.54 8.43 9.97L11.2 12.74C11.62 13.16 12.31 13.16 12.74 12.74C13.16 12.31 13.16 11.62 12.74 11.2ZM1.63 5.44C1.63 3.34 3.34 1.63 5.44 1.63C7.54 1.63 9.25 3.34 9.25 5.44C9.25 7.54 7.54 9.25 5.44 9.25C3.34 9.25 1.63 7.54 1.63 5.44Z" fill="#FFFFFF" fill-opacity="1.000000" fill-rule="nonzero"/>
		<path id="XMLID_223_" d="M9.97 8.43C10.54 7.57 10.88 6.54 10.88 5.44C10.88 2.44 8.44 0 5.44 0C2.44 0 0 2.44 0 5.44C0 8.44 2.44 10.88 5.44 10.88C6.54 10.88 7.57 10.54 8.43 9.97L11.2 12.74C11.62 13.16 12.31 13.16 12.74 12.74C13.16 12.31 13.16 11.62 12.74 11.2L9.97 8.43ZM5.44 1.63C7.54 1.63 9.25 3.34 9.25 5.44C9.25 7.54 7.54 9.25 5.44 9.25C3.34 9.25 1.63 7.54 1.63 5.44C1.63 3.34 3.34 1.63 5.44 1.63Z" stroke="#707070" stroke-opacity="0" stroke-width="1.000000"/>
	</g>
</svg>
