<svg width="30.693115" height="25.518555" viewBox="0 0 30.6931 25.5186" fill="none" xmlns="http://www.w3.org/2000/svg" xmlns:xlink="http://www.w3.org/1999/xlink">
	<desc>
			Created with Pixso.
	</desc>
	<defs/>
	<g style="mix-blend-mode:normal">
		<path id="Path 24" d="M14.48 0.35L30.69 6.88L29.31 8.14L30.47 14.7L28.28 15.09L27.37 9.94L23.04 13.83C23.65 14.01 24.14 14.29 24.62 14.57C25.84 15.3 26.69 16.39 26.9 17.59C27.23 19.42 26.23 21.2 24.44 22.6C22.91 23.82 20.68 24.79 18.07 25.26C15.53 25.7 13.1 25.55 11.25 24.93C9.08 24.22 7.54 22.89 7.22 21.06C7 19.86 7.37 18.63 8.2 17.54C8.54 17.04 9.05 16.59 9.56 16.21L0 12.29L13.61 0L14.48 0.35ZM20.46 16.1L17 19.19L12.77 17.46C11.77 18 10.94 18.66 10.46 19.25C10.11 19.75 9.98 20.21 10.04 20.56C10.16 21.27 10.92 21.86 12.08 22.24C13.54 22.71 15.54 22.86 17.58 22.5C19.7 22.13 21.52 21.3 22.66 20.37C23.62 19.62 24.2 18.79 24.08 18.08C24 17.66 23.65 17.29 23.15 16.94C22.5 16.54 21.58 16.27 20.46 16.1ZM20.47 5.84L14.2 3.31L5.29 11.36L16.43 15.94L25.4 7.81L20.47 5.84Z" fill="#E2E2E2" fill-opacity="1.000000" fill-rule="nonzero"/>
		<path id="Path 24" d="M30.69 6.88L29.31 8.14L30.47 14.7L28.28 15.09L27.37 9.94L23.04 13.83C23.65 14.01 24.14 14.29 24.62 14.57C25.84 15.3 26.69 16.39 26.9 17.59C27.23 19.42 26.23 21.2 24.44 22.6C22.91 23.82 20.68 24.79 18.07 25.26C15.53 25.7 13.1 25.55 11.25 24.93C9.08 24.22 7.54 22.89 7.22 21.06C7 19.86 7.37 18.63 8.2 17.54C8.54 17.04 9.05 16.59 9.56 16.21L0 12.29L13.61 0L14.48 0.35L30.69 6.88ZM17 19.19L12.77 17.46C11.77 18 10.94 18.66 10.46 19.25C10.11 19.75 9.98 20.21 10.04 20.56C10.16 21.27 10.92 21.86 12.08 22.24C13.54 22.71 15.54 22.86 17.58 22.5C19.7 22.13 21.52 21.3 22.66 20.37C23.62 19.62 24.2 18.79 24.08 18.08C24 17.66 23.65 17.29 23.15 16.94C22.5 16.54 21.58 16.27 20.46 16.1L17 19.19ZM14.2 3.31L5.29 11.36L16.43 15.94L25.4 7.81L20.47 5.84L14.2 3.31Z" stroke="#707070" stroke-opacity="0" stroke-width="1.000000"/>
	</g>
</svg>
