<svg width="45.999512" height="45.999023" viewBox="0 0 45.9995 45.999" fill="none" xmlns="http://www.w3.org/2000/svg" xmlns:xlink="http://www.w3.org/1999/xlink">
	<desc>
			Created with Pixso.
	</desc>
	<defs/>
	<g style="mix-blend-mode:normal">
		<mask id="mask_1_2151" fill="white">
			<path id="Subtraction 6" d="M45.9995 23L22.9998 0L0 23L22.9998 45.999L45.9995 23ZM23.1948 27.2451C23.6584 21.6338 25.2197 14.3887 30.3914 14.3887L30.3914 31.6113L28.5374 31.6113L28.5374 14.9746C23.6584 17.0234 23.2681 27.1719 23.2681 31.6113L23.0242 31.6113L16.4375 16.4375L15.7544 14.8281L15.7544 31.6113L15.6082 31.6113L15.6082 14.3887L17.6328 14.3887L23.1948 27.2451Z" clip-rule="evenodd" fill="" fill-opacity="1.000000" fill-rule="evenodd"/>
		</mask>
		<path id="Subtraction 6" d="M45.9995 23L22.9998 0L0 23L22.9998 45.999L45.9995 23ZM23.1948 27.2451C23.6584 21.6338 25.2197 14.3887 30.3914 14.3887L30.3914 31.6113L28.5374 31.6113L28.5374 14.9746C23.6584 17.0234 23.2681 27.1719 23.2681 31.6113L23.0242 31.6113L16.4375 16.4375L15.7544 14.8281L15.7544 31.6113L15.6082 31.6113L15.6082 14.3887L17.6328 14.3887L23.1948 27.2451Z" clip-rule="evenodd" fill="#FFFFFF" fill-opacity="1.000000" fill-rule="evenodd" mask="url(#mask_1_2151)"/>
		<path id="Subtraction 6" d="" fill="#707070" fill-opacity="0.000000" fill-rule="nonzero"/>
	</g>
</svg>
